<?xml version="1.0" standalone="no"?>
<!DOCTYPE svg PUBLIC "-//W3C//DTD SVG 1.1//EN" "http://www.w3.org/Graphics/SVG/1.1/DTD/svg11.dtd" >
<svg>
<metadata>
Created by FontForge 20090622 at Tue Aug  4 21:45:31 2015
 By deploy user
Copyright 2014 Adobe Systems Incorporated. All Rights Reserved.
</metadata>
<defs>
<font id="SourceSerifPro-Bold" horiz-adv-x="373" >
  <font-face 
    font-family="Source Serif Pro"
    font-weight="700"
    font-stretch="normal"
    units-per-em="1000"
    panose-1="2 4 8 3 5 4 5 2 2 4"
    ascent="730"
    descent="-270"
    x-height="483"
    cap-height="657"
    bbox="-198 -324 1177 913"
    underline-thickness="50"
    underline-position="-50"
    unicode-range="U+0020-U+FB02"
  />
<missing-glyph horiz-adv-x="640" 
d="M357 329l136 -221v441zM189 57h262l-131 212zM147 549v-441l136 221zM451 600h-262l131 -212zM560 657v-657h-480v657h480z" />
    <glyph glyph-name="f_i" unicode="fi" horiz-adv-x="629" 
d="M558 57l50 -10v-47h-266v47l54 12q1 48 1 151v72q0 69 -3 132h-148v-204q0 -49 2 -151l58 -12v-47h-276v47l55 11q2 102 2 152v204h-65v60l67 9q10 69 35 112.5t64 76.5q75 64 205 64q58 0 96.5 -21t44.5 -64q-1 -29 -18.5 -47.5t-48.5 -18.5q-50 0 -90 75l-21 33
q-25 -13 -46 -33q-32 -32 -46.5 -69t-17.5 -108h192l105 18l17 -11l-3 -145v-135q0 -104 1 -153z" />
    <glyph glyph-name="f_l" unicode="fl" horiz-adv-x="637" 
d="M563 57l51 -10v-47h-265v47l51 11q2 102 2 152v394q-59 3 -98 69l-5 9q-12 -10 -23 -25q-36 -56 -33 -174h108v-69h-105v-204q0 -98 1 -147l67 -16v-47h-284v47l55 11q2 102 2 152v204h-65v60l67 8q17 130 87 190q72 64 168 64q86 0 114 -46l91 26l16 -10l-4 -140v-356
q0 -51 2 -153z" />
    <glyph glyph-name="f_t" unicode="ft" horiz-adv-x="682" 
d="M664 90l24 -24q-41 -80 -146 -80q-144 0 -144 139q0 17 0.5 49t0.5 52v188h-153v-204q0 -98 1 -147l77 -16v-47h-294v47l55 11q2 102 2 152v204h-65v60l67 8q16 127 83 188q70 66 167 66q103 0 120 -71q-1 -29 -20 -48t-52 -19q-50 0 -90 71l-8 11q-12 -14 -16 -21
q-33 -56 -29 -176h178l52 141h87l-2 -141h104v-69h-105v-278q0 -34 14 -51t37 -17q24 0 55 22z" />
    <glyph glyph-name=".notdef" horiz-adv-x="640" 
d="M357 329l136 -221v441zM189 57h262l-131 212zM147 549v-441l136 221zM451 600h-262l131 -212zM560 657v-657h-480v657h480z" />
    <glyph glyph-name=".null" horiz-adv-x="0" 
 />
    <glyph glyph-name="nonmarkingreturn" horiz-adv-x="333" 
 />
    <glyph glyph-name="space" unicode=" " horiz-adv-x="214" 
 />
    <glyph glyph-name="exclam" unicode="!" horiz-adv-x="347" 
d="M173 -15q-39 0 -66 27t-27 65t27 65.5t66 27.5t66.5 -27t27.5 -66q0 -38 -27 -65t-67 -27zM173 668q44 0 70 -24.5t26 -70.5q0 -68 -44 -228l-25 -96h-53l-25 96q-44 157 -44 228q0 46 25.5 70.5t69.5 24.5z" />
    <glyph glyph-name="quotedbl" unicode="&#x22;" horiz-adv-x="447" 
d="M117 729q79 0 79 -83q0 -29 -25 -146l-26 -105h-54l-26 105q-25 112 -25 146q0 83 77 83zM328 729q79 0 79 -83q0 -29 -25 -146l-26 -105h-54l-26 105q-25 112 -25 146q0 83 77 83z" />
    <glyph glyph-name="numbersign" unicode="#" horiz-adv-x="567" 
d="M347 268l16 106h-139l-16 -106h139zM549 374h-105l-16 -106h87v-109h-103l-24 -159h-82l24 159h-138l-24 -159h-81l24 159h-92v109h108l16 106h-91v109h108l24 160h81l-24 -160h139l24 160h81l-24 -160h88v-109z" />
    <glyph glyph-name="dollar" unicode="$" horiz-adv-x="542" 
d="M306 227v-185q64 22 64 87q0 37 -14.5 58.5t-49.5 39.5zM250 412v174q-65 -18 -65 -88q0 -31 15.5 -50.5t49.5 -35.5zM313 387l4 -2q103 -41 146 -88.5t43 -122.5q0 -73 -54 -125.5t-146 -64.5v-99h-63v96q-91 3 -141 40t-51 102q18 46 61 46q29 0 45.5 -16t21.5 -54
l7 -58q23 -5 57 -7v220l-12 5q-90 37 -133.5 83.5t-43.5 120.5q0 72 52.5 122.5t143.5 58.5v92h63v-91q79 -6 124.5 -43t47.5 -95q-8 -49 -56 -49q-66 0 -79 82l-8 49q-1 0 -29 3v-205z" />
    <glyph glyph-name="percent" unicode="%" horiz-adv-x="874" 
d="M242 -32l-47 32l447 659l47 -32zM154 440q0 -66 7.5 -105t18 -51.5t26.5 -12.5q53 0 53 169q0 170 -53 170q-16 0 -26.5 -12.5t-18 -51.5t-7.5 -106zM206 644q65 0 109 -51.5t44 -152.5q0 -99 -44 -151t-109 -52t-108.5 51.5t-43.5 151.5q0 101 43 152.5t109 51.5z
M616 194q0 -66 7.5 -105t18 -51.5t26.5 -12.5q53 0 53 169q0 170 -53 170q-16 0 -26.5 -12.5t-18 -51.5t-7.5 -106zM668 398q65 0 109 -51.5t44 -152.5q0 -99 -44 -151t-109 -52t-108.5 51.5t-43.5 151.5q0 101 43 152.5t109 51.5z" />
    <glyph glyph-name="ampersand" unicode="&#x26;" horiz-adv-x="721" 
d="M159 203q0 -60 39 -97t98 -37q53 0 90 23q-24 26 -88 105l-96 118q-43 -47 -43 -112zM297 628q-30 0 -48.5 -21.5t-18.5 -54.5q0 -47 35 -99q18 -24 33 -41q65 72 65 142q0 34 -17.5 54t-48.5 20zM696 381l-70 -11q-34 -110 -102 -204l72 -75l98 -21l-9 -70
q-59 -14 -98 -14q-87 0 -147 52q-11 9 -20 20q-68 -73 -192 -73q-97 0 -151 50.5t-54 125.5q0 118 152 187l-5 5q-60 79 -60 158q0 73 51.5 116t137.5 43q82 0 127.5 -35.5t45.5 -94.5q0 -50 -35.5 -87.5t-112.5 -70.5l74 -82l92 -99q42 73 62 168l-77 12v45h221v-45z" />
    <glyph glyph-name="quotesingle" unicode="'" horiz-adv-x="236" 
d="M117 729q79 0 79 -83q0 -29 -25 -146l-26 -105h-54l-26 105q-25 112 -25 146q0 83 77 83z" />
    <glyph glyph-name="parenleft" unicode="(" horiz-adv-x="377" 
d="M192 278q0 -116 36 -208.5t121 -196.5l-47 -41q-229 180 -229 446t229 446l47 -41q-85 -104 -121 -196.5t-36 -208.5z" />
    <glyph glyph-name="parenright" unicode=")" horiz-adv-x="377" 
d="M185 278q0 116 -36 208.5t-121 196.5l47 41q229 -180 229 -446t-229 -446l-47 41q85 104 121 196.5t36 208.5z" />
    <glyph glyph-name="asterisk" unicode="*" horiz-adv-x="431" 
d="M215 736q23 0 36 -15t13 -38q0 -24 -20 -91l-9 -31l27 18q71 49 102 49q19 0 33 -13t14 -36q0 -30 -31.5 -42t-99.5 -13l-32 -2l25 -20q46 -35 63.5 -55.5t17.5 -42.5q0 -17 -14 -31.5t-33 -14.5q-27 0 -43.5 25.5t-37.5 84.5l-12 30l-11 -30q-21 -60 -39 -84.5
t-43 -24.5q-19 0 -33 14.5t-14 31.5q0 22 19 43.5t63 53.5l25 20l-31 2q-70 0 -100.5 12.5t-30.5 42.5q0 23 14.5 36t32.5 13q32 0 102 -49l26 -18l-8 31q-19 61 -19 91q0 23 12.5 38t35.5 15z" />
    <glyph glyph-name="plus" unicode="+" horiz-adv-x="544" 
d="M515 367v-88h-197v-207h-92v207h-196v88h196v202h92v-202h197z" />
    <glyph glyph-name="comma" unicode="," horiz-adv-x="300" 
d="M151 -24l-35 18q-56 31 -56 84q0 37 25 62t63 25q43 0 75 -28q15 -38 15 -81q0 -95 -62.5 -163.5t-143.5 -94.5l-14 43q96 51 133 135z" />
    <glyph glyph-name="hyphen" unicode="-" horiz-adv-x="339" 
d="M40 209v90h259v-90h-259z" />
    <glyph glyph-name="period" unicode="." horiz-adv-x="300" 
d="M150 -15q-38 0 -64 26t-26 63q0 38 26 64.5t64 26.5t64 -26.5t26 -64.5q0 -37 -26 -63t-64 -26z" />
    <glyph glyph-name="slash" unicode="/" horiz-adv-x="387" 
d="M9 -160l267 870h102l-267 -870h-102z" />
    <glyph glyph-name="zero" unicode="0" horiz-adv-x="542" 
d="M187 315q0 -108 11.5 -171.5t29 -85t43.5 -21.5t43.5 21.5t29.5 85.5t12 171q0 279 -85 279q-26 0 -43.5 -21.5t-29 -85.5t-11.5 -172zM271 646q101 0 169 -84t68 -247t-68 -246.5t-169 -83.5t-168 83t-67 247t67 247.5t168 83.5z" />
    <glyph glyph-name="one" unicode="1" horiz-adv-x="542" 
d="M358 75l116 -28v-47h-401v47l122 28q1 44 1 133v325l-98 -9v58l249 55l14 -10l-4 -142v-277q0 -88 1 -133z" />
    <glyph glyph-name="two" unicode="2" horiz-adv-x="542" 
d="M162 123h339v-123h-449v89l135 135q74 73 107 128t33 120q0 57 -27.5 89.5t-74.5 32.5q-17 0 -25 -1l-13 -71q-12 -85 -74 -85q-45 0 -65 41q2 79 68 123.5t164 44.5q104 0 156 -47.5t52 -125.5q0 -71 -54.5 -135.5t-180.5 -149.5z" />
    <glyph glyph-name="three" unicode="3" horiz-adv-x="542" 
d="M212 593l-10 -65q-12 -70 -75 -70q-38 0 -56 32q0 77 57 116.5t142 39.5q107 0 163.5 -44.5t56.5 -115.5q0 -51 -35 -92.5t-107 -60.5q85 -15 123 -56.5t38 -109.5q0 -80 -67 -131t-182 -51q-103 0 -158.5 43t-59.5 123q17 44 62 44q32 0 50 -20t24 -69l9 -67
q16 -2 23 -2q135 0 135 136q0 62 -33 94.5t-95 32.5h-35v56h29q122 0 122 124q0 114 -102 114q-12 0 -19 -1z" />
    <glyph glyph-name="four" unicode="4" horiz-adv-x="542" 
d="M104 244h177v250zM515 244v-111h-92v-133h-142v133h-260v92l291 408h111v-389h92z" />
    <glyph glyph-name="five" unicode="5" horiz-adv-x="542" 
d="M179 507l-9 -126q47 9 97 9q116 0 181.5 -51t65.5 -146q0 -100 -73.5 -154t-191.5 -54q-95 0 -149.5 44t-59.5 121q16 45 64 45q32 0 49.5 -20t22.5 -65l8 -68q15 -5 38 -5q56 0 90 37t34 101q0 69 -31.5 105.5t-89.5 36.5q-43 0 -95 -11l-28 20l21 305h366v-124h-310z
" />
    <glyph glyph-name="six" unicode="6" horiz-adv-x="542" 
d="M189 289v-8q0 -244 91 -244q35 0 55 36t20 108q0 145 -86 145q-46 0 -80 -37zM461 646l6 -50q-241 -60 -273 -254q51 51 134 51q89 0 136.5 -51t47.5 -140q0 -104 -66 -160.5t-166 -56.5q-116 0 -184 71.5t-68 201.5q0 154 120 262.5t313 125.5z" />
    <glyph glyph-name="seven" unicode="7" horiz-adv-x="542" 
d="M53 631h448v-77l-235 -554h-147l-10 10l291 497h-347v124z" />
    <glyph glyph-name="eight" unicode="8" horiz-adv-x="542" 
d="M270 37q41 0 64 26t23 64q0 41 -28.5 73t-101.5 65q-52 -55 -52 -121q0 -46 27 -76.5t68 -30.5zM273 593q-34 0 -59 -22t-25 -58t24.5 -66t92.5 -64q48 58 48 121q0 39 -22 64t-59 25zM357 359q143 -72 143 -192q0 -84 -64.5 -133t-177.5 -49q-105 0 -159.5 40t-54.5 111
q0 99 131 154q-119 66 -119 175q0 82 62 131.5t159 49.5q99 0 150 -41t51 -104q0 -86 -121 -142z" />
    <glyph glyph-name="nine" unicode="9" horiz-adv-x="542" 
d="M284 307q38 0 64 18q3 30 3 65q0 113 -21 158.5t-62 45.5q-36 0 -59 -36.5t-23 -110.5q0 -67 26 -103.5t72 -36.5zM101 -20l-10 51q113 38 172 94.5t78 149.5q-47 -33 -114 -33q-88 0 -143.5 50.5t-55.5 141.5q0 101 68.5 156.5t169.5 55.5q118 0 182 -71t64 -199
q0 -153 -111.5 -259.5t-299.5 -136.5z" />
    <glyph glyph-name="colon" unicode=":" horiz-adv-x="300" 
d="M150 335q-38 0 -64 26t-26 63q0 38 26 64.5t64 26.5t64 -26.5t26 -64.5q0 -37 -26 -63t-64 -26zM150 -15q-38 0 -64 26t-26 63q0 38 26 64.5t64 26.5t64 -26.5t26 -64.5q0 -37 -26 -63t-64 -26z" />
    <glyph glyph-name="semicolon" unicode=";" horiz-adv-x="300" 
d="M150 335q-38 0 -64 26t-26 63q0 38 26 64.5t64 26.5t64 -26.5t26 -64.5q0 -37 -26 -63t-64 -26zM151 -24l-35 18q-56 31 -56 84q0 37 25 62t63 25q43 0 75 -28q15 -38 15 -81q0 -95 -62.5 -163.5t-143.5 -94.5l-14 43q96 51 133 135z" />
    <glyph glyph-name="less" unicode="&#x3c;" horiz-adv-x="544" 
d="M499 491l-343 -167l343 -168l-43 -86l-418 216v75l418 216z" />
    <glyph glyph-name="equal" unicode="=" horiz-adv-x="544" 
d="M515 174h-485v88h485v-88zM515 384h-485v88h485v-88z" />
    <glyph glyph-name="greater" unicode="&#x3e;" horiz-adv-x="544" 
d="M88 578l418 -216v-75l-418 -216l-43 86l343 168l-343 167z" />
    <glyph glyph-name="question" unicode="?" horiz-adv-x="449" 
d="M172 170q39 0 66 -27t27 -66t-26.5 -65.5t-66.5 -26.5q-39 0 -66.5 27t-27.5 65t27.5 65.5t66.5 27.5zM311 499l-149 28q-52 9 -71.5 26.5t-19.5 47.5q0 55 81 75q34 -9 73 -29t78.5 -50.5t65 -75.5t25.5 -94q0 -107 -113 -123l-43 -6q-23 -4 -31 -11t-10 -27l-2 -31h-57
l-12 36q-20 66 -20 91q0 24 17 36.5t60 22.5l84 18q26 7 37 17t11 28q0 12 -4 21z" />
    <glyph glyph-name="at" unicode="@" horiz-adv-x="890" 
d="M484 161l40 233q-19 19 -42 19q-44 0 -79 -53q-42 -63 -42 -143q0 -45 17 -68t45 -23q30 0 61 35zM656 457l-46 -262q-10 -54 -0.5 -75.5t39.5 -21.5q51 0 83.5 57t32.5 169q0 132 -70.5 198t-194.5 66q-158 0 -261 -112t-103 -273q0 -136 79.5 -212t211.5 -76
q111 0 186 44l27 -48q-100 -67 -229 -67q-168 0 -270 95.5t-102 261.5q0 122 58.5 226t167.5 167.5t245 63.5q153 0 247.5 -93t94.5 -244q0 -127 -63.5 -204.5t-162.5 -77.5q-107 0 -136 79q-58 -79 -137 -79q-51 0 -84.5 37.5t-33.5 109.5q0 57 23.5 115.5t61.5 101.5
q33 37 75.5 58t81.5 21q57 0 94 -40l59 32z" />
    <glyph glyph-name="A" unicode="A" horiz-adv-x="675" 
d="M207 249h164l-81 255zM601 59l61 -7v-52h-309v52l77 10l-41 129h-201l-40 -125l76 -12v-54h-215v54l81 12l203 591h103z" />
    <glyph glyph-name="B" unicode="B" horiz-adv-x="651" 
d="M277 58h32q71 0 109 32.5t38 95.5q0 68 -36 99.5t-111 31.5h-34q0 -175 2 -259zM312 599h-35q-2 -75 -2 -229h28q124 0 124 120q0 109 -115 109zM33 657h323q121 0 177 -42t56 -113q0 -119 -170 -150q209 -25 209 -168q0 -27 -8 -51.5t-30 -49t-55.5 -42.5t-89 -29.5
t-127.5 -11.5h-285v54l75 8q2 82 2 252v29q0 168 -2 252l-75 8v54z" />
    <glyph glyph-name="C" unicode="C" horiz-adv-x="622" 
d="M519 186h76l-4 -154q-95 -51 -210 -51q-152 0 -249.5 90t-97.5 258t101.5 257.5t252.5 89.5q105 0 196 -50l4 -155h-76l-29 132q-33 16 -72 16q-86 0 -143 -73t-57 -218t55 -217t141 -72q40 0 84 19z" />
    <glyph glyph-name="D" unicode="D" horiz-adv-x="705" 
d="M280 58h36q83 0 132.5 71t49.5 200q0 130 -49.5 200t-133.5 70h-35q-2 -83 -2 -252v-33q0 -172 2 -256zM33 657h297q158 0 249.5 -87.5t91.5 -238.5q0 -155 -97 -243t-262 -88h-279v54l75 8q2 81 2 251v34q0 166 -2 248l-75 8v54z" />
    <glyph glyph-name="E" unicode="E" horiz-adv-x="595" 
d="M487 172h83l-7 -172h-530v54l75 8q2 81 2 248v37q0 166 -2 248l-75 8v54h510l7 -172h-83l-20 116h-167q-2 -76 -2 -232h108l12 78h58v-215h-58l-12 78h-108q0 -171 2 -254h187z" />
    <glyph glyph-name="F" unicode="F" horiz-adv-x="580" 
d="M454 601h-174q-2 -76 -2 -232h111l12 78h58v-225h-58l-13 88h-110q0 -166 2 -247l89 -9v-54h-336v54l75 8q2 81 2 248v37q0 166 -2 248l-75 8v54h517l7 -172h-83z" />
    <glyph glyph-name="G" unicode="G" horiz-adv-x="675" 
d="M660 337v-53l-52 -7q-2 -128 -2 -195v-42q-103 -59 -226 -59q-156 0 -251 93.5t-95 255.5q0 159 94.5 252.5t263.5 93.5q107 0 193 -46l4 -156h-77l-29 131q-34 14 -72 14q-87 0 -143.5 -73.5t-56.5 -215.5q0 -143 55.5 -217.5t142.5 -74.5q22 0 38 4v43q0 63 -2 187
l-90 12v53h305z" />
    <glyph glyph-name="H" unicode="H" horiz-adv-x="763" 
d="M730 603l-74 -8q-2 -81 -2 -248v-37q0 -166 2 -248l74 -8v-54h-316v54l70 7q2 80 2 247h-210q0 -166 2 -247l70 -7v-54h-315v54l73 8q2 81 2 248v37q0 165 -2 248l-73 8v54h315v-54l-70 -7q-2 -75 -2 -229h210q0 153 -2 229l-70 7v54h316v-54z" />
    <glyph glyph-name="I" unicode="I" horiz-adv-x="388" 
d="M355 603l-75 -8q-2 -81 -2 -248v-36q0 -167 2 -249l75 -8v-54h-322v54l75 8q2 81 2 248v37q0 166 -2 248l-75 8v54h322v-54z" />
    <glyph glyph-name="J" unicode="J" horiz-adv-x="395" 
d="M368 657v-54l-77 -8q-1 -78 -1 -239v-104q0 -200 -45 -290q-29 -64 -85 -99.5t-125 -35.5q-86 0 -120 63q1 34 23 54t56 20q45 0 91 -55l21 -25q22 41 22 153q0 40 -1 110t-3 198.5l-4 248.5l-85 9v54h333z" />
    <glyph glyph-name="K" unicode="K" horiz-adv-x="696" 
d="M629 61l62 -7v-54h-289v54l47 5l-124 247l-55 -66q0 -118 2 -178l65 -8v-54h-304v54l75 8q2 81 2 248v37q0 166 -2 248l-75 8v54h315v-54l-76 -8q-2 -81 -2 -248v-33l224 278l-66 11v54h232v-54l-95 -12l-134 -159z" />
    <glyph glyph-name="L" unicode="L" horiz-adv-x="580" 
d="M480 196h81l-10 -196h-518v54l75 8q2 82 2 248v37q0 166 -2 248l-75 8v54h330v-54l-83 -8q-2 -82 -2 -248v-42q0 -165 2 -248h172z" />
    <glyph glyph-name="M" unicode="M" horiz-adv-x="896" 
d="M863 603l-75 -8q-2 -81 -2 -248v-36q0 -167 2 -249l75 -8v-54h-319v54l73 8q3 122 3 248v170l-196 -480h-52l-199 473l-1 -406l92 -13v-54h-246v54l97 14l4 527l-83 8v54h236l182 -433l174 433h235v-54z" />
    <glyph glyph-name="N" unicode="N" horiz-adv-x="728" 
d="M699 657v-54l-85 -13v-600h-84l-352 495v-418l114 -13v-54h-264v54l85 12v511l-14 20l-69 6v54h226l294 -404v337l-114 13v54h263z" />
    <glyph glyph-name="O" unicode="O" horiz-adv-x="702" 
d="M211 329q0 -132 34 -211t106 -79t106 78.5t34 211.5q0 132 -34 210.5t-106 78.5q-71 0 -105.5 -78.5t-34.5 -210.5zM351 676q132 0 224.5 -90.5t92.5 -256.5q0 -165 -92.5 -256.5t-224.5 -91.5q-85 0 -155.5 37t-116 118t-45.5 193q0 164 92.5 255.5t224.5 91.5z" />
    <glyph glyph-name="P" unicode="P" horiz-adv-x="613" 
d="M303 599h-23q-2 -83 -2 -252v-40h23q68 0 103 41t35 112q0 68 -35 103.5t-101 35.5zM300 251h-22q0 -121 2 -188l89 -9v-54h-336v54l75 8q2 81 2 248v37q0 166 -2 248l-75 8v54h272q291 0 291 -198q0 -94 -70 -151t-226 -57z" />
    <glyph glyph-name="Q" unicode="Q" horiz-adv-x="702" 
d="M351 618q-71 0 -105.5 -78.5t-34.5 -210.5t34 -211t106 -79t106 78.5t34 211.5q0 132 -34 210.5t-106 78.5zM609 -118l22 -56q-49 -32 -138 -32q-101 0 -161 54t-65 143q-103 26 -168 112.5t-65 225.5q0 164 92.5 255.5t224.5 91.5t224.5 -90.5t92.5 -256.5
q0 -140 -68 -227.5t-174 -112.5q1 -56 31 -87.5t80 -31.5q42 0 72 12z" />
    <glyph glyph-name="R" unicode="R" horiz-adv-x="683" 
d="M275 358h38q69 0 99.5 34t30.5 89q0 118 -126 118h-40q-2 -78 -2 -241zM601 62l78 -8v-54q-61 -14 -110 -14q-67 0 -103.5 23t-43.5 79l-19 116q-8 52 -29 75t-64 23h-35q0 -161 2 -240l78 -8v-54h-322v54l75 8q2 81 2 248v37q0 166 -2 248l-75 8v54h325q117 0 181 -43.5
t64 -121.5q0 -58 -41.5 -101.5t-134.5 -58.5q78 -11 110.5 -48t44.5 -111z" />
    <glyph glyph-name="S" unicode="S" horiz-adv-x="541" 
d="M285 418l47 -22q97 -44 138.5 -91.5t41.5 -121.5q0 -91 -68 -146.5t-193 -55.5q-133 0 -217 53l6 148h93l20 -123q45 -18 97 -18t81 26.5t29 69.5q0 37 -19.5 59t-66.5 43l-43 19q-94 43 -139.5 94t-45.5 130q0 90 67 142t181 52q112 0 189 -51l-8 -140h-92l-19 117
q-33 14 -67 14q-44 0 -73.5 -25.5t-29.5 -66.5q0 -38 22 -61.5t69 -44.5z" />
    <glyph glyph-name="T" unicode="T" horiz-adv-x="634" 
d="M513 601h-110q-2 -83 -2 -254v-36q0 -166 2 -248l86 -9v-54h-343v54l85 9q2 81 2 247v37q0 169 -2 254h-109l-19 -130h-83l4 186h587l3 -186h-83z" />
    <glyph glyph-name="U" unicode="U" horiz-adv-x="731" 
d="M705 657v-54l-83 -7v-313q0 -302 -263 -302q-118 0 -187 64t-69 203v109q0 159 -2 239l-72 7v54h326v-54l-83 -8q-1 -79 -1 -238v-77q0 -112 35 -160t108 -48q143 0 143 211v312l-91 8v54h239z" />
    <glyph glyph-name="V" unicode="V" horiz-adv-x="661" 
d="M659 657v-54l-75 -12l-206 -594h-97l-215 600l-58 6v54h322v-51l-85 -11l137 -412l138 410l-78 13v51h217z" />
    <glyph glyph-name="W" unicode="W" horiz-adv-x="981" 
d="M978 657v-54l-78 -13l-176 -593h-98l-141 457l-139 -457h-98l-179 600l-61 6v54h310v-54l-73 -8l102 -406l120 405l-73 9v54h300v-54l-88 -11l116 -407l115 407l-70 11v54h211z" />
    <glyph glyph-name="X" unicode="X" horiz-adv-x="654" 
d="M578 61l64 -7v-54h-329v54l69 7l-109 196l-117 -197l67 -6v-54h-210v54l70 6l160 252l-158 284l-65 7v54h329v-54l-68 -7l98 -177l104 179l-71 5v54h217v-54l-73 -5l-146 -235z" />
    <glyph glyph-name="Y" unicode="Y" horiz-adv-x="624" 
d="M549 591l-151 -307v-44q0 -115 1 -177l87 -9v-54h-343v54l86 9q1 61 1 176v19l-166 339l-56 6v54h322v-54l-75 -9l114 -253l115 251l-69 11v54h207v-54z" />
    <glyph glyph-name="Z" unicode="Z" horiz-adv-x="563" 
d="M463 186h80l-8 -186h-515v46l315 554h-200l-26 -129h-79l8 186h495v-46l-315 -554h219z" />
    <glyph glyph-name="bracketleft" unicode="[" horiz-adv-x="348" 
d="M333 661l-108 -11q-1 -83 -1 -252v-240q0 -168 2 -252l107 -11v-54h-233q3 103 3 317v240q0 212 -3 317h233v-54z" />
    <glyph glyph-name="backslash" unicode="\" horiz-adv-x="387" 
d="M111 710l267 -870h-102l-267 870h102z" />
    <glyph glyph-name="bracketright" unicode="]" horiz-adv-x="348" 
d="M245 398v-240q0 -212 3 -317h-233v54l108 11q1 83 1 252v240q0 168 -2 252l-107 11v54h233q-3 -103 -3 -317z" />
    <glyph glyph-name="asciicircum" unicode="^" horiz-adv-x="544" 
d="M491 232l-72 -50l-147 224l-147 -224l-71 50l177 273h83z" />
    <glyph glyph-name="underscore" unicode="_" horiz-adv-x="539" 
d="M40 -90v90h459v-90h-459z" />
    <glyph glyph-name="grave" unicode="`" horiz-adv-x="400" 
d="M305 584l-38 -31l-78 61q-55 38 -75.5 61t-20.5 46q0 25 16.5 40t38.5 15q25 0 45.5 -20t56.5 -81z" />
    <glyph glyph-name="a" unicode="a" horiz-adv-x="531" 
d="M300 94v163q-31 -10 -47 -17q-74 -31 -74 -100q0 -38 17 -56q15 -18 43 -18q22 0 61 28zM508 80l27 -18q-18 -41 -45.5 -58.5t-73.5 -17.5q-88 0 -110 73q-38 -40 -67 -57t-77 -17q-59 0 -95 34t-36 94q0 57 41.5 96t151.5 71q20 6 76 20v34q0 67 -16.5 91t-64.5 24
q-17 0 -27 -1l-4 -45q-1 -47 -22 -70.5t-52 -23.5q-55 0 -67 51q4 64 64 102.5t166 38.5q96 0 137.5 -44t41.5 -145v-225q0 -29 21 -29q15 0 27 16z" />
    <glyph glyph-name="b" unicode="b" horiz-adv-x="610" 
d="M243 385v-288q32 -27 68 -27q45 0 73 44.5t28 129.5q0 86 -26.5 128t-73.5 42q-33 0 -69 -29zM240 566v-129q63 64 145 64q85 0 140.5 -67t55.5 -188q0 -117 -63 -189t-151 -72q-81 0 -132 60l-17 -62l-189 17v47l53 11q1 49 1 152v411l-62 8v42l207 45l16 -10z" />
    <glyph glyph-name="c" unicode="c" horiz-adv-x="513" 
d="M342 398l-6 50q-6 1 -19 1q-49 0 -84.5 -47.5t-35.5 -141.5q0 -84 36 -132t94 -48q73 0 122 56l34 -31q-56 -120 -205 -120q-107 0 -178 68t-71 189q0 119 77 189t193 70q78 0 130 -42t57 -104q-16 -52 -67 -52q-70 0 -77 95z" />
    <glyph glyph-name="d" unicode="d" horiz-adv-x="594" 
d="M364 95v300q-27 21 -59 21q-48 0 -77.5 -45.5t-29.5 -130.5q0 -80 28.5 -124t75.5 -44q34 0 62 23zM523 58l49 -11v-47l-195 -10l-8 57q-58 -62 -141 -62q-88 0 -143.5 67t-55.5 186q0 118 65.5 190.5t154.5 72.5q73 0 121 -54v172l-70 10v42l211 45l16 -10l-4 -140v-508
z" />
    <glyph glyph-name="e" unicode="e" horiz-adv-x="521" 
d="M198 289h86q35 0 47.5 14t12.5 48q0 47 -19.5 72.5t-48.5 25.5q-32 0 -53.5 -38t-24.5 -122zM454 134l34 -32q-62 -117 -210 -117q-111 0 -180 69.5t-69 188.5t77 188.5t181 69.5q97 0 151.5 -59t54.5 -152q0 -34 -5 -54h-290q5 -76 42 -116t92 -40q68 0 122 54z" />
    <glyph glyph-name="f" unicode="f" horiz-adv-x="362" 
d="M22 474l67 8q16 127 83 188q70 66 167 66q103 0 120 -71q-1 -29 -20 -48t-52 -19q-50 0 -90 71l-8 11q-12 -14 -16 -21q-33 -56 -29 -176h107v-69h-105v-204q0 -98 1 -147l77 -16v-47h-294v47l55 11q2 102 2 152v204h-65v60z" />
    <glyph glyph-name="g" unicode="g" horiz-adv-x="543" 
d="M245 227q70 0 70 114q0 54 -17.5 83.5t-50.5 29.5q-68 0 -68 -114q0 -113 66 -113zM324 -40h-103q-52 0 -94 15q-16 -25 -16 -58q0 -44 33 -64t102 -20q73 0 112 21t39 55q0 51 -73 51zM533 492v-77h-95q18 -33 18 -75q0 -72 -54 -116.5t-156 -44.5q-52 0 -91 12
q-11 -20 -11 -39q0 -47 68 -47h106q211 0 211 -146q0 -79 -79 -132t-220 -53q-215 0 -215 116q0 63 79 102q-53 34 -53 93q0 69 77 121q-81 41 -81 134q0 73 53 117t156 44q104 0 160 -46l111 47z" />
    <glyph glyph-name="h" unicode="h" horiz-adv-x="617" 
d="M546 57l50 -10v-47h-263v47l52 11q1 49 1 152v107q0 49 -11.5 68t-42.5 19q-40 0 -89 -46v-148q0 -104 1 -153l47 -10v-47h-263v47l54 12q1 48 1 151v409l-62 10v42l207 45l16 -10l-4 -140v-149q73 84 159 84q68 0 107 -44t39 -128v-119q0 -104 1 -153z" />
    <glyph glyph-name="i" unicode="i" horiz-adv-x="316" 
d="M163 573q-36 0 -60.5 22.5t-24.5 56.5q0 35 24.5 57.5t60.5 22.5t60.5 -22.5t24.5 -57.5q0 -34 -24.5 -56.5t-60.5 -22.5zM245 57l50 -10v-47h-265v47l54 12q1 48 1 151v50q0 66 -3 126l-61 9v39l209 67l17 -11l-3 -145v-135q0 -104 1 -153z" />
    <glyph glyph-name="j" unicode="j" horiz-adv-x="307" 
d="M160 573q-36 0 -60.5 22.5t-24.5 56.5q0 35 24.5 57.5t60.5 22.5t60.5 -22.5t24.5 -57.5q0 -34 -24.5 -56.5t-60.5 -22.5zM18 434l208 67l18 -11l-3 -145v-294q0 -89 -14.5 -136.5t-51.5 -85.5q-65 -66 -162 -66q-102 0 -131 69q4 35 25.5 56.5t52.5 21.5q60 0 98 -63
l8 -13q3 7 5 15q5 15 7.5 33t3.5 42.5t1 43t-0.5 54t-0.5 54.5v184q0 66 -3 126l-61 9v39z" />
    <glyph glyph-name="k" unicode="k" horiz-adv-x="598" 
d="M532 63l65 -16v-47h-204l-113 239l-37 -35q0 -22 0.5 -72.5t0.5 -73.5l54 -11v-47h-272v47l56 12q1 49 1 151v409l-62 10v42l210 45l16 -10l-4 -140v-297l163 159l-68 10v45h232v-45l-90 -12l-88 -83z" />
    <glyph glyph-name="l" unicode="l" horiz-adv-x="323" 
d="M245 58l55 -11v-47h-274v47l55 12q2 100 2 151v409l-62 10v42l210 45l16 -10l-4 -140v-356q0 -50 2 -152z" />
    <glyph glyph-name="m" unicode="m" horiz-adv-x="907" 
d="M837 58l50 -11v-47h-258v47l49 12q1 48 1 151v99q0 55 -12.5 75t-44.5 20q-42 0 -84 -36q2 -24 2 -39v-119q0 -104 1 -153l47 -10v-47h-258v47l52 12q1 48 1 151v99q0 52 -12.5 73.5t-45.5 21.5q-39 0 -82 -36v-158q0 -104 1 -153l47 -10v-47h-263v47l54 12q1 48 1 151
v60q0 76 -3 116l-61 9v39l197 67l18 -11l6 -73q72 84 156 84q103 0 133 -89q73 89 161 89q75 0 110.5 -43.5t35.5 -133.5v-114q0 -104 1 -152z" />
    <glyph glyph-name="n" unicode="n" horiz-adv-x="616" 
d="M545 57l50 -10v-47h-264v47l52 11q1 49 1 152v107q0 48 -12.5 67.5t-42.5 19.5q-39 0 -86 -36v-158q0 -104 1 -153l47 -10v-47h-263v47l54 12q1 48 1 151v60q0 56 -3 116l-61 9v39l197 67l18 -11l6 -72q72 83 160 83q66 0 105 -44t39 -128v-119q0 -104 1 -153z" />
    <glyph glyph-name="o" unicode="o" horiz-adv-x="565" 
d="M283 449q-85 0 -85 -206t85 -206q84 0 84 206t-84 206zM283 501q109 0 181.5 -70.5t72.5 -185.5q0 -117 -69 -188.5t-185 -71.5t-185 72t-69 188q0 114 72.5 185t181.5 71z" />
    <glyph glyph-name="p" unicode="p" horiz-adv-x="611" 
d="M246 386v-291q30 -25 65 -25q47 0 74.5 44t27.5 130t-26.5 128t-72.5 42q-31 0 -68 -28zM235 492l4 -57q65 66 148 66q85 0 140.5 -67t55.5 -188q0 -117 -63 -189t-151 -72q-76 0 -126 53v-41q0 -40 2 -162l64 -15v-47h-280v47l56 12q2 126 2 165v273q0 56 -3 116l-62 9
v39l196 67z" />
    <glyph glyph-name="q" unicode="q" horiz-adv-x="591" 
d="M365 96v303q-30 17 -59 17q-49 0 -78.5 -45t-29.5 -131q0 -80 28.5 -124t75.5 -44q34 0 63 24zM526 -169l50 -11v-47h-274v47l65 15q1 49 1 148v64q-56 -62 -140 -62q-88 0 -143.5 67t-55.5 186t66 191t160 72q73 0 127 -60l116 60l29 -10l-3 -135v-373q0 -50 2 -152z
" />
    <glyph glyph-name="r" unicode="r" horiz-adv-x="465" 
d="M234 490l9 -120q19 62 56.5 96.5t75.5 34.5q70 0 85 -68q0 -43 -21 -69.5t-61 -26.5q-48 0 -78 45l-4 5q-38 -41 -53 -106v-71q0 -99 1 -146l79 -17v-47h-296v47l55 11q1 49 1 152v61q0 55 -3 115l-61 9v39l197 67z" />
    <glyph glyph-name="s" unicode="s" horiz-adv-x="455" 
d="M249 321l49 -14q132 -39 132 -155q0 -79 -60 -123t-166 -44q-95 0 -174 46l3 123h80l17 -100q37 -14 75 -14q89 0 89 59q0 25 -18 41.5t-66 30.5l-54 16q-58 16 -89.5 54.5t-31.5 94.5q0 72 56 118.5t153 46.5q78 0 158 -40l-7 -110h-80l-21 87q-24 8 -54 8
q-35 0 -55 -15t-20 -43q0 -21 17.5 -36.5t66.5 -30.5z" />
    <glyph glyph-name="t" unicode="t" horiz-adv-x="358" 
d="M340 90l25 -24q-42 -80 -147 -80q-143 0 -143 139q0 17 0.5 49t0.5 52v188h-65v60l73 9l51 141h102l-2 -141h105v-69h-105v-278q0 -68 51 -68q24 0 54 22z" />
    <glyph glyph-name="u" unicode="u" horiz-adv-x="607" 
d="M535 58l52 -11v-47l-205 -10l-6 82q-67 -87 -162 -87q-144 0 -141 180l4 244l-58 13v42l204 29l16 -11l-5 -141v-177q0 -82 54 -82q39 0 86 45l4 282l-55 13v39l199 32l16 -11l-3 -141v-283z" />
    <glyph glyph-name="v" unicode="v" horiz-adv-x="527" 
d="M521 483v-45l-58 -11l-165 -430h-76l-178 429l-51 12v45h284v-45l-62 -15l93 -253l87 257l-63 11v45h189z" />
    <glyph glyph-name="w" unicode="w" horiz-adv-x="789" 
d="M783 483v-45l-57 -11l-152 -430h-75l-119 310l-110 -310h-75l-158 434l-44 7v45h263v-45l-58 -8l78 -257l88 257l-59 8v45h245v-45l-55 -8l82 -251l80 249l-56 10v45h182z" />
    <glyph glyph-name="x" unicode="x" horiz-adv-x="547" 
d="M482 57l55 -10v-47h-284v47l46 7l-74 119l-76 -117l48 -9v-47h-187v47l68 10l118 164l-129 209l-54 8v45h278v-45l-43 -7l72 -115l72 112l-47 10v45h172v-45l-56 -11l-113 -156z" />
    <glyph glyph-name="y" unicode="y" horiz-adv-x="533" 
d="M526 483v-45l-58 -10l-178 -469q-39 -102 -78.5 -145.5t-105.5 -43.5q-40 0 -69 22t-29 56q19 48 69 48q44 0 84 -37l12 -11q45 43 67 107l2 7l-197 464l-52 12v45h284v-45l-61 -16l95 -265l95 269l-64 12v45h184z" />
    <glyph glyph-name="z" unicode="z" horiz-adv-x="464" 
d="M369 167h81l-10 -167h-422v39l250 398h-136l-27 -111l-81 4l8 153h408v-39l-241 -398h140z" />
    <glyph glyph-name="braceleft" unicode="{" horiz-adv-x="337" 
d="M307 662l-27 -3q-67 -9 -67 -77q0 -28 13 -86t13 -84q0 -101 -97 -134q97 -33 97 -134q0 -26 -13 -84t-13 -86q0 -68 67 -77l27 -3v-53h-34q-83 0 -133 32.5t-50 96.5q0 40 27.5 103.5t27.5 95.5q0 31 -22.5 50.5t-82.5 31.5v54q60 12 82.5 31.5t22.5 50.5
q0 32 -27.5 95.5t-27.5 103.5q0 64 50 96.5t133 32.5h34v-53z" />
    <glyph glyph-name="bar" unicode="|" horiz-adv-x="272" 
d="M87 -250v1000h98v-1000h-98z" />
    <glyph glyph-name="braceright" unicode="}" horiz-adv-x="337" 
d="M297 305v-54q-60 -12 -82.5 -31.5t-22.5 -50.5q0 -32 27.5 -95.5t27.5 -103.5q0 -64 -50 -96.5t-133 -32.5h-34v53l27 3q67 9 67 77q0 28 -13 86t-13 84q0 101 97 134q-97 33 -97 134q0 26 13 84t13 86q0 68 -67 77l-27 3v53h34q83 0 133 -32.5t50 -96.5
q0 -40 -27.5 -103.5t-27.5 -95.5q0 -31 22.5 -50.5t82.5 -31.5z" />
    <glyph glyph-name="asciitilde" unicode="~" horiz-adv-x="544" 
d="M296 385q35 -28 50 -37t30 -9q45 0 52 95l77 -8q-1 -93 -38 -135.5t-96 -42.5q-51 0 -123 57q-35 28 -49.5 37t-29.5 9q-45 0 -53 -95l-76 8q3 178 133 178q52 0 123 -57z" />
    <glyph glyph-name="uni00A0" unicode="&#xa0;" horiz-adv-x="214" 
 />
    <glyph glyph-name="exclamdown" unicode="&#xa1;" horiz-adv-x="347" 
d="M174 490q39 0 66 -27t27 -65t-27 -65.5t-66 -27.5q-40 0 -67 27.5t-27 65.5t27 65t67 27zM174 -193q-44 0 -70 24.5t-26 70.5q0 68 44 228l25 96h53l25 -96q44 -157 44 -228q0 -46 -25.5 -70.5t-69.5 -24.5z" />
    <glyph glyph-name="cent" unicode="&#xa2;" horiz-adv-x="542" 
d="M280 140v369q-43 -15 -68 -63.5t-25 -124.5q0 -69 26 -116.5t67 -64.5zM342 514v-381q79 7 134 69l35 -31q-49 -103 -169 -118v-98h-62v97q-111 8 -178.5 76.5t-67.5 179.5q0 109 66.5 177.5t179.5 79.5v88h62v-87q73 -6 120.5 -46t52.5 -99q-12 -49 -56 -49
q-32 0 -50.5 19t-27.5 67l-10 53q-13 3 -29 3z" />
    <glyph glyph-name="sterling" unicode="&#xa3;" horiz-adv-x="542" 
d="M168 123h328v-123h-450v93q46 27 72 68t26 83q0 11 -2 27h-83v57h65l-11 22.5t-12 25.5t-9 25t-7.5 32.5t-2.5 35.5q0 83 63.5 130t156.5 47q84 0 136 -40t57 -109q-13 -49 -61 -49q-30 0 -49.5 18t-27.5 65l-11 61q-5 1 -14 1q-51 0 -80 -30.5t-29 -85.5
q0 -26 3.5 -50.5t10.5 -55t9 -43.5h149v-57h-145q0 -3 -1 -8.5t-1 -8.5q-7 -87 -80 -131z" />
    <glyph glyph-name="currency" unicode="&#xa4;" horiz-adv-x="543" 
d="M272 218q42 0 70.5 29.5t28.5 76.5q0 46 -29 75.5t-70 29.5t-70.5 -30t-29.5 -75q0 -47 29.5 -76.5t70.5 -29.5zM413 214l33 -17q73 -38 73 -75q0 -18 -13.5 -31.5t-31.5 -13.5q-21 0 -38 18.5t-37 54.5l-17 33q-49 -36 -110 -36t-110 36l-17 -33q-20 -36 -37 -54.5
t-39 -18.5q-17 0 -30.5 13.5t-13.5 31.5q0 21 18.5 38t54.5 37l32 17q-36 47 -36 110t36 110l-32 17q-73 38 -73 75q0 18 13 31.5t31 13.5q22 0 39 -18.5t37 -54.5l17 -33q47 36 110 36q62 0 109 -36l18 33q38 73 75 73q18 0 31.5 -13t13.5 -32q0 -21 -18.5 -38t-54.5 -37
l-33 -17q36 -47 36 -110q0 -61 -36 -110z" />
    <glyph glyph-name="yen" unicode="&#xa5;" horiz-adv-x="542" 
d="M548 575l-59 -12l-119 -239h116v-57h-137v-67h137v-57h-137q0 -49 1 -81l90 -9v-53h-338v53l90 9q2 64 2 81h-135v57h135v67h-135v57h114l-126 245l-53 6v52h291v-52l-74 -8l103 -228l104 225l-66 11v52h196v-52z" />
    <glyph glyph-name="brokenbar" unicode="&#xa6;" horiz-adv-x="272" 
d="M87 -250v450h98v-450h-98zM185 320h-98v430h98v-430z" />
    <glyph glyph-name="section" unicode="&#xa7;" horiz-adv-x="532" 
d="M267 233q80 -28 119 -55q11 22 11 43q0 42 -29.5 64.5t-106.5 49.5q-73 26 -114 55q-11 -22 -11 -43q0 -43 29.5 -66.5t101.5 -47.5zM335 575l-17 47q-7 1 -24 1q-48 0 -74.5 -18.5t-26.5 -54.5q0 -33 25 -53t84 -41q104 -35 146 -77.5t42 -111.5t-69 -120q34 -38 34 -96
q0 -67 -55 -113.5t-150 -46.5q-88 0 -140 35t-53 93q9 50 57 50q29 0 49 -17t35 -62l16 -46q8 -1 25 -1q47 0 74 19t27 56q0 32 -26 50.5t-100 46.5q-91 35 -131 74t-40 104q0 73 71 126q-36 40 -36 98q0 66 54 112t151 46q88 0 140 -35.5t52 -93.5q-4 -25 -19.5 -37.5
t-36.5 -12.5q-59 0 -84 79z" />
    <glyph glyph-name="dieresis" unicode="&#xa8;" horiz-adv-x="400" 
d="M314 570q-30 0 -51.5 19t-21.5 51q0 31 21.5 50t51.5 19q31 0 52.5 -19t21.5 -50q0 -32 -21.5 -51t-52.5 -19zM86 570q-31 0 -52.5 19t-21.5 51q0 31 21.5 50t52.5 19q30 0 51.5 -19t21.5 -50q0 -32 -21 -51t-52 -19z" />
    <glyph glyph-name="copyright" unicode="&#xa9;" horiz-adv-x="744" 
d="M455 178l15 71h47l-2 -94q-53 -31 -123 -31q-89 0 -147.5 54t-58.5 151q0 98 61 153t149 55q63 0 115 -29l2 -96h-47l-16 73q-19 8 -36 8q-49 0 -82 -42.5t-33 -120.5q0 -77 32 -119t82 -42q21 0 42 9zM373 34q118 0 199.5 81.5t81.5 213.5t-81.5 213t-199.5 81
t-199.5 -81t-81.5 -213t81.5 -213.5t199.5 -81.5zM373 676q142 0 242 -96t100 -251q0 -154 -100 -251t-242 -97t-242.5 97t-100.5 251q0 155 100 251t243 96z" />
    <glyph glyph-name="ordfeminine" unicode="&#xaa;" horiz-adv-x="355" 
d="M205 476v103q-19 -5 -37 -13q-53 -21 -53 -65q0 -23 13 -36q10 -13 29 -13q14 0 48 24zM339 461l17 -12q-22 -46 -76 -46q-60 0 -72 50q-28 -28 -47.5 -39.5t-49.5 -11.5q-40 0 -64.5 22t-24.5 62q0 35 27.5 59.5t99.5 45.5l56 16v21q0 44 -12 60t-45 16q-13 0 -20 -1
l-4 -33q-2 -28 -15.5 -41.5t-32.5 -13.5q-37 0 -43 32q3 41 43 65t108 24q62 0 89.5 -28t27.5 -93v-145q0 -23 16 -23q9 0 22 14z" />
    <glyph glyph-name="guillemotleft" unicode="&#xab;" horiz-adv-x="552" 
d="M295 439l-154 -186l154 -187l-35 -36l-234 190v65l234 190zM513 439l-154 -186l154 -187l-35 -36l-234 190v65l234 190z" />
    <glyph glyph-name="logicalnot" unicode="&#xac;" horiz-adv-x="544" 
d="M28 407h485v-263h-91v175h-394v88z" />
    <glyph glyph-name="uni00AD" unicode="&#xad;" horiz-adv-x="339" 
d="M40 209v90h259v-90h-259z" />
    <glyph glyph-name="registered" unicode="&#xae;" horiz-adv-x="470" 
d="M220 527h8q37 0 37 34q0 33 -37 33h-8v-67zM316 470l4 -30l24 -2v-20q-23 -4 -36 -4q-43 0 -47 33l-5 33q-3 27 -27 27h-9v-67l23 -2v-20h-102v20l22 2v153l-22 2v21h102q36 0 56 -13.5t20 -36.5q0 -39 -54 -48q45 -6 51 -48zM235 352q67 0 112 44t45 116q0 73 -45 116
t-112 43q-68 0 -113 -43t-45 -116q0 -72 45.5 -116t112.5 -44zM235 714q86 0 145.5 -55.5t59.5 -146.5t-59.5 -147t-145.5 -56t-145.5 56t-59.5 147t59.5 146.5t145.5 55.5z" />
    <glyph glyph-name="macron" unicode="&#xaf;" horiz-adv-x="400" 
d="M41 589v89h318v-89h-318z" />
    <glyph glyph-name="degree" unicode="&#xb0;" horiz-adv-x="328" 
d="M164 455q34 0 56.5 23.5t22.5 62.5t-22.5 63t-56.5 24t-56.5 -24t-22.5 -63t22.5 -62.5t56.5 -23.5zM164 407q-55 0 -94 37t-39 97t39 97.5t94 37.5t94 -37.5t39 -97.5t-39 -97t-94 -37z" />
    <glyph glyph-name="plusminus" unicode="&#xb1;" horiz-adv-x="544" 
d="M30 0v88h485v-88h-485zM318 388h197v-87h-197v-180h-92v180h-196v87h196v175h92v-175z" />
    <glyph glyph-name="two.sups" unicode="&#xb2;" 
d="M131 498h201v-86h-289v57l85 82q48 45 68.5 78.5t20.5 73.5q0 36 -17.5 55t-47.5 19h-14l-8 -43q-7 -55 -48 -55q-28 0 -42 27q1 51 44 78t113 27q63 0 95 -30t32 -77q0 -43 -36 -83.5t-117 -94.5z" />
    <glyph glyph-name="three.sups" unicode="&#xb3;" 
d="M144 776l-6 -41q-7 -43 -48 -43q-24 0 -37 18q0 50 37 75.5t92 25.5q69 0 105 -27.5t36 -71.5q0 -33 -22.5 -58.5t-66.5 -36.5q103 -17 103 -103q0 -53 -43.5 -83.5t-116.5 -30.5q-138 0 -143 105q11 28 41 28q20 0 32 -12t16 -43l5 -43q4 -1 14 -1q85 0 85 85
q0 76 -80 76h-22v37h18q76 0 76 75q0 70 -64 70q-7 0 -11 -1z" />
    <glyph glyph-name="acute" unicode="&#xb4;" horiz-adv-x="400" 
d="M96 584l55 91q36 62 56.5 81.5t45.5 19.5q22 0 38.5 -15t16.5 -40q0 -23 -21 -46t-76 -61l-77 -61z" />
    <glyph glyph-name="uni00B5" unicode="&#xb5;" horiz-adv-x="594" 
d="M568 132l19 -111q-36 -35 -79 -35q-40 0 -67.5 27t-34.5 76q-52 -104 -151 -104q-82 0 -122 83l13 -278q-23 -27 -72 -27q-28 0 -45.5 19.5t-17.5 60.5q0 15 2.5 31.5t10 48t9.5 41.5l34 170v165l-13 169l80 29l18 -11l-7 -118v-103q0 -139 135 -139q59 0 124 48v125
l-13 168l80 30l19 -11l-9 -118v-187q0 -59 41 -59q21 0 46 10z" />
    <glyph glyph-name="paragraph" unicode="&#xb6;" horiz-adv-x="636" 
d="M602 603l-75 -9q-2 -81 -2 -247v-152q0 -208 3 -311h-141q3 101 3 310v408h-66v-486q-131 2 -216.5 72t-85.5 201q0 136 95 202t254 66h231v-54z" />
    <glyph glyph-name="periodcentered" unicode="&#xb7;" horiz-adv-x="300" 
d="M150 246q-38 0 -64 26t-26 63q0 38 26 64.5t64 26.5t64 -26.5t26 -64.5q0 -37 -26 -63t-64 -26z" />
    <glyph glyph-name="cedilla" unicode="&#xb8;" horiz-adv-x="400" 
d="M201 4l-6 -55q100 -19 100 -85q0 -40 -35 -64.5t-100 -24.5q-41 0 -78 13l11 46q30 -8 53 -8q52 0 52 38q0 42 -63 47l14 93h52z" />
    <glyph glyph-name="one.sups" unicode="&#xb9;" 
d="M251 460l73 -17v-31h-259v31l78 17v280l-70 -9v41l169 39l9 -7v-344z" />
    <glyph glyph-name="ordmasculine" unicode="&#xba;" horiz-adv-x="380" 
d="M190 702q-66 0 -66 -133t66 -133q65 0 65 133t-65 133zM190 736q72 0 121 -45.5t49 -120.5q0 -77 -47 -122.5t-123 -45.5t-123 46t-47 122q0 75 49 120.5t121 45.5z" />
    <glyph glyph-name="guillemotright" unicode="&#xbb;" horiz-adv-x="552" 
d="M308 285v-65l-234 -190l-35 36l154 187l-154 186l35 36zM292 475l234 -190v-65l-234 -190l-35 36l154 187l-154 186z" />
    <glyph glyph-name="onequarter" unicode="&#xbc;" horiz-adv-x="874" 
d="M321 246h-259v31l78 17v280l-70 -9v41l169 39l9 -7v-344l73 -17v-31zM662 659l47 -32l-447 -659l-47 32zM530 161h109v146zM791 161v-72h-58v-89h-94v89h-165v59l185 243h74v-230h58z" />
    <glyph glyph-name="onehalf" unicode="&#xbd;" horiz-adv-x="874" 
d="M308 246h-259v31l78 17v280l-70 -9v41l169 39l9 -7v-344l73 -17v-31zM637 659l47 -32l-447 -659l-47 32zM617 86h201v-86h-289v57l85 82q48 45 68.5 78.5t20.5 73.5q0 36 -17.5 55t-47.5 19h-14l-8 -43q-7 -55 -48 -55q-28 0 -42 27q1 51 44 78t113 27q63 0 95 -30
t32 -77q0 -43 -36 -83.5t-117 -94.5z" />
    <glyph glyph-name="threequarters" unicode="&#xbe;" horiz-adv-x="874" 
d="M178 610l-6 -41q-7 -43 -48 -43q-24 0 -37 18q0 50 37 75.5t92 25.5q69 0 105 -27.5t36 -71.5q0 -33 -22.5 -58.5t-66.5 -36.5q103 -17 103 -103q0 -53 -43.5 -83.5t-116.5 -30.5q-138 0 -143 105q11 28 41 28q20 0 32 -12t16 -43l5 -43q4 -1 14 -1q85 0 85 85
q0 76 -80 76h-22v37h18q76 0 76 75q0 70 -64 70q-7 0 -11 -1zM665 652l47 -32l-447 -659l-47 32zM541 161h109v146zM802 161v-72h-58v-89h-94v89h-165v59l185 243h74v-230h58z" />
    <glyph glyph-name="questiondown" unicode="&#xbf;" horiz-adv-x="449" 
d="M277 328q-39 0 -66 27t-27 66t27 65.5t66 26.5t66.5 -27t27.5 -65t-27.5 -65.5t-66.5 -27.5zM138 -1l149 -28q52 -9 71.5 -26.5t19.5 -47.5q0 -55 -81 -75q-34 9 -73 29t-78.5 50.5t-65 75.5t-25.5 94q0 107 113 123l43 6q23 4 31 11t10 27l2 31h57l12 -36q20 -66 20 -91
q0 -24 -17 -36.5t-60 -22.5l-84 -18q-26 -7 -37 -17t-11 -28q0 -12 4 -21z" />
    <glyph glyph-name="Agrave" unicode="&#xc0;" horiz-adv-x="675" 
d="M394 695l-154 67q-59 26 -59 67q0 20 16 35.5t39 15.5q31 0 72 -38l113 -108zM207 249h164l-81 255zM601 59l61 -7v-52h-309v52l77 10l-41 129h-201l-40 -125l76 -12v-54h-215v54l81 12l203 591h103z" />
    <glyph glyph-name="Aacute" unicode="&#xc1;" horiz-adv-x="675" 
d="M432 762l-154 -67l-27 39l113 108q41 38 72 38q23 0 39 -15.5t16 -35.5q0 -41 -59 -67zM207 249h164l-81 255zM601 59l61 -7v-52h-309v52l77 10l-41 129h-201l-40 -125l76 -12v-54h-215v54l81 12l203 591h103z" />
    <glyph glyph-name="Acircumflex" unicode="&#xc2;" horiz-adv-x="675" 
d="M333 772l-151 -84l-30 35l147 152h68l147 -152l-30 -35zM207 249h164l-81 255zM601 59l61 -7v-52h-309v52l77 10l-41 129h-201l-40 -125l76 -12v-54h-215v54l81 12l203 591h103z" />
    <glyph glyph-name="Atilde" unicode="&#xc3;" horiz-adv-x="675" 
d="M213 708h-44q-5 21 -5 47q0 44 26 73.5t73 29.5q51 0 96 -42q34 -34 53 -34q40 0 40 67h44q5 -20 5 -45q0 -45 -26.5 -75t-75.5 -30q-51 0 -93 42l-7.5 7.5t-7.5 7t-6.5 5.5t-6.5 5.5t-6 4t-6.5 3t-6 1.5t-7.5 1q-39 0 -39 -68zM207 249h164l-81 255zM601 59l61 -7v-52
h-309v52l77 10l-41 129h-201l-40 -125l76 -12v-54h-215v54l81 12l203 591h103z" />
    <glyph glyph-name="Adieresis" unicode="&#xc4;" horiz-adv-x="675" 
d="M460 711q-30 0 -51.5 19t-21.5 50t21.5 50t51.5 19q31 0 52.5 -19t21.5 -50t-21.5 -50t-52.5 -19zM211 711q-30 0 -51.5 19t-21.5 50t21.5 50t51.5 19q31 0 52.5 -19t21.5 -50t-21.5 -50t-52.5 -19zM207 249h164l-81 255zM601 59l61 -7v-52h-309v52l77 10l-41 129h-201
l-40 -125l76 -12v-54h-215v54l81 12l203 591h103z" />
    <glyph glyph-name="Aring" unicode="&#xc5;" horiz-adv-x="675" 
d="M336 852q-23 0 -37 -14.5t-14 -37.5t14 -38t37 -15t37 15t14 38t-14 37.5t-37 14.5zM336 701q-44 0 -73.5 27t-29.5 72q0 44 29.5 71.5t73.5 27.5t73.5 -27t29.5 -72t-29.5 -72t-73.5 -27zM207 249h164l-81 255zM601 59l61 -7v-52h-309v52l77 10l-41 129h-201l-40 -125
l76 -12v-54h-215v54l81 12l203 591h103z" />
    <glyph glyph-name="AE" unicode="&#xc6;" horiz-adv-x="892" 
d="M396 588l-137 -286h148v286h-11zM784 172h84l-7 -172h-529v54l73 8q2 120 2 182h-176l-85 -177l78 -13v-54h-215v54l65 9l255 531l-90 9v54h602l7 -172h-84l-20 116h-167q-2 -76 -2 -232h109l12 78h58v-215h-58l-12 78h-109q0 -171 2 -254h187z" />
    <glyph glyph-name="Ccedilla" unicode="&#xc7;" horiz-adv-x="622" 
d="M595 186l-4 -154q-90 -48 -200 -51l-3 -32q100 -19 100 -85q0 -40 -35 -64.5t-100 -24.5q-41 0 -78 13l11 46q30 -8 53 -8q52 0 52 38q0 42 -63 47l11 72q-136 13 -220.5 101.5t-84.5 244.5q0 168 101.5 257.5t252.5 89.5q105 0 196 -50l4 -155h-76l-29 132
q-33 16 -72 16q-86 0 -143 -73t-57 -218t55 -217t141 -72q40 0 84 19l28 128h76z" />
    <glyph glyph-name="Egrave" unicode="&#xc8;" horiz-adv-x="595" 
d="M363 695l-154 67q-59 26 -59 67q0 20 16 35.5t39 15.5q31 0 72 -38l113 -108zM487 172h83l-7 -172h-530v54l75 8q2 81 2 248v37q0 166 -2 248l-75 8v54h510l7 -172h-83l-20 116h-167q-2 -76 -2 -232h108l12 78h58v-215h-58l-12 78h-108q0 -171 2 -254h187z" />
    <glyph glyph-name="Eacute" unicode="&#xc9;" horiz-adv-x="595" 
d="M404 762l-154 -67l-27 39l113 108q41 38 72 38q23 0 39 -15.5t16 -35.5q0 -41 -59 -67zM487 172h83l-7 -172h-530v54l75 8q2 81 2 248v37q0 166 -2 248l-75 8v54h510l7 -172h-83l-20 116h-167q-2 -76 -2 -232h108l12 78h58v-215h-58l-12 78h-108q0 -171 2 -254h187z" />
    <glyph glyph-name="Ecircumflex" unicode="&#xca;" horiz-adv-x="595" 
d="M323 778l-151 -84l-30 35l147 152h68l147 -152l-30 -35zM487 172h83l-7 -172h-530v54l75 8q2 81 2 248v37q0 166 -2 248l-75 8v54h510l7 -172h-83l-20 116h-167q-2 -76 -2 -232h108l12 78h58v-215h-58l-12 78h-108q0 -171 2 -254h187z" />
    <glyph glyph-name="Edieresis" unicode="&#xcb;" horiz-adv-x="595" 
d="M435 711q-30 0 -51.5 19t-21.5 50t21.5 50t51.5 19q31 0 52.5 -19t21.5 -50t-21.5 -50t-52.5 -19zM186 711q-30 0 -51.5 19t-21.5 50t21.5 50t51.5 19q31 0 52.5 -19t21.5 -50t-21.5 -50t-52.5 -19zM487 172h83l-7 -172h-530v54l75 8q2 81 2 248v37q0 166 -2 248l-75 8
v54h510l7 -172h-83l-20 116h-167q-2 -76 -2 -232h108l12 78h58v-215h-58l-12 78h-108q0 -171 2 -254h187z" />
    <glyph glyph-name="Igrave" unicode="&#xcc;" horiz-adv-x="388" 
d="M259 695l-154 67q-59 26 -59 67q0 20 16 35.5t39 15.5q31 0 72 -38l113 -108zM355 603l-75 -8q-2 -81 -2 -248v-36q0 -167 2 -249l75 -8v-54h-322v54l75 8q2 81 2 248v37q0 166 -2 248l-75 8v54h322v-54z" />
    <glyph glyph-name="Iacute" unicode="&#xcd;" horiz-adv-x="388" 
d="M288 762l-154 -67l-27 39l113 108q41 38 72 38q23 0 39 -15.5t16 -35.5q0 -41 -59 -67zM355 603l-75 -8q-2 -81 -2 -248v-36q0 -167 2 -249l75 -8v-54h-322v54l75 8q2 81 2 248v37q0 166 -2 248l-75 8v54h322v-54z" />
    <glyph glyph-name="Icircumflex" unicode="&#xce;" horiz-adv-x="388" 
d="M194 778l-151 -84l-30 35l147 152h68l147 -152l-30 -35zM355 657v-54l-75 -8q-2 -81 -2 -248v-36q0 -167 2 -249l75 -8v-54h-322v54l75 8q2 81 2 248v37q0 166 -2 248l-75 8v54h322z" />
    <glyph glyph-name="Idieresis" unicode="&#xcf;" horiz-adv-x="388" 
d="M143 780q0 -31 -21.5 -50t-52.5 -19q-30 0 -51.5 19t-21.5 50t21.5 50t51.5 19q31 0 52.5 -19t21.5 -50zM355 657v-54l-75 -8q-2 -81 -2 -248v-36q0 -167 2 -249l75 -8v-54h-322v54l75 8q2 81 2 248v37q0 166 -2 248l-75 8v54h322zM318 849q31 0 52.5 -19t21.5 -50
t-21.5 -50t-52.5 -19q-30 0 -51.5 19t-21.5 50t21.5 50t51.5 19z" />
    <glyph glyph-name="Eth" unicode="&#xd0;" horiz-adv-x="705" 
d="M280 58h36q83 0 132.5 71t49.5 200q0 130 -49.5 200t-133.5 70h-35q-2 -76 -2 -233h116v-58h-116q0 -168 2 -250zM33 657h297q158 0 249.5 -87.5t91.5 -238.5q0 -155 -97 -243t-262 -88h-279v54l75 8q2 80 2 246h-77v58h77q0 153 -2 229l-75 8v54z" />
    <glyph glyph-name="Ntilde" unicode="&#xd1;" horiz-adv-x="728" 
d="M246 705h-44q-5 21 -5 47q0 44 26 73.5t73 29.5q51 0 96 -42q34 -34 53 -34q40 0 40 67h44q5 -20 5 -45q0 -45 -26.5 -75t-75.5 -30q-51 0 -93 42l-7.5 7.5t-7.5 7t-6.5 5.5t-6.5 5.5t-6 4t-6.5 3t-6 1.5t-7.5 1q-39 0 -39 -68zM699 657v-54l-85 -13v-600h-84l-352 495
v-418l114 -13v-54h-264v54l85 12v511l-14 20l-69 6v54h226l294 -404v337l-114 13v54h263z" />
    <glyph glyph-name="Ograve" unicode="&#xd2;" horiz-adv-x="702" 
d="M211 329q0 -132 34 -211t106 -79t106 78.5t34 211.5q0 132 -34 210.5t-106 78.5q-71 0 -105.5 -78.5t-34.5 -210.5zM351 676q132 0 224.5 -90.5t92.5 -256.5q0 -165 -92.5 -256.5t-224.5 -91.5q-85 0 -155.5 37t-116 118t-45.5 193q0 164 92.5 255.5t224.5 91.5zM443 734
l-27 -39l-154 67q-59 26 -59 67q0 20 16 35.5t39 15.5q31 0 72 -38z" />
    <glyph glyph-name="Oacute" unicode="&#xd3;" horiz-adv-x="702" 
d="M211 329q0 -132 34 -211t106 -79t106 78.5t34 211.5q0 132 -34 210.5t-106 78.5q-71 0 -105.5 -78.5t-34.5 -210.5zM351 676q132 0 224.5 -90.5t92.5 -256.5q0 -165 -92.5 -256.5t-224.5 -91.5q-85 0 -155.5 37t-116 118t-45.5 193q0 164 92.5 255.5t224.5 91.5zM264 734
l113 108q41 38 72 38q23 0 39 -15.5t16 -35.5q0 -41 -59 -67l-154 -67z" />
    <glyph glyph-name="Ocircumflex" unicode="&#xd4;" horiz-adv-x="702" 
d="M351 778l-151 -84l-30 35l147 152h68l147 -152l-30 -35zM351 39q72 0 106 78.5t34 211.5q0 132 -34 210.5t-106 78.5q-71 0 -105.5 -78.5t-34.5 -210.5t34 -211t106 -79zM351 676q132 0 224.5 -90.5t92.5 -256.5q0 -165 -92.5 -256.5t-224.5 -91.5q-85 0 -155.5 37
t-116 118t-45.5 193q0 164 92.5 255.5t224.5 91.5z" />
    <glyph glyph-name="Otilde" unicode="&#xd5;" horiz-adv-x="702" 
d="M211 329q0 -132 34 -211t106 -79t106 78.5t34 211.5q0 132 -34 210.5t-106 78.5q-71 0 -105.5 -78.5t-34.5 -210.5zM351 676q132 0 224.5 -90.5t92.5 -256.5q0 -165 -92.5 -256.5t-224.5 -91.5q-85 0 -155.5 37t-116 118t-45.5 193q0 164 92.5 255.5t224.5 91.5zM417 706
q-51 0 -93 42l-7.5 7.5t-7.5 7t-6.5 5.5t-6.5 5.5t-6 4t-6.5 3t-6 1.5t-7.5 1q-39 0 -39 -68h-44q-5 21 -5 47q0 44 26 73.5t73 29.5q51 0 96 -42q34 -34 53 -34q40 0 40 67h44q5 -20 5 -45q0 -45 -26.5 -75t-75.5 -30z" />
    <glyph glyph-name="Odieresis" unicode="&#xd6;" horiz-adv-x="702" 
d="M211 329q0 -132 34 -211t106 -79t106 78.5t34 211.5q0 132 -34 210.5t-106 78.5q-71 0 -105.5 -78.5t-34.5 -210.5zM351 676q132 0 224.5 -90.5t92.5 -256.5q0 -165 -92.5 -256.5t-224.5 -91.5q-85 0 -155.5 37t-116 118t-45.5 193q0 164 92.5 255.5t224.5 91.5zM226 711
q-30 0 -51.5 19t-21.5 50t21.5 50t51.5 19q31 0 52.5 -19t21.5 -50t-21.5 -50t-52.5 -19zM475 711q-30 0 -51.5 19t-21.5 50t21.5 50t51.5 19q31 0 52.5 -19t21.5 -50t-21.5 -50t-52.5 -19z" />
    <glyph glyph-name="multiply" unicode="&#xd7;" horiz-adv-x="544" 
d="M506 493l-170 -170l170 -170l-64 -64l-170 170l-170 -170l-63 64l170 170l-170 170l63 63l170 -170l170 170z" />
    <glyph glyph-name="Oslash" unicode="&#xd8;" horiz-adv-x="702" 
d="M484 438l-245 -304q35 -95 112 -95q72 0 106 78.5t34 211.5q0 61 -7 109zM218 222l245 304q-36 92 -112 92q-71 0 -105.5 -78.5t-34.5 -210.5q0 -61 7 -107zM652 645l-62 -76q78 -93 78 -240q0 -165 -92.5 -256.5t-224.5 -91.5q-106 0 -188 59l-60 -74l-55 46l62 77
q-76 92 -76 240q0 164 92.5 255.5t224.5 91.5q107 0 186 -58l59 73z" />
    <glyph glyph-name="Ugrave" unicode="&#xd9;" horiz-adv-x="731" 
d="M460 692l-154 67q-59 26 -59 67q0 20 16 35.5t39 15.5q31 0 72 -38l113 -108zM705 657v-54l-83 -7v-313q0 -302 -263 -302q-118 0 -187 64t-69 203v109q0 159 -2 239l-72 7v54h326v-54l-83 -8q-1 -79 -1 -238v-77q0 -112 35 -160t108 -48q143 0 143 211v312l-91 8v54h239
z" />
    <glyph glyph-name="Uacute" unicode="&#xda;" horiz-adv-x="731" 
d="M484 759l-154 -67l-27 39l113 108q41 38 72 38q23 0 39 -15.5t16 -35.5q0 -41 -59 -67zM705 657v-54l-83 -7v-313q0 -302 -263 -302q-118 0 -187 64t-69 203v109q0 159 -2 239l-72 7v54h326v-54l-83 -8q-1 -79 -1 -238v-77q0 -112 35 -160t108 -48q143 0 143 211v312
l-91 8v54h239z" />
    <glyph glyph-name="Ucircumflex" unicode="&#xdb;" horiz-adv-x="731" 
d="M405 775l-151 -84l-30 35l147 152h68l147 -152l-30 -35zM705 657v-54l-83 -7v-313q0 -302 -263 -302q-118 0 -187 64t-69 203v109q0 159 -2 239l-72 7v54h326v-54l-83 -8q-1 -79 -1 -238v-77q0 -112 35 -160t108 -48q143 0 143 211v312l-91 8v54h239z" />
    <glyph glyph-name="Udieresis" unicode="&#xdc;" horiz-adv-x="731" 
d="M531 711q-30 0 -51.5 19t-21.5 50t21.5 50t51.5 19q31 0 52.5 -19t21.5 -50t-21.5 -50t-52.5 -19zM282 711q-30 0 -51.5 19t-21.5 50t21.5 50t51.5 19q31 0 52.5 -19t21.5 -50t-21.5 -50t-52.5 -19zM705 657v-54l-83 -7v-313q0 -302 -263 -302q-118 0 -187 64t-69 203
v109q0 159 -2 239l-72 7v54h326v-54l-83 -8q-1 -79 -1 -238v-77q0 -112 35 -160t108 -48q143 0 143 211v312l-91 8v54h239z" />
    <glyph glyph-name="Yacute" unicode="&#xdd;" horiz-adv-x="624" 
d="M457 759l-154 -67l-27 39l113 108q41 38 72 38q23 0 39 -15.5t16 -35.5q0 -41 -59 -67zM549 591l-151 -307v-44q0 -115 1 -177l87 -9v-54h-343v54l86 9q1 61 1 176v19l-166 339l-56 6v54h322v-54l-75 -9l114 -253l115 251l-69 11v54h207v-54z" />
    <glyph glyph-name="Thorn" unicode="&#xde;" horiz-adv-x="622" 
d="M306 477h-32v-129v-37v-113h31q65 0 103.5 38.5t38.5 102.5q0 138 -141 138zM300 140h-26q0 -13 1 -38.5t1 -38.5l84 -9v-54h-327v54l75 8q2 81 2 248v37q0 165 -2 248l-75 8v54h327v-54l-84 -9l-1 -59h37q292 0 292 -192q0 -95 -69 -149t-235 -54z" />
    <glyph glyph-name="germandbls" unicode="&#xdf;" horiz-adv-x="659" 
d="M83 210v237q0 134 75 205q81 84 217 84q101 0 158.5 -41.5t57.5 -106.5q0 -40 -20 -67.5t-68 -54.5q-43 -25 -57.5 -40t-14.5 -30q0 -18 17 -33t78 -45q65 -33 92.5 -71t27.5 -97q0 -73 -56.5 -119t-153.5 -46q-84 0 -141 31l3 125h78l18 -99q11 -2 35 -2q83 0 83 64
q0 30 -17.5 48.5t-66.5 41.5q-61 27 -90 57.5t-29 83.5q0 38 19.5 64t68.5 66q33 27 45.5 52.5t12.5 58.5q0 48 -25.5 78t-68.5 30q-68 0 -93 -55q-15 -29 -20 -77t-5 -140v-202q0 -105 3 -210h-219v47l54 11q2 102 2 152z" />
    <glyph glyph-name="agrave" unicode="&#xe0;" horiz-adv-x="531" 
d="M310 553l-78 61q-55 38 -75.5 61t-20.5 46q0 25 16.5 40t38.5 15q25 0 45.5 -20t56.5 -81l55 -91zM300 94v163q-31 -10 -47 -17q-74 -31 -74 -100q0 -38 17 -56q15 -18 43 -18q22 0 61 28zM508 80l27 -18q-18 -41 -45.5 -58.5t-73.5 -17.5q-88 0 -110 73q-38 -40 -67 -57
t-77 -17q-59 0 -95 34t-36 94q0 57 41.5 96t151.5 71q20 6 76 20v34q0 67 -16.5 91t-64.5 24q-17 0 -27 -1l-4 -45q-1 -47 -22 -70.5t-52 -23.5q-55 0 -67 51q4 64 64 102.5t166 38.5q96 0 137.5 -44t41.5 -145v-225q0 -29 21 -29q15 0 27 16z" />
    <glyph glyph-name="aacute" unicode="&#xe1;" horiz-adv-x="531" 
d="M304 614l-77 -61l-38 31l55 91q36 62 56.5 81.5t45.5 19.5q22 0 38.5 -15t16.5 -40q0 -23 -21 -46t-76 -61zM300 94v163q-31 -10 -47 -17q-74 -31 -74 -100q0 -38 17 -56q15 -18 43 -18q22 0 61 28zM508 80l27 -18q-18 -41 -45.5 -58.5t-73.5 -17.5q-88 0 -110 73
q-38 -40 -67 -57t-77 -17q-59 0 -95 34t-36 94q0 57 41.5 96t151.5 71q20 6 76 20v34q0 67 -16.5 91t-64.5 24q-17 0 -27 -1l-4 -45q-1 -47 -22 -70.5t-52 -23.5q-55 0 -67 51q4 64 64 102.5t166 38.5q96 0 137.5 -44t41.5 -145v-225q0 -29 21 -29q15 0 27 16z" />
    <glyph glyph-name="acircumflex" unicode="&#xe2;" horiz-adv-x="531" 
d="M273 656l-134 -101l-36 33l138 175h64l138 -175l-36 -33zM300 94v163q-31 -10 -47 -17q-74 -31 -74 -100q0 -38 17 -56q15 -18 43 -18q22 0 61 28zM508 80l27 -18q-18 -41 -45.5 -58.5t-73.5 -17.5q-88 0 -110 73q-38 -40 -67 -57t-77 -17q-59 0 -95 34t-36 94
q0 57 41.5 96t151.5 71q20 6 76 20v34q0 67 -16.5 91t-64.5 24q-17 0 -27 -1l-4 -45q-1 -47 -22 -70.5t-52 -23.5q-55 0 -67 51q4 64 64 102.5t166 38.5q96 0 137.5 -44t41.5 -145v-225q0 -29 21 -29q15 0 27 16z" />
    <glyph glyph-name="atilde" unicode="&#xe3;" horiz-adv-x="531" 
d="M143 579h-42q-5 20 -5 46q0 45 28 76t77 31q30 0 49.5 -11.5t41.5 -39.5q1 -1 5 -5.5t5 -5.5t4.5 -5t5 -5t5 -4t6 -4t5.5 -2.5t6.5 -2t6.5 -0.5q39 0 39 69h42q5 -21 5 -46q0 -46 -28 -77t-77 -31q-29 0 -49 11.5t-42 39.5l-16 18.5t-14.5 11t-18.5 5.5q-39 0 -39 -69z
M300 94v163q-31 -10 -47 -17q-74 -31 -74 -100q0 -38 17 -56q15 -18 43 -18q22 0 61 28zM508 80l27 -18q-18 -41 -45.5 -58.5t-73.5 -17.5q-88 0 -110 73q-38 -40 -67 -57t-77 -17q-59 0 -95 34t-36 94q0 57 41.5 96t151.5 71q20 6 76 20v34q0 67 -16.5 91t-64.5 24
q-17 0 -27 -1l-4 -45q-1 -47 -22 -70.5t-52 -23.5q-55 0 -67 51q4 64 64 102.5t166 38.5q96 0 137.5 -44t41.5 -145v-225q0 -29 21 -29q15 0 27 16z" />
    <glyph glyph-name="adieresis" unicode="&#xe4;" horiz-adv-x="531" 
d="M378 570q-30 0 -51.5 19t-21.5 51q0 31 21.5 50t51.5 19q31 0 52.5 -19t21.5 -50q0 -32 -21.5 -51t-52.5 -19zM150 570q-31 0 -52.5 19t-21.5 51q0 31 21.5 50t52.5 19q30 0 51.5 -19t21.5 -50q0 -32 -21 -51t-52 -19zM300 94v163q-31 -10 -47 -17q-74 -31 -74 -100
q0 -38 17 -56q15 -18 43 -18q22 0 61 28zM508 80l27 -18q-18 -41 -45.5 -58.5t-73.5 -17.5q-88 0 -110 73q-38 -40 -67 -57t-77 -17q-59 0 -95 34t-36 94q0 57 41.5 96t151.5 71q20 6 76 20v34q0 67 -16.5 91t-64.5 24q-17 0 -27 -1l-4 -45q-1 -47 -22 -70.5t-52 -23.5
q-55 0 -67 51q4 64 64 102.5t166 38.5q96 0 137.5 -44t41.5 -145v-225q0 -29 21 -29q15 0 27 16z" />
    <glyph glyph-name="aring" unicode="&#xe5;" horiz-adv-x="531" 
d="M266 728q-27 0 -43 -18.5t-16 -44.5q0 -25 16 -44.5t43 -19.5t43 19.5t16 44.5q0 26 -16 44.5t-43 18.5zM266 550q-52 0 -86.5 31.5t-34.5 83.5q0 51 35 82.5t86 31.5q52 0 86.5 -31t34.5 -83q0 -53 -34.5 -84t-86.5 -31zM300 94v163q-31 -10 -47 -17q-74 -31 -74 -100
q0 -38 17 -56q15 -18 43 -18q22 0 61 28zM508 80l27 -18q-18 -41 -45.5 -58.5t-73.5 -17.5q-88 0 -110 73q-38 -40 -67 -57t-77 -17q-59 0 -95 34t-36 94q0 57 41.5 96t151.5 71q20 6 76 20v34q0 67 -16.5 91t-64.5 24q-17 0 -27 -1l-4 -45q-1 -47 -22 -70.5t-52 -23.5
q-55 0 -67 51q4 64 64 102.5t166 38.5q96 0 137.5 -44t41.5 -145v-225q0 -29 21 -29q15 0 27 16z" />
    <glyph glyph-name="ae" unicode="&#xe6;" horiz-adv-x="789" 
d="M466 289h86q35 0 47.5 13.5t12.5 48.5q0 47 -19.5 72.5t-48.5 25.5q-71 0 -78 -160zM297 244v12q-19 -6 -44 -16q-74 -31 -74 -100q0 -38 16 -55q16 -19 47 -19q22 0 38.5 8.5t46.5 35.5q-30 60 -30 134zM192 448l-4 -45q-1 -47 -22 -70.5t-52 -23.5q-55 0 -67 51
q4 64 64 102.5t166 38.5q93 0 135 -52q59 52 142 52q97 0 152 -59t55 -153q0 -33 -5 -53h-290q5 -76 42.5 -116t91.5 -40q68 0 122 54l34 -32q-62 -117 -210 -117q-128 0 -197 91q-42 -51 -83.5 -71t-95.5 -20q-64 0 -101.5 33.5t-37.5 94.5q0 57 41.5 96t151.5 71l76 21v33
q0 67 -16.5 91t-63.5 24q-18 0 -28 -1z" />
    <glyph glyph-name="ccedilla" unicode="&#xe7;" horiz-adv-x="513" 
d="M342 398l-6 50q-6 1 -19 1q-49 0 -84.5 -47.5t-35.5 -141.5q0 -84 36 -132t94 -48q73 0 122 56l34 -31q-53 -112 -187 -120l-4 -36q100 -19 100 -85q0 -40 -35 -64.5t-100 -24.5q-41 0 -78 13l11 46q30 -8 53 -8q52 0 52 38q0 42 -63 47l11 76q-94 11 -154 77.5
t-60 177.5q0 119 77 189t193 70q78 0 130 -42t57 -104q-16 -52 -67 -52q-70 0 -77 95z" />
    <glyph glyph-name="egrave" unicode="&#xe8;" horiz-adv-x="521" 
d="M319 553l-78 61q-55 38 -75.5 61t-20.5 46q0 25 16.5 40t38.5 15q25 0 45.5 -20t56.5 -81l55 -91zM198 289h86q35 0 47.5 14t12.5 48q0 47 -19.5 72.5t-48.5 25.5q-32 0 -53.5 -38t-24.5 -122zM454 134l34 -32q-62 -117 -210 -117q-111 0 -180 69.5t-69 188.5t77 188.5
t181 69.5q97 0 151.5 -59t54.5 -152q0 -34 -5 -54h-290q5 -76 42 -116t92 -40q68 0 122 54z" />
    <glyph glyph-name="eacute" unicode="&#xe9;" horiz-adv-x="521" 
d="M315 614l-77 -61l-38 31l55 91q36 62 56.5 81.5t45.5 19.5q22 0 38.5 -15t16.5 -40q0 -23 -21 -46t-76 -61zM198 289h86q35 0 47.5 14t12.5 48q0 47 -19.5 72.5t-48.5 25.5q-32 0 -53.5 -38t-24.5 -122zM454 134l34 -32q-62 -117 -210 -117q-111 0 -180 69.5t-69 188.5
t77 188.5t181 69.5q97 0 151.5 -59t54.5 -152q0 -34 -5 -54h-290q5 -76 42 -116t92 -40q68 0 122 54z" />
    <glyph glyph-name="ecircumflex" unicode="&#xea;" horiz-adv-x="521" 
d="M278 656l-134 -101l-36 33l138 175h64l138 -175l-36 -33zM198 289h86q35 0 47.5 14t12.5 48q0 47 -19.5 72.5t-48.5 25.5q-32 0 -53.5 -38t-24.5 -122zM454 134l34 -32q-62 -117 -210 -117q-111 0 -180 69.5t-69 188.5t77 188.5t181 69.5q97 0 151.5 -59t54.5 -152
q0 -34 -5 -54h-290q5 -76 42 -116t92 -40q68 0 122 54z" />
    <glyph glyph-name="edieresis" unicode="&#xeb;" horiz-adv-x="521" 
d="M396 570q-30 0 -51.5 19t-21.5 51q0 31 21.5 50t51.5 19q31 0 52.5 -19t21.5 -50q0 -32 -21.5 -51t-52.5 -19zM168 570q-31 0 -52.5 19t-21.5 51q0 31 21.5 50t52.5 19q30 0 51.5 -19t21.5 -50q0 -32 -21 -51t-52 -19zM198 289h86q35 0 47.5 14t12.5 48q0 47 -19.5 72.5
t-48.5 25.5q-32 0 -53.5 -38t-24.5 -122zM454 134l34 -32q-62 -117 -210 -117q-111 0 -180 69.5t-69 188.5t77 188.5t181 69.5q97 0 151.5 -59t54.5 -152q0 -34 -5 -54h-290q5 -76 42 -116t92 -40q68 0 122 54z" />
    <glyph glyph-name="igrave" unicode="&#xec;" horiz-adv-x="316" 
d="M208 553l-78 61q-55 38 -75.5 61t-20.5 46q0 25 16.5 40t38.5 15q25 0 45.5 -20t56.5 -81l55 -91zM245 57l50 -10v-47h-265v47l54 12q1 48 1 151v50q0 66 -3 126l-61 9v39l209 67l17 -11l-3 -145v-135q0 -104 1 -153z" />
    <glyph glyph-name="iacute" unicode="&#xed;" horiz-adv-x="316" 
d="M209 614l-77 -61l-38 31l55 91q36 62 56.5 81.5t45.5 19.5q22 0 38.5 -15t16.5 -40q0 -23 -21 -46t-76 -61zM244 345v-135q0 -104 1 -153l50 -10v-47h-265v47l54 12q1 48 1 151v50q0 66 -3 126l-61 9v39l209 67l17 -11z" />
    <glyph glyph-name="icircumflex" unicode="&#xee;" horiz-adv-x="316" 
d="M244 345v-135q0 -104 1 -153l50 -10v-47h-265v47l54 12q1 48 1 151v50q0 66 -3 126l-61 9v39l209 67l17 -11zM205 763l138 -175l-36 -33l-134 101l-134 -101l-36 33l138 175h64z" />
    <glyph glyph-name="idieresis" unicode="&#xef;" horiz-adv-x="316" 
d="M122 640q0 -32 -21 -51t-52 -19t-52.5 19t-21.5 51q0 31 21.5 50t52.5 19q30 0 51.5 -19t21.5 -50zM244 345v-135q0 -104 1 -153l50 -10v-47h-265v47l54 12q1 48 1 151v50q0 66 -3 126l-61 9v39l209 67l17 -11zM277 709q31 0 52.5 -19t21.5 -50q0 -32 -21.5 -51
t-52.5 -19q-30 0 -51.5 19t-21.5 51q0 31 21.5 50t51.5 19z" />
    <glyph glyph-name="eth" unicode="&#xf0;" horiz-adv-x="554" 
d="M279 37q37 0 59 51t22 149q0 194 -81 194q-38 0 -59.5 -50.5t-21.5 -147.5q0 -196 81 -196zM494 677l-129 -61q159 -137 159 -338q0 -144 -73 -218.5t-183 -74.5q-96 0 -167.5 67t-71.5 186q0 112 71.5 178.5t170.5 66.5q33 0 59 -13q-23 60 -58 102l-140 -66l-27 55
l121 57q-40 33 -109 66l26 52q94 -29 168 -78l157 74z" />
    <glyph glyph-name="ntilde" unicode="&#xf1;" horiz-adv-x="616" 
d="M189 579h-42q-5 20 -5 46q0 45 28 76t77 31q30 0 49.5 -11.5t41.5 -39.5q1 -1 5 -5.5t5 -5.5t4.5 -5t5 -5t5 -4t6 -4t5.5 -2.5t6.5 -2t6.5 -0.5q39 0 39 69h42q5 -21 5 -46q0 -46 -28 -77t-77 -31q-29 0 -49 11.5t-42 39.5l-16 18.5t-14.5 11t-18.5 5.5q-39 0 -39 -69z
M545 57l50 -10v-47h-264v47l52 11q1 49 1 152v107q0 48 -12.5 67.5t-42.5 19.5q-39 0 -86 -36v-158q0 -104 1 -153l47 -10v-47h-263v47l54 12q1 48 1 151v60q0 56 -3 116l-61 9v39l197 67l18 -11l6 -72q72 83 160 83q66 0 105 -44t39 -128v-119q0 -104 1 -153z" />
    <glyph glyph-name="ograve" unicode="&#xf2;" horiz-adv-x="565" 
d="M283 449q-85 0 -85 -206t85 -206q84 0 84 206t-84 206zM283 501q109 0 181.5 -70.5t72.5 -185.5q0 -117 -69 -188.5t-185 -71.5t-185 72t-69 188q0 114 72.5 185t181.5 71zM355 584l-38 -31l-78 61q-55 38 -75.5 61t-20.5 46q0 25 16.5 40t38.5 15q25 0 45.5 -20
t56.5 -81z" />
    <glyph glyph-name="oacute" unicode="&#xf3;" horiz-adv-x="565" 
d="M283 449q-85 0 -85 -206t85 -206q84 0 84 206t-84 206zM283 501q109 0 181.5 -70.5t72.5 -185.5q0 -117 -69 -188.5t-185 -71.5t-185 72t-69 188q0 114 72.5 185t181.5 71zM219 584l55 91q36 62 56.5 81.5t45.5 19.5q22 0 38.5 -15t16.5 -40q0 -23 -21 -46t-76 -61
l-77 -61z" />
    <glyph glyph-name="ocircumflex" unicode="&#xf4;" horiz-adv-x="565" 
d="M283 656l-134 -101l-36 33l138 175h64l138 -175l-36 -33zM283 37q84 0 84 206t-84 206q-85 0 -85 -206t85 -206zM283 501q109 0 181.5 -70.5t72.5 -185.5q0 -117 -69 -188.5t-185 -71.5t-185 72t-69 188q0 114 72.5 185t181.5 71z" />
    <glyph glyph-name="otilde" unicode="&#xf5;" horiz-adv-x="565" 
d="M283 449q-85 0 -85 -206t85 -206q84 0 84 206t-84 206zM283 501q109 0 181.5 -70.5t72.5 -185.5q0 -117 -69 -188.5t-185 -71.5t-185 72t-69 188q0 114 72.5 185t181.5 71zM343 562q-29 0 -49 11.5t-42 39.5l-16 18.5t-14.5 11t-18.5 5.5q-39 0 -39 -69h-42q-5 20 -5 46
q0 45 28 76t77 31q30 0 49.5 -11.5t41.5 -39.5q1 -1 5 -5.5t5 -5.5t4.5 -5t5 -5t5 -4t6 -4t5.5 -2.5t6.5 -2t6.5 -0.5q39 0 39 69h42q5 -21 5 -46q0 -46 -28 -77t-77 -31z" />
    <glyph glyph-name="odieresis" unicode="&#xf6;" horiz-adv-x="565" 
d="M283 449q-85 0 -85 -206t85 -206q84 0 84 206t-84 206zM283 501q109 0 181.5 -70.5t72.5 -185.5q0 -117 -69 -188.5t-185 -71.5t-185 72t-69 188q0 114 72.5 185t181.5 71zM397 570q-30 0 -51.5 19t-21.5 51q0 31 21.5 50t51.5 19q31 0 52.5 -19t21.5 -50
q0 -32 -21.5 -51t-52.5 -19zM169 570q-31 0 -52.5 19t-21.5 51q0 31 21.5 50t52.5 19q30 0 51.5 -19t21.5 -50q0 -32 -21 -51t-52 -19z" />
    <glyph glyph-name="divide" unicode="&#xf7;" horiz-adv-x="544" 
d="M272 66q-31 0 -52.5 20t-21.5 50t21.5 50.5t52.5 20.5t52.5 -20.5t21.5 -50.5t-21 -50t-53 -20zM272 438q-31 0 -52.5 20.5t-21.5 50.5t21.5 50.5t52.5 20.5t52.5 -20.5t21.5 -50.5t-21.5 -50.5t-52.5 -20.5zM515 279h-485v88h485v-88z" />
    <glyph glyph-name="oslash" unicode="&#xf8;" horiz-adv-x="565" 
d="M365 298l-153 -191q20 -70 71 -70q84 0 84 206q0 23 -2 55zM200 187l153 192q-19 70 -70 70q-85 0 -85 -206q0 -22 2 -56zM511 481l-43 -54q69 -71 69 -182q0 -117 -69 -188.5t-185 -71.5q-80 0 -139 36l-44 -55l-47 37l44 55q-68 71 -68 187q0 114 72.5 185t181.5 71
q78 0 138 -37l44 55z" />
    <glyph glyph-name="ugrave" unicode="&#xf9;" horiz-adv-x="607" 
d="M348 553l-78 61q-55 38 -75.5 61t-20.5 46q0 25 16.5 40t38.5 15q25 0 45.5 -20t56.5 -81l55 -91zM535 58l52 -11v-47l-205 -10l-6 82q-67 -87 -162 -87q-144 0 -141 180l4 244l-58 13v42l204 29l16 -11l-5 -141v-177q0 -82 54 -82q39 0 86 45l4 282l-55 13v39l199 32
l16 -11l-3 -141v-283z" />
    <glyph glyph-name="uacute" unicode="&#xfa;" horiz-adv-x="607" 
d="M336 614l-77 -61l-38 31l55 91q36 62 56.5 81.5t45.5 19.5q22 0 38.5 -15t16.5 -40q0 -23 -21 -46t-76 -61zM535 58l52 -11v-47l-205 -10l-6 82q-67 -87 -162 -87q-144 0 -141 180l4 244l-58 13v42l204 29l16 -11l-5 -141v-177q0 -82 54 -82q39 0 86 45l4 282l-55 13v39
l199 32l16 -11l-3 -141v-283z" />
    <glyph glyph-name="ucircumflex" unicode="&#xfb;" horiz-adv-x="607" 
d="M308 656l-134 -101l-36 33l138 175h64l138 -175l-36 -33zM535 58l52 -11v-47l-205 -10l-6 82q-67 -87 -162 -87q-144 0 -141 180l4 244l-58 13v42l204 29l16 -11l-5 -141v-177q0 -82 54 -82q39 0 86 45l4 282l-55 13v39l199 32l16 -11l-3 -141v-283z" />
    <glyph glyph-name="udieresis" unicode="&#xfc;" horiz-adv-x="607" 
d="M424 570q-30 0 -51.5 19t-21.5 51q0 31 21.5 50t51.5 19q31 0 52.5 -19t21.5 -50q0 -32 -21.5 -51t-52.5 -19zM196 570q-31 0 -52.5 19t-21.5 51q0 31 21.5 50t52.5 19q30 0 51.5 -19t21.5 -50q0 -32 -21 -51t-52 -19zM535 58l52 -11v-47l-205 -10l-6 82
q-67 -87 -162 -87q-144 0 -141 180l4 244l-58 13v42l204 29l16 -11l-5 -141v-177q0 -82 54 -82q39 0 86 45l4 282l-55 13v39l199 32l16 -11l-3 -141v-283z" />
    <glyph glyph-name="yacute" unicode="&#xfd;" horiz-adv-x="533" 
d="M354 614l-77 -61l-38 31l55 91q36 62 56.5 81.5t45.5 19.5q22 0 38.5 -15t16.5 -40q0 -23 -21 -46t-76 -61zM526 483v-45l-58 -10l-178 -469q-39 -102 -78.5 -145.5t-105.5 -43.5q-40 0 -69 22t-29 56q19 48 69 48q44 0 84 -37l12 -11q45 43 67 107l2 7l-197 464l-52 12
v45h284v-45l-61 -16l95 -265l95 269l-64 12v45h184z" />
    <glyph glyph-name="thorn" unicode="&#xfe;" horiz-adv-x="603" 
d="M238 386v-291q31 -25 66 -25q45 0 73 44.5t28 129.5q0 86 -26.5 128t-73.5 42q-32 0 -67 -28zM235 566v-127q62 62 144 62q85 0 140 -67t55 -188q0 -117 -62.5 -189t-150.5 -72q-76 0 -126 53v-41q0 -40 2 -162l64 -15v-47h-280v47l55 12q2 124 2 165v624l-62 8v42
l206 45l17 -10z" />
    <glyph glyph-name="ydieresis" unicode="&#xff;" horiz-adv-x="533" 
d="M414 570q-30 0 -51.5 19t-21.5 51q0 31 21.5 50t51.5 19q31 0 52.5 -19t21.5 -50q0 -32 -21.5 -51t-52.5 -19zM186 570q-31 0 -52.5 19t-21.5 51q0 31 21.5 50t52.5 19q30 0 51.5 -19t21.5 -50q0 -32 -21 -51t-52 -19zM526 483v-45l-58 -10l-178 -469
q-39 -102 -78.5 -145.5t-105.5 -43.5q-40 0 -69 22t-29 56q19 48 69 48q44 0 84 -37l12 -11q45 43 67 107l2 7l-197 464l-52 12v45h284v-45l-61 -16l95 -265l95 269l-64 12v45h184z" />
    <glyph glyph-name="Amacron" unicode="&#x100;" horiz-adv-x="675" 
d="M497 815v-89h-322v89h322zM207 249h164l-81 255zM601 59l61 -7v-52h-309v52l77 10l-41 129h-201l-40 -125l76 -12v-54h-215v54l81 12l203 591h103z" />
    <glyph glyph-name="amacron" unicode="&#x101;" horiz-adv-x="531" 
d="M425 678v-89h-318v89h318zM300 94v163q-31 -10 -47 -17q-74 -31 -74 -100q0 -38 17 -56q15 -18 43 -18q22 0 61 28zM508 80l27 -18q-18 -41 -45.5 -58.5t-73.5 -17.5q-88 0 -110 73q-38 -40 -67 -57t-77 -17q-59 0 -95 34t-36 94q0 57 41.5 96t151.5 71q20 6 76 20v34
q0 67 -16.5 91t-64.5 24q-17 0 -27 -1l-4 -45q-1 -47 -22 -70.5t-52 -23.5q-55 0 -67 51q4 64 64 102.5t166 38.5q96 0 137.5 -44t41.5 -145v-225q0 -29 21 -29q15 0 27 16z" />
    <glyph glyph-name="Abreve" unicode="&#x102;" horiz-adv-x="675" 
d="M456 864l46 -18q-12 -59 -52.5 -96.5t-112.5 -37.5t-112.5 37.5t-52.5 96.5l46 18q37 -72 119 -72q84 0 119 72zM207 249h164l-81 255zM601 59l61 -7v-52h-309v52l77 10l-41 129h-201l-40 -125l76 -12v-54h-215v54l81 12l203 591h103z" />
    <glyph glyph-name="abreve" unicode="&#x103;" horiz-adv-x="531" 
d="M379 737l49 -15q-5 -62 -44.5 -109t-117.5 -47t-117.5 47t-44.5 109l49 15q36 -87 113 -87q40 0 69 24.5t44 62.5zM300 94v163q-31 -10 -47 -17q-74 -31 -74 -100q0 -38 17 -56q15 -18 43 -18q22 0 61 28zM508 80l27 -18q-18 -41 -45.5 -58.5t-73.5 -17.5q-88 0 -110 73
q-38 -40 -67 -57t-77 -17q-59 0 -95 34t-36 94q0 57 41.5 96t151.5 71q20 6 76 20v34q0 67 -16.5 91t-64.5 24q-17 0 -27 -1l-4 -45q-1 -47 -22 -70.5t-52 -23.5q-55 0 -67 51q4 64 64 102.5t166 38.5q96 0 137.5 -44t41.5 -145v-225q0 -29 21 -29q15 0 27 16z" />
    <glyph glyph-name="Aogonek" unicode="&#x104;" horiz-adv-x="675" 
d="M207 249h164l-81 255zM653 -133l15 -43q-47 -49 -132 -49q-52 0 -81.5 27t-29.5 70q0 81 98 128h-170v52l77 10l-41 129h-201l-40 -125l76 -12v-54h-215v54l81 12l203 591h103l205 -598l61 -7v-52h-92q-42 -29 -42 -77q0 -31 19.5 -48.5t51.5 -17.5q27 0 54 10z" />
    <glyph glyph-name="aogonek" unicode="&#x105;" horiz-adv-x="531" 
d="M300 94v163q-31 -10 -47 -17q-74 -31 -74 -100q0 -38 17 -56q15 -18 43 -18q22 0 61 28zM550 -133l14 -43q-53 -50 -133 -50q-50 0 -80 28t-30 70q0 72 88 114q-80 4 -104 73q-37 -40 -66 -57t-77 -17q-59 0 -95 34t-36 94q0 57 41.5 96t151.5 71q20 6 76 20v34
q0 67 -16.5 91t-64.5 24q-17 0 -27 -1l-4 -45q-1 -47 -22 -70.5t-52 -23.5q-55 0 -67 51q4 64 64 102.5t166 38.5q96 0 137.5 -44t41.5 -145v-225q0 -29 21 -29q15 0 27 16l4 6l27 -19q-17 -36 -54 -62q-56 -40 -56 -79q0 -29 19.5 -46t51.5 -17q31 0 54 10z" />
    <glyph glyph-name="Cacute" unicode="&#x106;" horiz-adv-x="622" 
d="M477 769l-154 -67l-27 39l113 108q41 38 72 38q23 0 39 -15.5t16 -35.5q0 -41 -59 -67zM519 186h76l-4 -154q-95 -51 -210 -51q-152 0 -249.5 90t-97.5 258t101.5 257.5t252.5 89.5q105 0 196 -50l4 -155h-76l-29 132q-33 16 -72 16q-86 0 -143 -73t-57 -218t55 -217
t141 -72q40 0 84 19z" />
    <glyph glyph-name="cacute" unicode="&#x107;" horiz-adv-x="513" 
d="M316 614l-77 -61l-38 31l55 91q36 62 56.5 81.5t45.5 19.5q22 0 38.5 -15t16.5 -40q0 -23 -21 -46t-76 -61zM342 398l-6 50q-6 1 -19 1q-49 0 -84.5 -47.5t-35.5 -141.5q0 -84 36 -132t94 -48q73 0 122 56l34 -31q-56 -120 -205 -120q-107 0 -178 68t-71 189
q0 119 77 189t193 70q78 0 130 -42t57 -104q-16 -52 -67 -52q-70 0 -77 95z" />
    <glyph glyph-name="Ccaron" unicode="&#x10c;" horiz-adv-x="622" 
d="M421 712h-86l-128 148l33 32l138 -90l138 90l34 -32zM519 186h76l-4 -154q-95 -51 -210 -51q-152 0 -249.5 90t-97.5 258t101.5 257.5t252.5 89.5q105 0 196 -50l4 -155h-76l-29 132q-33 16 -72 16q-86 0 -143 -73t-57 -218t55 -217t141 -72q40 0 84 19z" />
    <glyph glyph-name="ccaron" unicode="&#x10d;" horiz-adv-x="513" 
d="M332 565h-86l-119 170l39 32l123 -104l123 104l39 -32zM342 398l-6 50q-6 1 -19 1q-49 0 -84.5 -47.5t-35.5 -141.5q0 -84 36 -132t94 -48q73 0 122 56l34 -31q-56 -120 -205 -120q-107 0 -178 68t-71 189q0 119 77 189t193 70q78 0 130 -42t57 -104q-16 -52 -67 -52
q-70 0 -77 95z" />
    <glyph glyph-name="Dcaron" unicode="&#x10e;" horiz-adv-x="705" 
d="M381 705h-86l-128 148l33 32l138 -90l138 90l34 -32zM280 58h36q83 0 132.5 71t49.5 200q0 130 -49.5 200t-133.5 70h-35q-2 -83 -2 -252v-33q0 -172 2 -256zM33 657h297q158 0 249.5 -87.5t91.5 -238.5q0 -155 -97 -243t-262 -88h-279v54l75 8q2 81 2 251v34
q0 166 -2 248l-75 8v54z" />
    <glyph glyph-name="dcaron" unicode="&#x10f;" horiz-adv-x="608" 
d="M364 95v300q-27 21 -59 21q-48 0 -77.5 -45.5t-29.5 -130.5q0 -80 28.5 -124t75.5 -44q34 0 62 23zM523 566v-508l49 -11v-47l-195 -10l-8 57q-58 -62 -141 -62q-88 0 -143.5 67t-55.5 186q0 118 65.5 190.5t154.5 72.5q73 0 121 -54v172l-70 10v42l211 45l16 -10z
M582 515l5 202q28 17 56 17q48 0 48 -48q0 -38 -31 -109l-30 -62h-48z" />
    <glyph glyph-name="Dcroat" unicode="&#x110;" horiz-adv-x="705" 
d="M280 58h36q83 0 132.5 71t49.5 200q0 130 -49.5 200t-133.5 70h-35q-2 -76 -2 -233h116v-58h-116q0 -168 2 -250zM33 657h297q158 0 249.5 -87.5t91.5 -238.5q0 -155 -97 -243t-262 -88h-279v54l75 8q2 80 2 246h-77v58h77q0 153 -2 229l-75 8v54z" />
    <glyph glyph-name="dcroat" unicode="&#x111;" horiz-adv-x="594" 
d="M364 95v283q-27 21 -59 21q-48 0 -77.5 -42.5t-29.5 -122.5q0 -77 28.5 -119.5t75.5 -42.5q32 0 62 23zM572 524h-49v-466l49 -11v-47l-195 -10l-8 57q-56 -62 -141 -62q-88 0 -143.5 65.5t-55.5 181.5q0 112 65.5 182t153.5 70q74 0 122 -54v94h-165v58h165v37l-77 10
v42l218 45l16 -10l-4 -124h49v-58z" />
    <glyph glyph-name="Emacron" unicode="&#x112;" horiz-adv-x="595" 
d="M484 815v-89h-322v89h322zM487 172h83l-7 -172h-530v54l75 8q2 81 2 248v37q0 166 -2 248l-75 8v54h510l7 -172h-83l-20 116h-167q-2 -76 -2 -232h108l12 78h58v-215h-58l-12 78h-108q0 -171 2 -254h187z" />
    <glyph glyph-name="emacron" unicode="&#x113;" horiz-adv-x="521" 
d="M437 678v-89h-318v89h318zM198 289h86q35 0 47.5 14t12.5 48q0 47 -19.5 72.5t-48.5 25.5q-32 0 -53.5 -38t-24.5 -122zM454 134l34 -32q-62 -117 -210 -117q-111 0 -180 69.5t-69 188.5t77 188.5t181 69.5q97 0 151.5 -59t54.5 -152q0 -34 -5 -54h-290q5 -76 42 -116
t92 -40q68 0 122 54z" />
    <glyph glyph-name="Edotaccent" unicode="&#x116;" horiz-adv-x="595" 
d="M311 711q-33 0 -56.5 22.5t-23.5 55.5q0 34 23.5 56.5t56.5 22.5t56.5 -22.5t23.5 -56.5q0 -33 -23.5 -55.5t-56.5 -22.5zM487 172h83l-7 -172h-530v54l75 8q2 81 2 248v37q0 166 -2 248l-75 8v54h510l7 -172h-83l-20 116h-167q-2 -76 -2 -232h108l12 78h58v-215h-58
l-12 78h-108q0 -171 2 -254h187z" />
    <glyph glyph-name="edotaccent" unicode="&#x117;" horiz-adv-x="521" 
d="M286 573q-36 0 -60.5 22.5t-24.5 56.5q0 35 24.5 57.5t60.5 22.5t60.5 -22.5t24.5 -57.5q0 -34 -24.5 -56.5t-60.5 -22.5zM198 289h86q35 0 47.5 14t12.5 48q0 47 -19.5 72.5t-48.5 25.5q-32 0 -53.5 -38t-24.5 -122zM454 134l34 -32q-62 -117 -210 -117
q-111 0 -180 69.5t-69 188.5t77 188.5t181 69.5q97 0 151.5 -59t54.5 -152q0 -34 -5 -54h-290q5 -76 42 -116t92 -40q68 0 122 54z" />
    <glyph glyph-name="Eogonek" unicode="&#x118;" horiz-adv-x="595" 
d="M577 -133l15 -43q-47 -49 -132 -49q-52 0 -81.5 27t-29.5 70q0 81 98 128h-414v54l75 8q2 81 2 248v37q0 166 -2 248l-75 8v54h510l7 -172h-83l-20 116h-167q-2 -76 -2 -232h108l12 78h58v-215h-58l-12 78h-108q0 -171 2 -254h187l20 116h83l-7 -172h-69q-42 -29 -42 -77
q0 -31 19.5 -48.5t51.5 -17.5q27 0 54 10z" />
    <glyph glyph-name="eogonek" unicode="&#x119;" horiz-adv-x="521" 
d="M198 289h86q35 0 47.5 13.5t12.5 48.5q0 47 -19.5 72.5t-48.5 25.5q-71 0 -78 -160zM466 -133l14 -43q-47 -49 -133 -49q-51 0 -80.5 27.5t-29.5 69.5q0 71 71 115q-20 -2 -30 -2q-110 0 -179.5 70.5t-69.5 188.5t77 187.5t181 69.5q97 0 151.5 -59t54.5 -153
q0 -33 -5 -53h-290q5 -76 42.5 -116t92.5 -40q67 0 121 54l34 -32q-30 -58 -90 -92q-57 -33 -57 -87q0 -31 19.5 -48.5t51.5 -17.5q27 0 54 10z" />
    <glyph glyph-name="Ecaron" unicode="&#x11a;" horiz-adv-x="595" 
d="M358 705h-86l-128 148l33 32l138 -90l138 90l34 -32zM487 172h83l-7 -172h-530v54l75 8q2 81 2 248v37q0 166 -2 248l-75 8v54h510l7 -172h-83l-20 116h-167q-2 -76 -2 -232h108l12 78h58v-215h-58l-12 78h-108q0 -171 2 -254h187z" />
    <glyph glyph-name="ecaron" unicode="&#x11b;" horiz-adv-x="521" 
d="M319 565h-86l-119 170l39 32l123 -104l123 104l39 -32zM198 289h86q35 0 47.5 14t12.5 48q0 47 -19.5 72.5t-48.5 25.5q-32 0 -53.5 -38t-24.5 -122zM454 134l34 -32q-62 -117 -210 -117q-111 0 -180 69.5t-69 188.5t77 188.5t181 69.5q97 0 151.5 -59t54.5 -152
q0 -34 -5 -54h-290q5 -76 42 -116t92 -40q68 0 122 54z" />
    <glyph glyph-name="Gbreve" unicode="&#x11e;" horiz-adv-x="675" 
d="M499 867l46 -18q-12 -59 -52.5 -96.5t-112.5 -37.5t-112.5 37.5t-52.5 96.5l46 18q37 -72 119 -72q84 0 119 72zM660 337v-53l-52 -7q-2 -128 -2 -195v-42q-103 -59 -226 -59q-156 0 -251 93.5t-95 255.5q0 159 94.5 252.5t263.5 93.5q107 0 193 -46l4 -156h-77l-29 131
q-34 14 -72 14q-87 0 -143.5 -73.5t-56.5 -215.5q0 -143 55.5 -217.5t142.5 -74.5q22 0 38 4v43q0 63 -2 187l-90 12v53h305z" />
    <glyph glyph-name="gbreve" unicode="&#x11f;" horiz-adv-x="543" 
d="M369 737l49 -15q-5 -62 -44.5 -109t-117.5 -47t-117.5 47t-44.5 109l49 15q36 -87 113 -87q40 0 69 24.5t44 62.5zM245 227q70 0 70 114q0 54 -17.5 83.5t-50.5 29.5q-68 0 -68 -114q0 -113 66 -113zM324 -40h-103q-52 0 -94 15q-16 -25 -16 -58q0 -44 33 -64t102 -20
q73 0 112 21t39 55q0 51 -73 51zM533 492v-77h-95q18 -33 18 -75q0 -72 -54 -116.5t-156 -44.5q-52 0 -91 12q-11 -20 -11 -39q0 -47 68 -47h106q211 0 211 -146q0 -79 -79 -132t-220 -53q-215 0 -215 116q0 63 79 102q-53 34 -53 93q0 69 77 121q-81 41 -81 134
q0 73 53 117t156 44q104 0 160 -46l111 47z" />
    <glyph glyph-name="Gdotaccent" unicode="&#x120;" horiz-adv-x="675" 
d="M381 711q-33 0 -56.5 22.5t-23.5 55.5q0 34 23.5 56.5t56.5 22.5t56.5 -22.5t23.5 -56.5q0 -33 -23.5 -55.5t-56.5 -22.5zM660 337v-53l-52 -7q-2 -128 -2 -195v-42q-103 -59 -226 -59q-156 0 -251 93.5t-95 255.5q0 159 94.5 252.5t263.5 93.5q107 0 193 -46l4 -156h-77
l-29 131q-34 14 -72 14q-87 0 -143.5 -73.5t-56.5 -215.5q0 -143 55.5 -217.5t142.5 -74.5q22 0 38 4v43q0 63 -2 187l-90 12v53h305z" />
    <glyph glyph-name="gdotaccent" unicode="&#x121;" horiz-adv-x="543" 
d="M253 573q-36 0 -60.5 22.5t-24.5 56.5q0 35 24.5 57.5t60.5 22.5t60.5 -22.5t24.5 -57.5q0 -34 -24.5 -56.5t-60.5 -22.5zM245 227q70 0 70 114q0 54 -17.5 83.5t-50.5 29.5q-68 0 -68 -114q0 -113 66 -113zM324 -40h-103q-52 0 -94 15q-16 -25 -16 -58q0 -44 33 -64
t102 -20q73 0 112 21t39 55q0 51 -73 51zM533 492v-77h-95q18 -33 18 -75q0 -72 -54 -116.5t-156 -44.5q-52 0 -91 12q-11 -20 -11 -39q0 -47 68 -47h106q211 0 211 -146q0 -79 -79 -132t-220 -53q-215 0 -215 116q0 63 79 102q-53 34 -53 93q0 69 77 121q-81 41 -81 134
q0 73 53 117t156 44q104 0 160 -46l111 47z" />
    <glyph glyph-name="uni0122" unicode="&#x122;" horiz-adv-x="675" 
d="M328 -263l-15 40q58 24 79 46q-55 27 -55 72q0 25 20 42t49 17t62 -21q10 -29 10 -53q0 -48 -41.5 -84.5t-108.5 -58.5zM660 337v-53l-52 -7q-2 -128 -2 -195v-42q-103 -59 -226 -59q-156 0 -251 93.5t-95 255.5q0 159 94.5 252.5t263.5 93.5q107 0 193 -46l4 -156h-77
l-29 131q-34 14 -72 14q-87 0 -143.5 -73.5t-56.5 -215.5q0 -143 55.5 -217.5t142.5 -74.5q22 0 38 4v43q0 63 -2 187l-90 12v53h305z" />
    <glyph glyph-name="uni0123" unicode="&#x123;" horiz-adv-x="543" 
d="M332 777l15 -40q-58 -24 -79 -46q55 -27 55 -72q0 -25 -20 -42t-49 -17t-62 21q-10 29 -10 53q0 48 41.5 84.5t108.5 58.5zM245 227q70 0 70 114q0 54 -17.5 83.5t-50.5 29.5q-68 0 -68 -114q0 -113 66 -113zM324 -40h-103q-52 0 -94 15q-16 -25 -16 -58q0 -44 33 -64
t102 -20q73 0 112 21t39 55q0 51 -73 51zM533 492v-77h-95q18 -33 18 -75q0 -72 -54 -116.5t-156 -44.5q-52 0 -91 12q-11 -20 -11 -39q0 -47 68 -47h106q211 0 211 -146q0 -79 -79 -132t-220 -53q-215 0 -215 116q0 63 79 102q-53 34 -53 93q0 69 77 121q-81 41 -81 134
q0 73 53 117t156 44q104 0 160 -46l111 47z" />
    <glyph glyph-name="Imacron" unicode="&#x12a;" horiz-adv-x="388" 
d="M355 657v-54l-75 -8q-2 -81 -2 -248v-36q0 -167 2 -249l75 -8v-54h-322v54l75 8q2 81 2 248v37q0 166 -2 248l-75 8v54h322zM33 815h322v-89h-322v89z" />
    <glyph glyph-name="imacron" unicode="&#x12b;" horiz-adv-x="316" 
d="M244 345v-135q0 -104 1 -153l50 -10v-47h-265v47l54 12q1 48 1 151v50q0 66 -3 126l-61 9v39l209 67l17 -11zM4 678h318v-89h-318v89z" />
    <glyph glyph-name="Iogonek" unicode="&#x12e;" horiz-adv-x="388" 
d="M357 -133l15 -43q-47 -49 -132 -49q-52 0 -81.5 27t-29.5 70q0 81 98 128h-194v54l75 8q2 81 2 248v37q0 166 -2 248l-75 8v54h322v-54l-75 -8q-2 -81 -2 -248v-36q0 -167 2 -249l75 -8v-54h-81q-42 -29 -42 -77q0 -31 19.5 -48.5t51.5 -17.5q27 0 54 10z" />
    <glyph glyph-name="iogonek" unicode="&#x12f;" horiz-adv-x="316" 
d="M163 573q-36 0 -60.5 22.5t-24.5 56.5q0 35 24.5 57.5t60.5 22.5t60.5 -22.5t24.5 -57.5q0 -34 -24.5 -56.5t-60.5 -22.5zM302 -133l15 -43q-47 -49 -132 -49q-52 0 -81.5 27t-29.5 70q0 81 98 128h-142v47l54 12q1 48 1 151v50q0 66 -3 126l-61 9v39l209 67l17 -11
l-3 -145v-135q0 -104 1 -153l50 -10v-47h-76q-42 -29 -42 -77q0 -31 19.5 -48.5t51.5 -17.5q27 0 54 10z" />
    <glyph glyph-name="Idotaccent" unicode="&#x130;" horiz-adv-x="388" 
d="M194 711q-33 0 -56.5 22.5t-23.5 55.5q0 34 23.5 56.5t56.5 22.5t56.5 -22.5t23.5 -56.5q0 -33 -23.5 -55.5t-56.5 -22.5zM355 603l-75 -8q-2 -81 -2 -248v-36q0 -167 2 -249l75 -8v-54h-322v54l75 8q2 81 2 248v37q0 166 -2 248l-75 8v54h322v-54z" />
    <glyph glyph-name="dotlessi" unicode="&#x131;" horiz-adv-x="316" 
d="M245 57l50 -10v-47h-265v47l54 12q1 48 1 151v50q0 66 -3 126l-61 9v39l209 67l17 -11l-3 -145v-135q0 -104 1 -153z" />
    <glyph glyph-name="uni0136" unicode="&#x136;" horiz-adv-x="696" 
d="M288 -263l-15 40q58 24 79 46q-55 27 -55 72q0 25 20 42t49 17t62 -21q10 -29 10 -53q0 -48 -41.5 -84.5t-108.5 -58.5zM629 61l62 -7v-54h-289v54l47 5l-124 247l-55 -66q0 -118 2 -178l65 -8v-54h-304v54l75 8q2 81 2 248v37q0 166 -2 248l-75 8v54h315v-54l-76 -8
q-2 -81 -2 -248v-33l224 278l-66 11v54h232v-54l-95 -12l-134 -159z" />
    <glyph glyph-name="uni0137" unicode="&#x137;" horiz-adv-x="598" 
d="M239 -263l-15 40q58 24 79 46q-55 27 -55 72q0 25 20 42t49 17t62 -21q10 -29 10 -53q0 -48 -41.5 -84.5t-108.5 -58.5zM532 63l65 -16v-47h-204l-113 239l-37 -35q0 -22 0.5 -72.5t0.5 -73.5l54 -11v-47h-272v47l56 12q1 49 1 151v409l-62 10v42l210 45l16 -10l-4 -140
v-297l163 159l-68 10v45h232v-45l-90 -12l-88 -83z" />
    <glyph glyph-name="Lacute" unicode="&#x139;" horiz-adv-x="580" 
d="M353 762l-154 -67l-27 39l113 108q41 38 72 38q23 0 39 -15.5t16 -35.5q0 -41 -59 -67zM480 196h81l-10 -196h-518v54l75 8q2 82 2 248v37q0 166 -2 248l-75 8v54h330v-54l-83 -8q-2 -82 -2 -248v-42q0 -165 2 -248h172z" />
    <glyph glyph-name="lacute" unicode="&#x13a;" horiz-adv-x="323" 
d="M243 566v-356q0 -50 2 -152l55 -11v-47h-274v47l55 12q2 100 2 151v409l-62 10v42l210 45l16 -10zM84 767l113 108q41 38 72 38q23 0 39 -15.5t16 -35.5q0 -41 -59 -67l-154 -67z" />
    <glyph glyph-name="uni013B" unicode="&#x13b;" horiz-adv-x="580" 
d="M224 -263l-15 40q58 24 79 46q-55 27 -55 72q0 25 20 42t49 17t62 -21q10 -29 10 -53q0 -48 -41.5 -84.5t-108.5 -58.5zM480 196h81l-10 -196h-518v54l75 8q2 82 2 248v37q0 166 -2 248l-75 8v54h330v-54l-83 -8q-2 -82 -2 -248v-42q0 -165 2 -248h172z" />
    <glyph glyph-name="uni013C" unicode="&#x13c;" horiz-adv-x="323" 
d="M80 -263l-15 40q58 24 79 46q-55 27 -55 72q0 25 20 42t49 17t62 -21q10 -29 10 -53q0 -48 -41.5 -84.5t-108.5 -58.5zM245 58l55 -11v-47h-274v47l55 12q2 100 2 151v409l-62 10v42l210 45l16 -10l-4 -140v-356q0 -50 2 -152z" />
    <glyph glyph-name="Lcaron" unicode="&#x13d;" horiz-adv-x="580" 
d="M521 577l-30 -62h-48l5 202q28 17 56 17q48 0 48 -48q0 -38 -31 -109zM480 196h81l-10 -196h-518v54l75 8q2 82 2 248v37q0 166 -2 248l-75 8v54h330v-54l-83 -8q-2 -82 -2 -248v-42q0 -165 2 -248h172z" />
    <glyph glyph-name="lcaron" unicode="&#x13e;" horiz-adv-x="330" 
d="M243 566v-356q0 -50 2 -152l55 -11v-47h-274v47l55 12q2 100 2 151v409l-62 10v42l210 45l16 -10zM305 515l5 202q28 17 56 17q48 0 48 -48q0 -38 -31 -109l-30 -62h-48z" />
    <glyph glyph-name="Ldot" unicode="&#x13f;" horiz-adv-x="580" 
d="M478 306q-38 0 -64 26t-26 63q0 38 26 64.5t64 26.5t64 -26.5t26 -64.5q0 -37 -26 -63t-64 -26zM452 57l28 139h81l-10 -196h-518v54l75 8q2 82 2 248v37q0 166 -2 248l-75 8v54h330v-54l-83 -8q-2 -82 -2 -248v-42q0 -165 2 -248h172z" />
    <glyph glyph-name="ldot" unicode="&#x140;" horiz-adv-x="408" 
d="M243 566v-356q0 -50 2 -152l55 -11v-47h-274v47l55 12q2 100 2 151v409l-62 10v42l210 45l16 -10zM366 409q36 0 60.5 -22.5t24.5 -57.5q0 -34 -24.5 -56.5t-60.5 -22.5t-60.5 22.5t-24.5 56.5q0 35 24.5 57.5t60.5 22.5z" />
    <glyph glyph-name="Lslash" unicode="&#x141;" horiz-adv-x="580" 
d="M480 196h81l-10 -196h-518v54l75 8q2 57 2 173l-79 -42v83l79 42v29q0 166 -2 248l-75 8v54h330v-54l-83 -8q-2 -65 -2 -194l124 65v-83l-124 -66v-12q0 -165 2 -248h172z" />
    <glyph glyph-name="lslash" unicode="&#x142;" horiz-adv-x="323" 
d="M243 363v-153q0 -50 2 -152l55 -11v-47h-274v47l55 12q2 100 2 151v72l-64 -36v83l64 36v254l-62 10v42l210 45l16 -10l-4 -140v-120l66 37v-83z" />
    <glyph glyph-name="Nacute" unicode="&#x143;" horiz-adv-x="728" 
d="M457 758l-154 -67l-27 39l113 108q41 38 72 38q23 0 39 -15.5t16 -35.5q0 -41 -59 -67zM699 657v-54l-85 -13v-600h-84l-352 495v-418l114 -13v-54h-264v54l85 12v511l-14 20l-69 6v54h226l294 -404v337l-114 13v54h263z" />
    <glyph glyph-name="nacute" unicode="&#x144;" horiz-adv-x="616" 
d="M372 614l-77 -61l-38 31l55 91q36 62 56.5 81.5t45.5 19.5q22 0 38.5 -15t16.5 -40q0 -23 -21 -46t-76 -61zM545 57l50 -10v-47h-264v47l52 11q1 49 1 152v107q0 48 -12.5 67.5t-42.5 19.5q-39 0 -86 -36v-158q0 -104 1 -153l47 -10v-47h-263v47l54 12q1 48 1 151v60
q0 56 -3 116l-61 9v39l197 67l18 -11l6 -72q72 83 160 83q66 0 105 -44t39 -128v-119q0 -104 1 -153z" />
    <glyph glyph-name="uni0145" unicode="&#x145;" horiz-adv-x="728" 
d="M298 -260l-15 40q58 24 79 46q-55 28 -55 72q0 25 20 42t49 17t62 -21q10 -29 10 -53q0 -48 -41.5 -84.5t-108.5 -58.5zM699 657v-54l-85 -13v-600h-84l-352 495v-418l114 -13v-54h-264v54l85 12v511l-14 20l-69 6v54h226l294 -404v337l-114 13v54h263z" />
    <glyph glyph-name="uni0146" unicode="&#x146;" horiz-adv-x="616" 
d="M241 -263l-15 40q58 24 79 46q-55 27 -55 72q0 25 20 42t49 17t62 -21q10 -29 10 -53q0 -48 -41.5 -84.5t-108.5 -58.5zM545 57l50 -10v-47h-264v47l52 11q1 49 1 152v107q0 48 -12.5 67.5t-42.5 19.5q-39 0 -86 -36v-158q0 -104 1 -153l47 -10v-47h-263v47l54 12
q1 48 1 151v60q0 56 -3 116l-61 9v39l197 67l18 -11l6 -72q72 83 160 83q66 0 105 -44t39 -128v-119q0 -104 1 -153z" />
    <glyph glyph-name="Ncaron" unicode="&#x147;" horiz-adv-x="728" 
d="M405 702h-86l-128 148l33 32l138 -90l138 90l34 -32zM699 657v-54l-85 -13v-600h-84l-352 495v-418l114 -13v-54h-264v54l85 12v511l-14 20l-69 6v54h226l294 -404v337l-114 13v54h263z" />
    <glyph glyph-name="ncaron" unicode="&#x148;" horiz-adv-x="616" 
d="M368 565h-86l-119 170l39 32l123 -104l123 104l39 -32zM545 57l50 -10v-47h-264v47l52 11q1 49 1 152v107q0 48 -12.5 67.5t-42.5 19.5q-39 0 -86 -36v-158q0 -104 1 -153l47 -10v-47h-263v47l54 12q1 48 1 151v60q0 56 -3 116l-61 9v39l197 67l18 -11l6 -72
q72 83 160 83q66 0 105 -44t39 -128v-119q0 -104 1 -153z" />
    <glyph glyph-name="Omacron" unicode="&#x14c;" horiz-adv-x="702" 
d="M211 329q0 -132 34 -211t106 -79t106 78.5t34 211.5q0 132 -34 210.5t-106 78.5q-71 0 -105.5 -78.5t-34.5 -210.5zM351 676q132 0 224.5 -90.5t92.5 -256.5q0 -165 -92.5 -256.5t-224.5 -91.5q-85 0 -155.5 37t-116 118t-45.5 193q0 164 92.5 255.5t224.5 91.5zM190 726
v89h322v-89h-322z" />
    <glyph glyph-name="omacron" unicode="&#x14d;" horiz-adv-x="565" 
d="M283 449q-85 0 -85 -206t85 -206q84 0 84 206t-84 206zM283 501q109 0 181.5 -70.5t72.5 -185.5q0 -117 -69 -188.5t-185 -71.5t-185 72t-69 188q0 114 72.5 185t181.5 71zM124 589v89h318v-89h-318z" />
    <glyph glyph-name="Ohungarumlaut" unicode="&#x150;" horiz-adv-x="702" 
d="M211 329q0 -132 34 -211t106 -79t106 78.5t34 211.5q0 132 -34 210.5t-106 78.5q-71 0 -105.5 -78.5t-34.5 -210.5zM351 676q132 0 224.5 -90.5t92.5 -256.5q0 -165 -92.5 -256.5t-224.5 -91.5q-85 0 -155.5 37t-116 118t-45.5 193q0 164 92.5 255.5t224.5 91.5zM226 718
l55 132q19 47 58 47q19 0 33.5 -11t14.5 -29q0 -22 -22 -48l-99 -114zM385 718l55 132q21 47 59 47q19 0 33 -11t14 -29q0 -22 -22 -48l-99 -114z" />
    <glyph glyph-name="ohungarumlaut" unicode="&#x151;" horiz-adv-x="565" 
d="M283 449q-85 0 -85 -206t85 -206q84 0 84 206t-84 206zM283 501q109 0 181.5 -70.5t72.5 -185.5q0 -117 -69 -188.5t-185 -71.5t-185 72t-69 188q0 114 72.5 185t181.5 71zM174 573l45 142q22 72 73 72q21 0 33 -12.5t12 -34.5q0 -26 -33 -70l-89 -119zM322 573l46 142
q22 72 72 72q21 0 33 -12.5t12 -34.5q0 -27 -33 -70l-88 -119z" />
    <glyph glyph-name="OE" unicode="&#x152;" horiz-adv-x="930" 
d="M445 310v37q0 179 -2 268q-21 3 -43 3q-91 0 -140 -78.5t-49 -210.5q0 -133 49 -211.5t140 -78.5q22 0 43 3q2 88 2 268zM822 172h84l-7 -172h-368q-69 -19 -140 -19q-156 0 -256.5 89t-100.5 259q0 169 100.5 258t256.5 89q72 0 140 -19h348l7 -172h-84l-20 116h-167
q-2 -76 -2 -232h108l12 78h58v-215h-58l-12 78h-108q0 -171 2 -254h187z" />
    <glyph glyph-name="oe" unicode="&#x153;" horiz-adv-x="858" 
d="M535 289h86q35 0 47.5 14t12.5 48q0 48 -19 73t-49 25q-71 0 -78 -160zM283 37q84 0 84 206t-84 206q-85 0 -85 -206t85 -206zM791 134l34 -32q-61 -117 -210 -117q-101 0 -165 70q-65 -70 -167 -70q-116 0 -185 72t-69 188q0 114 72.5 185t181.5 71q103 0 170 -73
q70 73 170 73q97 0 152 -59t55 -153q0 -33 -5 -53h-290q5 -76 42.5 -116t91.5 -40q70 0 122 54z" />
    <glyph glyph-name="Racute" unicode="&#x154;" horiz-adv-x="683" 
d="M430 762l-154 -67l-27 39l113 108q41 38 72 38q23 0 39 -15.5t16 -35.5q0 -41 -59 -67zM275 358h38q69 0 99.5 34t30.5 89q0 118 -126 118h-40q-2 -78 -2 -241zM601 62l78 -8v-54q-61 -14 -110 -14q-67 0 -103.5 23t-43.5 79l-19 116q-8 52 -29 75t-64 23h-35
q0 -161 2 -240l78 -8v-54h-322v54l75 8q2 81 2 248v37q0 166 -2 248l-75 8v54h325q117 0 181 -43.5t64 -121.5q0 -58 -41.5 -101.5t-134.5 -58.5q78 -11 110.5 -48t44.5 -111z" />
    <glyph glyph-name="racute" unicode="&#x155;" horiz-adv-x="465" 
d="M317 614l-77 -61l-38 31l55 91q36 62 56.5 81.5t45.5 19.5q22 0 38.5 -15t16.5 -40q0 -23 -21 -46t-76 -61zM234 490l9 -120q19 62 56.5 96.5t75.5 34.5q70 0 85 -68q0 -43 -21 -69.5t-61 -26.5q-48 0 -78 45l-4 5q-38 -41 -53 -106v-71q0 -99 1 -146l79 -17v-47h-296v47
l55 11q1 49 1 152v61q0 55 -3 115l-61 9v39l197 67z" />
    <glyph glyph-name="uni0156" unicode="&#x156;" horiz-adv-x="683" 
d="M283 -260l-15 40q58 24 79 46q-55 28 -55 72q0 25 20 42t49 17t62 -21q10 -29 10 -53q0 -48 -41.5 -84.5t-108.5 -58.5zM275 358h38q69 0 99.5 34t30.5 89q0 118 -126 118h-40q-2 -78 -2 -241zM601 62l78 -8v-54q-61 -14 -110 -14q-67 0 -103.5 23t-43.5 79l-19 116
q-8 52 -29 75t-64 23h-35q0 -161 2 -240l78 -8v-54h-322v54l75 8q2 81 2 248v37q0 166 -2 248l-75 8v54h325q117 0 181 -43.5t64 -121.5q0 -58 -41.5 -101.5t-134.5 -58.5q78 -11 110.5 -48t44.5 -111z" />
    <glyph glyph-name="uni0157" unicode="&#x157;" horiz-adv-x="465" 
d="M92 -263l-15 40q58 24 79 46q-55 27 -55 72q0 25 20 42t49 17t62 -21q10 -29 10 -53q0 -48 -41.5 -84.5t-108.5 -58.5zM234 490l9 -120q19 62 56.5 96.5t75.5 34.5q70 0 85 -68q0 -43 -21 -69.5t-61 -26.5q-48 0 -78 45l-4 5q-38 -41 -53 -106v-71q0 -99 1 -146l79 -17
v-47h-296v47l55 11q1 49 1 152v61q0 55 -3 115l-61 9v39l197 67z" />
    <glyph glyph-name="Rcaron" unicode="&#x158;" horiz-adv-x="683" 
d="M376 705h-86l-128 148l33 32l138 -90l138 90l34 -32zM275 358h38q69 0 99.5 34t30.5 89q0 118 -126 118h-40q-2 -78 -2 -241zM601 62l78 -8v-54q-61 -14 -110 -14q-67 0 -103.5 23t-43.5 79l-19 116q-8 52 -29 75t-64 23h-35q0 -161 2 -240l78 -8v-54h-322v54l75 8
q2 81 2 248v37q0 166 -2 248l-75 8v54h325q117 0 181 -43.5t64 -121.5q0 -58 -41.5 -101.5t-134.5 -58.5q78 -11 110.5 -48t44.5 -111z" />
    <glyph glyph-name="rcaron" unicode="&#x159;" horiz-adv-x="465" 
d="M295 565h-86l-119 170l39 32l123 -104l123 104l39 -32zM234 490l9 -120q19 62 56.5 96.5t75.5 34.5q70 0 85 -68q0 -43 -21 -69.5t-61 -26.5q-48 0 -78 45l-4 5q-38 -41 -53 -106v-71q0 -99 1 -146l79 -17v-47h-296v47l55 11q1 49 1 152v61q0 55 -3 115l-61 9v39l197 67z
" />
    <glyph glyph-name="Sacute" unicode="&#x15a;" horiz-adv-x="541" 
d="M389 762l-154 -67l-27 39l113 108q41 38 72 38q23 0 39 -15.5t16 -35.5q0 -41 -59 -67zM285 418l47 -22q97 -44 138.5 -91.5t41.5 -121.5q0 -91 -68 -146.5t-193 -55.5q-133 0 -217 53l6 148h93l20 -123q45 -18 97 -18t81 26.5t29 69.5q0 37 -19.5 59t-66.5 43l-43 19
q-94 43 -139.5 94t-45.5 130q0 90 67 142t181 52q112 0 189 -51l-8 -140h-92l-19 117q-33 14 -67 14q-44 0 -73.5 -25.5t-29.5 -66.5q0 -38 22 -61.5t69 -44.5z" />
    <glyph glyph-name="sacute" unicode="&#x15b;" horiz-adv-x="455" 
d="M303 614l-77 -61l-38 31l55 91q36 62 56.5 81.5t45.5 19.5q22 0 38.5 -15t16.5 -40q0 -23 -21 -46t-76 -61zM249 321l49 -14q132 -39 132 -155q0 -79 -60 -123t-166 -44q-95 0 -174 46l3 123h80l17 -100q37 -14 75 -14q89 0 89 59q0 25 -18 41.5t-66 30.5l-54 16
q-58 16 -89.5 54.5t-31.5 94.5q0 72 56 118.5t153 46.5q78 0 158 -40l-7 -110h-80l-21 87q-24 8 -54 8q-35 0 -55 -15t-20 -43q0 -21 17.5 -36.5t66.5 -30.5z" />
    <glyph glyph-name="uni015E" unicode="&#x15e;" horiz-adv-x="541" 
d="M285 418l47 -22q97 -44 138.5 -91.5t41.5 -121.5q0 -81 -55 -135t-156 -64l-4 -35q100 -19 100 -85q0 -40 -35 -64.5t-100 -24.5q-41 0 -78 13l11 46q30 -8 53 -8q52 0 52 38q0 42 -63 47l11 70q-132 2 -214 53l6 148h93l20 -123q45 -18 97 -18t81 26.5t29 69.5
q0 37 -19.5 59t-66.5 43l-43 19q-94 43 -139.5 94t-45.5 130q0 90 67 142t181 52q112 0 189 -51l-8 -140h-92l-19 117q-33 14 -67 14q-44 0 -73.5 -25.5t-29.5 -66.5q0 -38 22 -61.5t69 -44.5z" />
    <glyph glyph-name="uni015F" unicode="&#x15f;" horiz-adv-x="455" 
d="M249 321l49 -14q132 -39 132 -155q0 -69 -47 -112t-131 -52l-4 -39q100 -19 100 -85q0 -40 -35 -64.5t-100 -24.5q-41 0 -78 13l11 46q30 -8 53 -8q52 0 52 38q0 42 -63 47l11 74q-92 1 -169 46l3 123h80l17 -100q37 -14 75 -14q89 0 89 59q0 25 -18 41.5t-66 30.5
l-54 16q-58 16 -89.5 54.5t-31.5 94.5q0 72 56 118.5t153 46.5q78 0 158 -40l-7 -110h-80l-21 87q-24 8 -54 8q-35 0 -55 -15t-20 -43q0 -21 17.5 -36.5t66.5 -30.5z" />
    <glyph glyph-name="Scaron" unicode="&#x160;" horiz-adv-x="541" 
d="M340 712h-86l-128 148l33 32l138 -90l138 90l34 -32zM285 418l47 -22q97 -44 138.5 -91.5t41.5 -121.5q0 -91 -68 -146.5t-193 -55.5q-133 0 -217 53l6 148h93l20 -123q45 -18 97 -18t81 26.5t29 69.5q0 37 -19.5 59t-66.5 43l-43 19q-94 43 -139.5 94t-45.5 130
q0 90 67 142t181 52q112 0 189 -51l-8 -140h-92l-19 117q-33 14 -67 14q-44 0 -73.5 -25.5t-29.5 -66.5q0 -38 22 -61.5t69 -44.5z" />
    <glyph glyph-name="scaron" unicode="&#x161;" horiz-adv-x="455" 
d="M280 565h-86l-119 170l39 32l123 -104l123 104l39 -32zM249 321l49 -14q132 -39 132 -155q0 -79 -60 -123t-166 -44q-95 0 -174 46l3 123h80l17 -100q37 -14 75 -14q89 0 89 59q0 25 -18 41.5t-66 30.5l-54 16q-58 16 -89.5 54.5t-31.5 94.5q0 72 56 118.5t153 46.5
q78 0 158 -40l-7 -110h-80l-21 87q-24 8 -54 8q-35 0 -55 -15t-20 -43q0 -21 17.5 -36.5t66.5 -30.5z" />
    <glyph glyph-name="uni0162" unicode="&#x162;" horiz-adv-x="634" 
d="M513 601h-110q-2 -83 -2 -254v-36q0 -166 2 -248l86 -9v-54h-145l-6 -51q100 -19 100 -85q0 -40 -35 -64.5t-100 -24.5q-41 0 -78 13l11 46q30 -8 53 -8q52 0 52 38q0 42 -63 47l13 89h-145v54l85 9q2 81 2 247v37q0 169 -2 254h-109l-19 -130h-83l4 186h587l3 -186h-83z
" />
    <glyph glyph-name="uni0163" unicode="&#x163;" horiz-adv-x="358" 
d="M340 90l25 -24q-40 -76 -137 -80l-4 -37q100 -19 100 -85q0 -40 -35 -64.5t-100 -24.5q-41 0 -78 13l11 46q30 -8 53 -8q52 0 52 38q0 42 -63 47l12 79q-101 17 -101 135q0 17 0.5 49t0.5 52v188h-65v60l73 9l51 141h102l-2 -141h105v-69h-105v-278q0 -68 51 -68
q24 0 54 22z" />
    <glyph glyph-name="Tcaron" unicode="&#x164;" horiz-adv-x="634" 
d="M360 705h-86l-128 148l33 32l138 -90l138 90l34 -32zM513 601h-110q-2 -83 -2 -254v-36q0 -166 2 -248l86 -9v-54h-343v54l85 9q2 81 2 247v37q0 169 -2 254h-109l-19 -130h-83l4 186h587l3 -186h-83z" />
    <glyph glyph-name="tcaron" unicode="&#x165;" horiz-adv-x="358" 
d="M363 577l-30 -62h-48l5 202q28 17 56 17q48 0 48 -48q0 -38 -31 -109zM235 414v-278q0 -68 51 -68q24 0 54 22l25 -24q-42 -80 -147 -80q-143 0 -143 139q0 17 0.5 49t0.5 52v188h-65v60l73 9l51 141h102l-2 -141h105v-69h-105z" />
    <glyph glyph-name="Umacron" unicode="&#x16a;" horiz-adv-x="731" 
d="M566 815v-89h-322v89h322zM705 657v-54l-83 -7v-313q0 -302 -263 -302q-118 0 -187 64t-69 203v109q0 159 -2 239l-72 7v54h326v-54l-83 -8q-1 -79 -1 -238v-77q0 -112 35 -160t108 -48q143 0 143 211v312l-91 8v54h239z" />
    <glyph glyph-name="umacron" unicode="&#x16b;" horiz-adv-x="607" 
d="M469 678v-89h-318v89h318zM535 58l52 -11v-47l-205 -10l-6 82q-67 -87 -162 -87q-144 0 -141 180l4 244l-58 13v42l204 29l16 -11l-5 -141v-177q0 -82 54 -82q39 0 86 45l4 282l-55 13v39l199 32l16 -11l-3 -141v-283z" />
    <glyph glyph-name="Uring" unicode="&#x16e;" horiz-adv-x="731" 
d="M410 852q-23 0 -37 -14.5t-14 -37.5t14 -38t37 -15t37 15t14 38t-14 37.5t-37 14.5zM410 701q-44 0 -73.5 27t-29.5 72q0 44 29.5 71.5t73.5 27.5t73.5 -27t29.5 -72t-29.5 -72t-73.5 -27zM705 657v-54l-83 -7v-313q0 -302 -263 -302q-118 0 -187 64t-69 203v109
q0 159 -2 239l-72 7v54h326v-54l-83 -8q-1 -79 -1 -238v-77q0 -112 35 -160t108 -48q143 0 143 211v312l-91 8v54h239z" />
    <glyph glyph-name="uring" unicode="&#x16f;" horiz-adv-x="607" 
d="M309 728q-27 0 -43 -18.5t-16 -44.5q0 -25 16 -44.5t43 -19.5t43 19.5t16 44.5q0 26 -16 44.5t-43 18.5zM309 550q-52 0 -86.5 31.5t-34.5 83.5q0 51 35 82.5t86 31.5q52 0 86.5 -31t34.5 -83q0 -53 -34.5 -84t-86.5 -31zM535 58l52 -11v-47l-205 -10l-6 82
q-67 -87 -162 -87q-144 0 -141 180l4 244l-58 13v42l204 29l16 -11l-5 -141v-177q0 -82 54 -82q39 0 86 45l4 282l-55 13v39l199 32l16 -11l-3 -141v-283z" />
    <glyph glyph-name="Uhungarumlaut" unicode="&#x170;" horiz-adv-x="731" 
d="M491 695l-40 23l55 132q21 47 59 47q19 0 33 -11t14 -29q0 -22 -22 -48zM431 809l-99 -114l-40 23l55 132q19 47 58 47q19 0 33.5 -11t14.5 -29q0 -22 -22 -48zM705 657v-54l-83 -7v-313q0 -302 -263 -302q-118 0 -187 64t-69 203v109q0 159 -2 239l-72 7v54h326v-54
l-83 -8q-1 -79 -1 -238v-77q0 -112 35 -160t108 -48q143 0 143 211v312l-91 8v54h239z" />
    <glyph glyph-name="uhungarumlaut" unicode="&#x171;" horiz-adv-x="607" 
d="M368 551l-42 22l46 142q22 72 72 72q21 0 33 -12.5t12 -34.5q0 -27 -33 -70zM308 670l-89 -119l-41 22l45 142q22 72 73 72q21 0 33 -12.5t12 -34.5q0 -26 -33 -70zM535 58l52 -11v-47l-205 -10l-6 82q-67 -87 -162 -87q-144 0 -141 180l4 244l-58 13v42l204 29l16 -11
l-5 -141v-177q0 -82 54 -82q39 0 86 45l4 282l-55 13v39l199 32l16 -11l-3 -141v-283z" />
    <glyph glyph-name="Uogonek" unicode="&#x172;" horiz-adv-x="731" 
d="M705 657v-54l-83 -7v-313q0 -204 -125 -272q-58 -32 -58 -88q0 -31 19.5 -48.5t51.5 -17.5q27 0 54 10l14 -43q-47 -49 -131 -49q-53 0 -82.5 27t-29.5 70q0 67 68 111q-26 -2 -42 -2q-120 0 -189 64t-69 203v109q0 159 -2 239l-72 7v54h326v-54l-83 -8q-1 -79 -1 -238
v-77q0 -112 34.5 -160t107.5 -48q144 0 144 211v312l-91 8v54h239z" />
    <glyph glyph-name="uogonek" unicode="&#x173;" horiz-adv-x="607" 
d="M596 -133l14 -43q-47 -49 -132 -49q-51 0 -80.5 27.5t-29.5 69.5q0 75 91 122l-77 -4l-6 82q-67 -87 -162 -87q-144 0 -141 180l4 244l-58 13v42l204 29l16 -11l-5 -141v-177q0 -82 54 -82q39 0 86 45l4 282l-55 13v39l199 32l16 -11l-3 -141v-283l52 -11v-47l-75 -4
q-41 -30 -41 -73q0 -30 19.5 -48t51.5 -18q29 0 54 10z" />
    <glyph glyph-name="Ydieresis" unicode="&#x178;" horiz-adv-x="624" 
d="M492 711q-30 0 -51.5 19t-21.5 50t21.5 50t51.5 19q31 0 52.5 -19t21.5 -50t-21.5 -50t-52.5 -19zM243 711q-30 0 -51.5 19t-21.5 50t21.5 50t51.5 19q31 0 52.5 -19t21.5 -50t-21.5 -50t-52.5 -19zM549 591l-151 -307v-44q0 -115 1 -177l87 -9v-54h-343v54l86 9
q1 61 1 176v19l-166 339l-56 6v54h322v-54l-75 -9l114 -253l115 251l-69 11v54h207v-54z" />
    <glyph glyph-name="Zacute" unicode="&#x179;" horiz-adv-x="563" 
d="M414 762l-154 -67l-27 39l113 108q41 38 72 38q23 0 39 -15.5t16 -35.5q0 -41 -59 -67zM463 186h80l-8 -186h-515v46l315 554h-200l-26 -129h-79l8 186h495v-46l-315 -554h219z" />
    <glyph glyph-name="zacute" unicode="&#x17a;" horiz-adv-x="464" 
d="M315 614l-77 -61l-38 31l55 91q36 62 56.5 81.5t45.5 19.5q22 0 38.5 -15t16.5 -40q0 -23 -21 -46t-76 -61zM369 167h81l-10 -167h-422v39l250 398h-136l-27 -111l-81 4l8 153h408v-39l-241 -398h140z" />
    <glyph glyph-name="Zdotaccent" unicode="&#x17b;" horiz-adv-x="563" 
d="M312 711q-33 0 -56.5 22.5t-23.5 55.5q0 34 23.5 56.5t56.5 22.5t56.5 -22.5t23.5 -56.5q0 -33 -23.5 -55.5t-56.5 -22.5zM463 186h80l-8 -186h-515v46l315 554h-200l-26 -129h-79l8 186h495v-46l-315 -554h219z" />
    <glyph glyph-name="zdotaccent" unicode="&#x17c;" horiz-adv-x="464" 
d="M256 573q-36 0 -60.5 22.5t-24.5 56.5q0 35 24.5 57.5t60.5 22.5t60.5 -22.5t24.5 -57.5q0 -34 -24.5 -56.5t-60.5 -22.5zM369 167h81l-10 -167h-422v39l250 398h-136l-27 -111l-81 4l8 153h408v-39l-241 -398h140z" />
    <glyph glyph-name="Zcaron" unicode="&#x17d;" horiz-adv-x="563" 
d="M349 705h-86l-128 148l33 32l138 -90l138 90l34 -32zM463 186h80l-8 -186h-515v46l315 554h-200l-26 -129h-79l8 186h495v-46l-315 -554h219z" />
    <glyph glyph-name="zcaron" unicode="&#x17e;" horiz-adv-x="464" 
d="M307 565h-86l-119 170l39 32l123 -104l123 104l39 -32zM369 167h81l-10 -167h-422v39l250 398h-136l-27 -111l-81 4l8 153h408v-39l-241 -398h140z" />
    <glyph glyph-name="longs" unicode="&#x17f;" horiz-adv-x="359" 
d="M83 210v238q0 140 86 222q70 66 167 66q45 0 78 -18.5t42 -56.5q-1 -29 -20 -47.5t-52 -18.5q-51 0 -88 74l-9 13q-11 -11 -19 -27q-12 -24 -18 -64t-6.5 -71t-0.5 -108v-202q0 -98 1 -147l78 -16v-47h-295v47l54 11q2 102 2 152z" />
    <glyph glyph-name="uni0192" unicode="&#x192;" horiz-adv-x="542" 
d="M111 407h102q15 123 67 179q52 60 135 60q52 0 85.5 -21t44.5 -56q-1 -27 -17 -45t-40 -18q-47 0 -67 51l-16 43q-16 -13 -26 -35q-19 -39 -28 -158h110v-58h-114l-8 -120q-8 -113 -25 -175t-51 -99q-51 -59 -134 -59q-107 0 -131 76q1 28 16.5 45.5t40.5 17.5
q48 0 67 -51l16 -43q16 14 26 35q4 8 7.5 18t6 19t4.5 24l3.5 25.5t3.5 31.5t2.5 33.5t3 41t3.5 44.5l9 136h-96v58z" />
    <glyph glyph-name="uni0218" unicode="&#x218;" horiz-adv-x="541" 
d="M190 -263l-15 40q58 24 79 46q-55 27 -55 72q0 25 20 42t49 17t62 -21q10 -29 10 -53q0 -48 -41.5 -84.5t-108.5 -58.5zM285 418l47 -22q97 -44 138.5 -91.5t41.5 -121.5q0 -91 -68 -146.5t-193 -55.5q-133 0 -217 53l6 148h93l20 -123q45 -18 97 -18t81 26.5t29 69.5
q0 37 -19.5 59t-66.5 43l-43 19q-94 43 -139.5 94t-45.5 130q0 90 67 142t181 52q112 0 189 -51l-8 -140h-92l-19 117q-33 14 -67 14q-44 0 -73.5 -25.5t-29.5 -66.5q0 -38 22 -61.5t69 -44.5z" />
    <glyph glyph-name="uni0219" unicode="&#x219;" horiz-adv-x="455" 
d="M151 -263l-15 40q58 24 79 46q-55 27 -55 72q0 25 20 42t49 17t62 -21q10 -29 10 -53q0 -48 -41.5 -84.5t-108.5 -58.5zM249 321l49 -14q132 -39 132 -155q0 -79 -60 -123t-166 -44q-95 0 -174 46l3 123h80l17 -100q37 -14 75 -14q89 0 89 59q0 25 -18 41.5t-66 30.5
l-54 16q-58 16 -89.5 54.5t-31.5 94.5q0 72 56 118.5t153 46.5q78 0 158 -40l-7 -110h-80l-21 87q-24 8 -54 8q-35 0 -55 -15t-20 -43q0 -21 17.5 -36.5t66.5 -30.5z" />
    <glyph glyph-name="uni021A" unicode="&#x21a;" horiz-adv-x="634" 
d="M249 -263l-15 40q58 24 79 46q-55 27 -55 72q0 25 20 42t49 17t62 -21q10 -29 10 -53q0 -48 -41.5 -84.5t-108.5 -58.5zM513 601h-110q-2 -83 -2 -254v-36q0 -166 2 -248l86 -9v-54h-343v54l85 9q2 81 2 247v37q0 169 -2 254h-109l-19 -130h-83l4 186h587l3 -186h-83z
" />
    <glyph glyph-name="uni021B" unicode="&#x21b;" horiz-adv-x="358" 
d="M127 -263l-15 40q58 24 79 46q-55 27 -55 72q0 25 20 42t49 17t62 -21q10 -29 10 -53q0 -48 -41.5 -84.5t-108.5 -58.5zM340 90l25 -24q-42 -80 -147 -80q-143 0 -143 139q0 17 0.5 49t0.5 52v188h-65v60l73 9l51 141h102l-2 -141h105v-69h-105v-278q0 -68 51 -68
q24 0 54 22z" />
    <glyph glyph-name="h.sups" unicode="&#x2b0;" horiz-adv-x="412" 
d="M360 449l38 -7v-30h-174v30l38 8v164q0 36 -8.5 49.5t-30.5 13.5q-30 0 -66 -33v-195l35 -7v-30h-174v30l40 8v366l-46 7v27l134 30l10 -6v-192q50 54 107 54q97 0 97 -113v-174z" />
    <glyph glyph-name="j.sups" unicode="&#x2b2;" horiz-adv-x="198" 
d="M108 790q-24 0 -41 15t-17 36q0 22 17 36.5t41 14.5t40 -14.5t16 -36.5t-16.5 -36.5t-39.5 -14.5zM14 694l132 42l11 -7v-279q0 -63 -9 -96.5t-34 -58.5q-43 -40 -104 -40q-67 0 -85 43q3 21 16.5 33t33.5 12q40 0 64 -36l4 -6l4 6l4 10t3 12t2 13t1.5 16t1 16.5t0.5 19
v20v22.5v24v203l-45 6v25z" />
    <glyph glyph-name="r.sups" unicode="&#x2b3;" horiz-adv-x="309" 
d="M152 730l7 -80q14 40 39.5 63t51.5 23q44 0 54 -41q0 -25 -13.5 -40.5t-37.5 -15.5q-30 0 -51 26l-3 4q-28 -30 -40 -74v-142l55 -11v-30h-193v30l40 8v212l-45 6v26l125 42z" />
    <glyph glyph-name="w.sups" unicode="&#x2b7;" horiz-adv-x="531" 
d="M529 724v-29l-41 -7l-102 -280h-45l-82 207l-77 -207h-45l-106 282l-35 5v29h175v-29l-41 -5l56 -170l62 170l-42 5v29h161v-29l-38 -5l59 -169l56 168l-40 6v29h125z" />
    <glyph glyph-name="y.sups" unicode="&#x2b8;" horiz-adv-x="352" 
d="M352 724v-29l-40 -6l-117 -299q-29 -71 -56 -101t-71 -30q-27 0 -46 14t-19 35q12 31 46 31q27 0 56 -24l7 -6q29 28 49 78l-131 301l-38 7v29h189v-29l-46 -9l69 -183l67 185l-46 7v29h127z" />
    <glyph glyph-name="uni02BB" unicode="&#x2bb;" horiz-adv-x="216" 
d="M106 606l44 -31q39 -30 39 -74q0 -33 -22.5 -54.5t-54.5 -21.5q-33 0 -66 27q-22 37 -22 83q0 64 42.5 117.5t112.5 83.5l18 -38q-57 -34 -91 -92z" />
    <glyph glyph-name="uni02BC" unicode="&#x2bc;" horiz-adv-x="216" 
d="M110 556l-44 31q-39 30 -39 74q0 33 22.5 54.5t54.5 21.5q33 0 66 -27q22 -37 22 -83q0 -64 -42.5 -117.5t-112.5 -83.5l-18 38q57 34 91 92z" />
    <glyph glyph-name="circumflex" unicode="&#x2c6;" horiz-adv-x="400" 
d="M370 588l-36 -33l-134 101l-134 -101l-36 33l138 175h64z" />
    <glyph glyph-name="caron" unicode="&#x2c7;" horiz-adv-x="400" 
d="M323 767l39 -32l-119 -170h-86l-119 170l39 32l123 -104z" />
    <glyph glyph-name="uni02C9" unicode="&#x2c9;" horiz-adv-x="400" 
d="M41 589v89h318v-89h-318z" />
    <glyph glyph-name="uni02CA" unicode="&#x2ca;" horiz-adv-x="400" 
d="M96 584l55 91q36 62 56.5 81.5t45.5 19.5q22 0 38.5 -15t16.5 -40q0 -23 -21 -46t-76 -61l-77 -61z" />
    <glyph glyph-name="uni02CB" unicode="&#x2cb;" horiz-adv-x="400" 
d="M305 584l-38 -31l-78 61q-55 38 -75.5 61t-20.5 46q0 25 16.5 40t38.5 15q25 0 45.5 -20t56.5 -81z" />
    <glyph glyph-name="breve" unicode="&#x2d8;" horiz-adv-x="400" 
d="M200 566q-78 0 -117.5 47t-44.5 109l49 15q36 -87 113 -87q40 0 69 24.5t44 62.5l49 -15q-5 -62 -44.5 -109t-117.5 -47z" />
    <glyph glyph-name="dotaccent" unicode="&#x2d9;" horiz-adv-x="400" 
d="M200 573q-36 0 -60.5 22.5t-24.5 56.5q0 35 24.5 57.5t60.5 22.5t60.5 -22.5t24.5 -57.5q0 -34 -24.5 -56.5t-60.5 -22.5z" />
    <glyph glyph-name="ring" unicode="&#x2da;" horiz-adv-x="400" 
d="M200 601q27 0 43 19.5t16 44.5q0 26 -16 44.5t-43 18.5t-43 -18.5t-16 -44.5q0 -25 16 -44.5t43 -19.5zM200 550q-52 0 -86.5 31.5t-34.5 83.5q0 51 35 82.5t86 31.5q52 0 86.5 -31t34.5 -83q0 -53 -34.5 -84t-86.5 -31z" />
    <glyph glyph-name="ogonek" unicode="&#x2db;" horiz-adv-x="400" 
d="M78 -128q0 89 118 137h41q-56 -31 -56 -86q0 -31 19.5 -48.5t51.5 -17.5q27 0 54 10l15 -43q-47 -49 -132 -49q-52 0 -81.5 27t-29.5 70z" />
    <glyph glyph-name="tilde" unicode="&#x2dc;" horiz-adv-x="400" 
d="M262 562q-29 0 -49 11.5t-42 39.5l-16 18.5t-14.5 11t-18.5 5.5q-39 0 -39 -69h-42q-5 20 -5 46q0 45 28 76t77 31q30 0 49.5 -11.5t41.5 -39.5q1 -1 5 -5.5t5 -5.5t4.5 -5t5 -5t5 -4t6 -4t5.5 -2.5t6.5 -2t6.5 -0.5q39 0 39 69h42q5 -21 5 -46q0 -46 -28 -77t-77 -31z
" />
    <glyph glyph-name="hungarumlaut" unicode="&#x2dd;" horiz-adv-x="400" 
d="M46 573l45 142q22 72 73 72q21 0 33 -12.5t12 -34.5q0 -26 -33 -70l-89 -119zM194 573l46 142q22 72 72 72q21 0 33 -12.5t12 -34.5q0 -27 -33 -70l-88 -119z" />
    <glyph glyph-name="l.sups" unicode="&#x2e1;" horiz-adv-x="206" 
d="M157 449l37 -7v-30h-175v30l39 8v366l-46 7v27l134 30l11 -6v-425z" />
    <glyph glyph-name="s.sups" unicode="&#x2e2;" horiz-adv-x="301" 
d="M163 616l30 -9q90 -28 90 -100q0 -48 -39.5 -76.5t-108.5 -28.5q-62 0 -113 30v77h51l12 -61q22 -11 52 -11q62 0 62 40q0 17 -13 28.5t-46 21.5l-34 10q-82 27 -82 96q0 45 36.5 74t99.5 29q52 0 104 -25l-4 -71h-51l-12 54q-15 7 -39 7q-53 0 -53 -38q0 -15 12.5 -26
t45.5 -21z" />
    <glyph glyph-name="x.sups" unicode="&#x2e3;" horiz-adv-x="368" 
d="M319 449l38 -7v-30h-184v30l33 5l-51 81l-55 -80l35 -6v-30h-127v30l47 7l81 108l-89 133l-37 5v29h178v-29l-30 -4l51 -77l52 75l-34 6v29h117v-29l-38 -7l-78 -103z" />
    <glyph glyph-name="uni0300" unicode="&#x300;" horiz-adv-x="0" 
d="M104 584l-38 -31l-78 61q-55 38 -75.5 61t-20.5 46q0 25 16.5 40t38.5 15q25 0 45.5 -20t56.5 -81z" />
    <glyph glyph-name="uni0301" unicode="&#x301;" horiz-adv-x="0" 
d="M-105 584l55 91q36 62 56.5 81.5t45.5 19.5q22 0 38.5 -15t16.5 -40q0 -23 -21 -46t-76 -61l-77 -61z" />
    <glyph glyph-name="uni0302" unicode="&#x302;" horiz-adv-x="0" 
d="M170 588l-36 -33l-134 101l-134 -101l-36 33l138 175h64z" />
    <glyph glyph-name="uni0303" unicode="&#x303;" horiz-adv-x="0" 
d="M60 562q-29 0 -49 11.5t-42 39.5l-16 18.5t-14.5 11t-18.5 5.5q-39 0 -39 -69h-42q-5 20 -5 46q0 45 28 76t77 31q30 0 49.5 -11.5t41.5 -39.5q1 -1 5 -5.5t5 -5.5t4.5 -5t5 -5t5 -4t6 -4t5.5 -2.5t6.5 -2t6.5 -0.5q39 0 39 69h42q5 -21 5 -46q0 -46 -28 -77t-77 -31z
" />
    <glyph glyph-name="uni0304" unicode="&#x304;" horiz-adv-x="0" 
d="M-159 589v89h318v-89h-318z" />
    <glyph glyph-name="uni0306" unicode="&#x306;" horiz-adv-x="0" 
d="M0 566q-78 0 -117.5 47t-44.5 109l49 15q36 -87 113 -87q40 0 69 24.5t44 62.5l49 -15q-5 -62 -44.5 -109t-117.5 -47z" />
    <glyph glyph-name="uni0307" unicode="&#x307;" horiz-adv-x="0" 
d="M0 573q-36 0 -60.5 22.5t-24.5 56.5q0 35 24.5 57.5t60.5 22.5t60.5 -22.5t24.5 -57.5q0 -34 -24.5 -56.5t-60.5 -22.5z" />
    <glyph glyph-name="uni0308" unicode="&#x308;" horiz-adv-x="0" 
d="M114 570q-30 0 -51.5 19t-21.5 51q0 31 21.5 50t51.5 19q31 0 52.5 -19t21.5 -50q0 -32 -21.5 -51t-52.5 -19zM-114 570q-31 0 -52.5 19t-21.5 51q0 31 21.5 50t52.5 19q30 0 51.5 -19t21.5 -50q0 -32 -21 -51t-52 -19z" />
    <glyph glyph-name="uni030A" unicode="&#x30a;" horiz-adv-x="0" 
d="M0 601q27 0 43 19.5t16 44.5q0 26 -16 44.5t-43 18.5t-43 -18.5t-16 -44.5q0 -25 16 -44.5t43 -19.5zM0 550q-52 0 -86.5 31.5t-34.5 83.5q0 51 35 82.5t86 31.5q52 0 86.5 -31t34.5 -83q0 -53 -34.5 -84t-86.5 -31z" />
    <glyph glyph-name="uni030B" unicode="&#x30b;" horiz-adv-x="0" 
d="M-150 573l45 142q22 72 73 72q21 0 33 -12.5t12 -34.5q0 -26 -33 -70l-89 -119zM-2 573l46 142q22 72 72 72q21 0 33 -12.5t12 -34.5q0 -27 -33 -70l-88 -119z" />
    <glyph glyph-name="uni030C" unicode="&#x30c;" horiz-adv-x="0" 
d="M123 767l39 -32l-119 -170h-86l-119 170l39 32l123 -104z" />
    <glyph glyph-name="uni0326" unicode="&#x326;" horiz-adv-x="0" 
d="M-80 -263l-15 40q58 24 79 46q-55 27 -55 72q0 25 20 42t49 17t62 -21q10 -29 10 -53q0 -48 -41.5 -84.5t-108.5 -58.5z" />
    <glyph glyph-name="uni0327" unicode="&#x327;" horiz-adv-x="0" 
d="M29 4l-6 -55q100 -19 100 -85q0 -40 -35 -64.5t-100 -24.5q-41 0 -78 13l11 46q30 -8 53 -8q52 0 52 38q0 42 -63 47l14 93h52z" />
    <glyph glyph-name="uni0328" unicode="&#x328;" horiz-adv-x="0" 
d="M-127 -128q0 89 118 137h41q-56 -31 -56 -86q0 -31 19.5 -48.5t51.5 -17.5q27 0 54 10l15 -43q-47 -49 -132 -49q-52 0 -81.5 27t-29.5 70z" />
    <glyph glyph-name="pi" unicode="&#x3c0;" horiz-adv-x="640" 
d="M614 483v-83q-37 -28 -153 -36v-174q0 -68 48 -68q28 0 55 9l9 3l19 -113q-42 -35 -103 -35q-105 0 -105 128q0 51 8 248h-144l-25 -351q-23 -26 -56 -26q-71 0 -71 76q0 49 57 188l6 15l30 97l-164 -8v83q79 47 227 47h362z" />
    <glyph glyph-name="a.sups" unicode="&#x1d43;" horiz-adv-x="355" 
d="M205 476v103q-19 -5 -37 -13q-53 -21 -53 -65q0 -23 13 -36q10 -13 29 -13q14 0 48 24zM339 461l17 -12q-22 -46 -76 -46q-60 0 -72 50q-28 -28 -47.5 -39.5t-49.5 -11.5q-40 0 -64.5 22t-24.5 62q0 35 27.5 59.5t99.5 45.5l56 16v21q0 44 -12 60t-45 16q-13 0 -20 -1
l-4 -33q-2 -28 -15.5 -41.5t-32.5 -13.5q-37 0 -43 32q3 41 43 65t108 24q62 0 89.5 -28t27.5 -93v-145q0 -23 16 -23q9 0 22 14z" />
    <glyph glyph-name="b.sups" unicode="&#x1d47;" horiz-adv-x="405" 
d="M157 662v-188q26 -21 53 -21q32 0 51 29t19 87q0 115 -68 115q-26 0 -55 -22zM157 874v-177q42 39 96 39q57 0 94 -43t37 -122q0 -77 -42 -123t-101 -46q-54 0 -90 40l-10 -41l-122 11v29l39 8v369l-46 5v27l133 30z" />
    <glyph glyph-name="d.sups" unicode="&#x1d48;" horiz-adv-x="389" 
d="M247 473v193q-23 19 -48 19q-34 0 -54 -29t-20 -88q0 -57 20 -85.5t53 -28.5q25 0 49 19zM346 448l37 -7v-29l-127 -7l-6 39q-39 -42 -96 -42q-58 0 -95.5 43t-37.5 122q0 77 43.5 123t102.5 46q48 0 80 -32v112l-48 7v27l136 30l11 -6v-426z" />
    <glyph glyph-name="e.sups" unicode="&#x1d49;" horiz-adv-x="349" 
d="M124 598h72q23 0 32 9.5t9 30.5q0 30 -15 47.5t-37 17.5q-54 0 -61 -105zM324 566h-200q3 -52 29 -79t65 -27q49 0 85 39l22 -18q-42 -79 -138 -79q-74 0 -119.5 45t-45.5 121t50 122t119 46q63 0 100 -37.5t37 -97.5q0 -22 -4 -35z" />
    <glyph glyph-name="g.sups" unicode="&#x1d4d;" horiz-adv-x="363" 
d="M166 556q49 0 49 76q0 35 -12.5 55t-35.5 20q-49 0 -49 -77q0 -74 48 -74zM216 388h-69q-35 0 -59 9q-13 -22 -13 -43q0 -56 90 -56q49 0 76 15t27 39q0 36 -52 36zM356 730v-48h-65q13 -22 13 -51q0 -47 -35.5 -76t-101.5 -29q-34 0 -61 8q-9 -14 -9 -29q0 -31 47 -31
h70q137 0 137 -94q0 -50 -52 -84.5t-143 -34.5q-144 0 -144 77q0 41 56 68q-37 21 -37 60q0 44 51 77q-53 27 -53 88q0 48 35.5 76.5t102.5 28.5q64 0 101 -27l77 27z" />
    <glyph glyph-name="k.sups" unicode="&#x1d4f;" horiz-adv-x="395" 
d="M347 451l44 -9v-30h-127l-79 153l-28 -25v-91l36 -7v-30h-174v30l39 8v366l-46 7v27l134 30l11 -6v-293l111 108l-47 6v29h156v-29l-61 -7l-64 -60z" />
    <glyph glyph-name="m.sups" unicode="&#x1d50;" horiz-adv-x="610" 
d="M558 450l38 -8v-30h-171v30l36 8v160q0 38 -9 52.5t-31 14.5q-28 0 -63 -28q1 -8 1 -26v-174l35 -7v-30h-170v30l39 8v160q0 37 -8.5 52t-29.5 15q-32 0 -65 -28v-200l34 -7v-30h-172v30l39 8v212l-45 6v26l125 42l11 -6l5 -50q49 56 106 56q70 0 89 -60q49 60 109 60
q50 0 73.5 -28t23.5 -87v-171z" />
    <glyph glyph-name="o.sups" unicode="&#x1d52;" horiz-adv-x="380" 
d="M190 702q-66 0 -66 -133t66 -133q65 0 65 133t-65 133zM190 736q72 0 121 -45.5t49 -120.5q0 -77 -47 -122.5t-123 -45.5t-123 46t-47 122q0 75 49 120.5t121 45.5z" />
    <glyph glyph-name="p.sups" unicode="&#x1d56;" horiz-adv-x="403" 
d="M157 663v-189q24 -21 52 -21q32 0 50.5 29t18.5 87q0 115 -68 115q-25 0 -53 -21zM148 730l6 -37q42 43 99 43q56 0 93 -43t37 -122q0 -77 -41.5 -123t-100.5 -46q-50 0 -84 34v-135l45 -10v-30h-185v30l41 9v362l-46 6v26l125 42z" />
    <glyph glyph-name="t.sups" unicode="&#x1d57;" horiz-adv-x="235" 
d="M219 472l16 -19q-30 -48 -98 -48q-42 0 -66 21.5t-24 65.5v189h-42v38l47 6l31 91h64l-1 -92h73v-43h-73v-179q0 -46 34 -46q18 0 39 16z" />
    <glyph glyph-name="u.sups" unicode="&#x1d58;" horiz-adv-x="400" 
d="M348 449l36 -7v-30l-129 -7l-4 56q-45 -59 -111 -59q-95 0 -95 117v166l-35 6v27l125 13l9 -7v-202q0 -60 39 -60q31 0 66 33v190l-35 6v25l124 15l10 -7v-275z" />
    <glyph glyph-name="v.sups" unicode="&#x1d5b;" horiz-adv-x="355" 
d="M352 724v-29l-41 -7l-110 -280h-47l-121 280l-37 7v29h187v-29l-44 -9l66 -173l62 175l-44 7v29h129z" />
    <glyph glyph-name="c.sups" unicode="&#x1d9c;" horiz-adv-x="333" 
d="M230 669l-4 33q-5 1 -16 1q-37 0 -61.5 -31.5t-24.5 -92.5q0 -57 25.5 -88t65.5 -31q54 0 84 40l22 -16q-35 -82 -137 -82q-70 0 -116 44t-46 122q0 77 50.5 122.5t125.5 45.5q51 0 86 -26.5t39 -66.5q-10 -32 -43 -32q-44 0 -50 58z" />
    <glyph glyph-name="f.sups" unicode="&#x1da0;" horiz-adv-x="233" 
d="M14 719l43 5q12 85 57 127t108 42q66 0 77 -44q-1 -18 -13.5 -29.5t-32.5 -11.5q-32 0 -58 42l-6 8q-5 -5 -7 -8q-32 -36 -29 -126h72v-43h-71v-228l54 -11v-30h-193v30l41 8v231h-42v38z" />
    <glyph glyph-name="z.sups" unicode="&#x1dbb;" horiz-adv-x="317" 
d="M252 520h51l-7 -108h-280v25l173 258h-100l-19 -72l-50 3l5 98h270v-25l-167 -257h105z" />
    <glyph glyph-name="uni1E44" unicode="&#x1e44;" horiz-adv-x="728" 
d="M363 705q-33 0 -56.5 22.5t-23.5 55.5q0 34 23.5 56.5t56.5 22.5t56.5 -22.5t23.5 -56.5q0 -33 -23.5 -55.5t-56.5 -22.5zM699 657v-54l-85 -13v-600h-84l-352 495v-418l114 -13v-54h-264v54l85 12v511l-14 20l-69 6v54h226l294 -404v337l-114 13v54h263z" />
    <glyph glyph-name="uni1E45" unicode="&#x1e45;" horiz-adv-x="616" 
d="M321 573q-36 0 -60.5 22.5t-24.5 56.5q0 35 24.5 57.5t60.5 22.5t60.5 -22.5t24.5 -57.5q0 -34 -24.5 -56.5t-60.5 -22.5zM545 57l50 -10v-47h-264v47l52 11q1 49 1 152v107q0 48 -12.5 67.5t-42.5 19.5q-39 0 -86 -36v-158q0 -104 1 -153l47 -10v-47h-263v47l54 12
q1 48 1 151v60q0 56 -3 116l-61 9v39l197 67l18 -11l6 -72q72 83 160 83q66 0 105 -44t39 -128v-119q0 -104 1 -153z" />
    <glyph glyph-name="uni2007" unicode="&#x2007;" horiz-adv-x="542" 
 />
    <glyph glyph-name="figuredash" unicode="&#x2012;" horiz-adv-x="542" 
d="M40 209v90h462v-90h-462z" />
    <glyph glyph-name="endash" unicode="&#x2013;" horiz-adv-x="539" 
d="M40 209v90h459v-90h-459z" />
    <glyph glyph-name="emdash" unicode="&#x2014;" horiz-adv-x="839" 
d="M40 209v90h759v-90h-759z" />
    <glyph glyph-name="uni2015" unicode="&#x2015;" horiz-adv-x="839" 
d="M40 209v90h759v-90h-759z" />
    <glyph glyph-name="quoteleft" unicode="&#x2018;" horiz-adv-x="216" 
d="M106 606l44 -31q39 -30 39 -74q0 -33 -22.5 -54.5t-54.5 -21.5q-33 0 -66 27q-22 37 -22 83q0 64 42.5 117.5t112.5 83.5l18 -38q-57 -34 -91 -92z" />
    <glyph glyph-name="quoteright" unicode="&#x2019;" horiz-adv-x="216" 
d="M110 556l-44 31q-39 30 -39 74q0 33 22.5 54.5t54.5 21.5q33 0 66 -27q22 -37 22 -83q0 -64 -42.5 -117.5t-112.5 -83.5l-18 38q57 34 91 92z" />
    <glyph glyph-name="quotesinglbase" unicode="&#x201a;" horiz-adv-x="216" 
d="M110 -22l-44 31q-39 30 -39 74q0 33 22.5 54.5t54.5 21.5q33 0 66 -27q22 -37 22 -83q0 -64 -42.5 -117.5t-112.5 -83.5l-18 38q57 34 91 92z" />
    <glyph glyph-name="quotedblleft" unicode="&#x201c;" horiz-adv-x="430" 
d="M179 736l18 -38q-57 -34 -91 -92l44 -31q39 -30 39 -74q0 -33 -22.5 -54.5t-54.5 -21.5q-33 0 -66 27q-22 37 -22 83q0 64 42.5 117.5t112.5 83.5zM320 606l44 -31q39 -30 39 -74q0 -33 -22.5 -54.5t-54.5 -21.5q-33 0 -66 27q-22 37 -22 83q0 64 42.5 117.5t112.5 83.5
l18 -38q-57 -34 -91 -92z" />
    <glyph glyph-name="quotedblright" unicode="&#x201d;" horiz-adv-x="430" 
d="M110 556l-44 31q-39 30 -39 74q0 33 22.5 54.5t54.5 21.5q33 0 66 -27q22 -37 22 -83q0 -64 -42.5 -117.5t-112.5 -83.5l-18 38q57 34 91 92zM324 556l-44 31q-39 30 -39 74q0 33 22.5 54.5t54.5 21.5q33 0 66 -27q22 -37 22 -83q0 -64 -42.5 -117.5t-112.5 -83.5l-18 38
q57 34 91 92z" />
    <glyph glyph-name="quotedblbase" unicode="&#x201e;" horiz-adv-x="430" 
d="M110 -22l-44 31q-39 30 -39 74q0 33 22.5 54.5t54.5 21.5q33 0 66 -27q22 -37 22 -83q0 -64 -42.5 -117.5t-112.5 -83.5l-18 38q57 34 91 92zM324 -22l-44 31q-39 30 -39 74q0 33 22.5 54.5t54.5 21.5q33 0 66 -27q22 -37 22 -83q0 -64 -42.5 -117.5t-112.5 -83.5l-18 38
q57 34 91 92z" />
    <glyph glyph-name="dagger" unicode="&#x2020;" horiz-adv-x="532" 
d="M284 504l48 24q56 29 91 29q36 0 55 -19.5t19 -51.5q0 -33 -19 -53t-55 -20q-33 0 -91 29l-48 25q53 -112 53 -197q0 -21 -1.5 -44t-7 -62.5t-9.5 -65l-15.5 -94.5t-17.5 -109h-40q-5 33 -13.5 81.5t-12 72t-9 57.5t-8 52.5t-5 41t-3.5 39t-1 31.5q0 46 10.5 88t41.5 108
l-46 -23q-56 -29 -91 -29q-36 0 -55 19.5t-19 52.5q0 32 19 52t55 20q37 0 91 -29l46 -24l-23 47q-29 58 -29 96q0 34 19.5 52t52.5 18t52.5 -18t19.5 -52q0 -42 -29 -96z" />
    <glyph glyph-name="daggerdbl" unicode="&#x2021;" horiz-adv-x="532" 
d="M285 149l47 24q56 28 91 28q36 0 55 -19.5t19 -52.5q0 -32 -19 -51.5t-55 -19.5q-33 0 -91 28l-47 24l24 -47q29 -56 29 -96q0 -35 -19.5 -53t-52.5 -18t-52.5 18t-19.5 53q0 38 29 96l23 47l-46 -24q-54 -29 -91 -29q-36 0 -55 19.5t-19 52.5t19 52.5t55 19.5
q35 0 91 -29l46 -23q-31 63 -41.5 95t-10.5 64t10.5 63.5t41.5 94.5l-46 -23q-56 -29 -91 -29q-36 0 -55 19.5t-19 52.5q0 32 19 52t55 20q37 0 91 -29l46 -24l-23 47q-29 58 -29 96q0 34 19.5 52t52.5 18t52.5 -18t19.5 -52q0 -42 -29 -96l-25 -48l48 24q56 29 91 29
q36 0 55 -19.5t19 -51.5q0 -33 -19 -53t-55 -20q-33 0 -91 29l-47 24q31 -62 41.5 -94t10.5 -64t-10.5 -64.5t-41.5 -94.5z" />
    <glyph glyph-name="bullet" unicode="&#x2022;" horiz-adv-x="330" 
d="M165 189q-55 0 -93.5 37.5t-38.5 96.5t38 96t94 37t94 -37t38 -96t-38.5 -96.5t-93.5 -37.5z" />
    <glyph glyph-name="ellipsis" unicode="&#x2026;" horiz-adv-x="900" 
d="M150 -15q-38 0 -64 26t-26 63q0 38 26 64.5t64 26.5t64 -26.5t26 -64.5q0 -37 -26 -63t-64 -26zM450 -15q-38 0 -64 26t-26 63q0 38 26 64.5t64 26.5t64 -26.5t26 -64.5q0 -37 -26 -63t-64 -26zM750 -15q-38 0 -64 26t-26 63q0 38 26 64.5t64 26.5t64 -26.5t26 -64.5
q0 -37 -26 -63t-64 -26z" />
    <glyph glyph-name="perthousand" unicode="&#x2030;" horiz-adv-x="1221" 
d="M242 -32l-47 32l447 659l47 -32zM154 440q0 -66 7.5 -105t18 -51.5t26.5 -12.5q53 0 53 169q0 170 -53 170q-16 0 -26.5 -12.5t-18 -51.5t-7.5 -106zM206 644q65 0 109 -51.5t44 -152.5q0 -99 -44 -151t-109 -52t-108.5 51.5t-43.5 151.5q0 101 43 152.5t109 51.5z
M616 194q0 -66 7.5 -105t18 -51.5t26.5 -12.5q53 0 53 169q0 170 -53 170q-16 0 -26.5 -12.5t-18 -51.5t-7.5 -106zM668 398q65 0 109 -51.5t44 -152.5q0 -99 -44 -151t-109 -52t-108.5 51.5t-43.5 151.5q0 101 43 152.5t109 51.5zM972 194q0 -66 7.5 -105t18 -51.5
t26.5 -12.5q53 0 53 169q0 170 -53 170q-16 0 -26.5 -12.5t-18 -51.5t-7.5 -106zM1024 398q65 0 109 -51.5t44 -152.5q0 -99 -44 -151t-109 -52t-108.5 51.5t-43.5 151.5q0 101 43 152.5t109 51.5z" />
    <glyph glyph-name="uni2032" unicode="&#x2032;" horiz-adv-x="256" 
d="M141 729q32 0 50.5 -18.5t18.5 -50.5q0 -38 -51 -165l-44 -107l-64 7l19 311q35 23 71 23z" />
    <glyph glyph-name="uni2033" unicode="&#x2033;" horiz-adv-x="474" 
d="M141 729q32 0 50.5 -18.5t18.5 -50.5q0 -38 -51 -165l-44 -107l-64 7l19 311q35 23 71 23zM359 728q32 0 50.5 -18.5t18.5 -50.5q0 -37 -51 -165l-44 -107l-64 7l19 311q34 23 71 23z" />
    <glyph glyph-name="guilsinglleft" unicode="&#x2039;" horiz-adv-x="334" 
d="M295 439l-154 -186l154 -187l-35 -36l-234 190v65l234 190z" />
    <glyph glyph-name="guilsinglright" unicode="&#x203a;" horiz-adv-x="334" 
d="M74 475l234 -190v-65l-234 -190l-35 36l154 187l-154 186z" />
    <glyph glyph-name="fraction" unicode="&#x2044;" horiz-adv-x="140" 
d="M-130 -32l-47 32l447 659l47 -32z" />
    <glyph glyph-name="zero.sups" unicode="&#x2070;" 
d="M134 606q0 -66 7.5 -105t18 -51.5t26.5 -12.5q53 0 53 169q0 170 -53 170q-16 0 -26.5 -12.5t-18 -51.5t-7.5 -106zM186 810q65 0 109 -51.5t44 -152.5q0 -99 -44 -151t-109 -52t-108.5 51.5t-43.5 151.5q0 101 43 152.5t109 51.5z" />
    <glyph glyph-name="i.sups" unicode="&#x2071;" horiz-adv-x="207" 
d="M108 790q-23 0 -40 15t-17 36q0 22 17 36.5t40 14.5q24 0 40.5 -14.5t16.5 -36.5t-16.5 -36.5t-40.5 -14.5zM158 449l36 -7v-30h-174v30l39 8v212l-44 6v26l132 42l11 -6v-281z" />
    <glyph glyph-name="four.sups" unicode="&#x2074;" 
d="M83 573h109v146zM344 573v-72h-58v-89h-94v89h-165v59l185 243h74v-230h58z" />
    <glyph glyph-name="five.sups" unicode="&#x2075;" 
d="M124 717l-5 -64q25 5 61 5q75 0 117.5 -32t42.5 -93q0 -64 -47.5 -98.5t-122.5 -34.5q-62 0 -98 28t-38 73q10 30 42 30q41 0 46 -52l5 -43q12 -3 25 -3q33 0 54 24.5t21 65.5q0 89 -75 89q-30 0 -61 -7l-18 14l14 182h236v-84h-199z" />
    <glyph glyph-name="six.sups" unicode="&#x2076;" 
d="M198 433q45 0 45 89q0 43 -14.5 65.5t-38.5 22.5q-27 0 -49 -23q1 -154 57 -154zM312 812l4 -32q-73 -17 -117.5 -59.5t-54.5 -97.5q31 30 84 30q55 0 87 -31.5t32 -87.5q0 -63 -43 -98.5t-107 -35.5q-75 0 -119.5 44.5t-44.5 121.5q0 96 78 166.5t201 79.5z" />
    <glyph glyph-name="seven.sups" unicode="&#x2077;" 
d="M48 801h287v-49l-150 -340h-95l-7 6l181 297h-216v86z" />
    <glyph glyph-name="eight.sups" unicode="&#x2078;" 
d="M186 433q27 0 41 16t14 38q0 27 -18 47t-65 41q-30 -33 -30 -78q0 -28 16.5 -46t41.5 -18zM190 779q-22 0 -37.5 -13t-15.5 -35q0 -46 75 -81q27 34 27 76q0 24 -13 38.5t-36 14.5zM246 635q90 -45 90 -121q0 -53 -41.5 -83.5t-115.5 -30.5q-67 0 -102.5 25t-35.5 67
q0 65 82 99q-74 40 -74 109q0 50 40.5 80.5t103.5 30.5q64 0 96.5 -25t32.5 -63q0 -53 -76 -88z" />
    <glyph glyph-name="nine.sups" unicode="&#x2079;" 
d="M195 605q23 0 37 9q2 26 2 41q0 69 -13 96.5t-38 27.5q-50 0 -50 -91q0 -41 16.5 -62t45.5 -21zM78 400l-7 33q71 23 108 57.5t49 91.5q-28 -18 -71 -18q-57 0 -92.5 30t-35.5 85q0 62 44 97t109 35q77 0 118.5 -44.5t41.5 -124.5q0 -97 -73.5 -162t-190.5 -80z" />
    <glyph glyph-name="parenleft.sups" unicode="&#x207d;" horiz-adv-x="280" 
d="M143 584q0 -66 21.5 -121.5t75.5 -126.5l-30 -26q-154 115 -154 274t154 274l30 -26q-54 -71 -75.5 -126.5t-21.5 -121.5z" />
    <glyph glyph-name="parenright.sups" unicode="&#x207e;" horiz-adv-x="280" 
d="M137 584q0 67 -21 122t-76 126l29 26q155 -115 155 -274t-155 -274l-29 26q54 71 75.5 126.5t21.5 121.5z" />
    <glyph glyph-name="n.sups" unicode="&#x207f;" horiz-adv-x="414" 
d="M362 449l37 -7v-30h-173v30l38 8v164q0 35 -8.5 49t-30.5 14q-30 0 -66 -28v-200l35 -7v-30h-172v30l39 8v212l-45 6v26l125 42l11 -6l5 -50q49 56 110 56q45 0 70 -28.5t25 -84.5v-174z" />
    <glyph glyph-name="zero.subs" unicode="&#x2080;" 
d="M134 -9q0 -66 7.5 -105t18 -51.5t26.5 -12.5q53 0 53 169q0 170 -53 170q-16 0 -26.5 -12.5t-18 -51.5t-7.5 -106zM186 195q65 0 109 -51.5t44 -152.5q0 -99 -44 -151t-109 -52t-108.5 51.5t-43.5 151.5q0 101 43 152.5t109 51.5z" />
    <glyph glyph-name="one.subs" unicode="&#x2081;" 
d="M251 -155l73 -17v-31h-259v31l78 17v280l-70 -9v41l169 39l9 -7v-344z" />
    <glyph glyph-name="two.subs" unicode="&#x2082;" 
d="M131 -117h201v-86h-289v57l85 82q48 45 68.5 78.5t20.5 73.5q0 36 -17.5 55t-47.5 19h-14l-8 -43q-7 -55 -48 -55q-28 0 -42 27q1 51 44 78t113 27q63 0 95 -30t32 -77q0 -43 -36 -83.5t-117 -94.5z" />
    <glyph glyph-name="three.subs" unicode="&#x2083;" 
d="M144 161l-6 -41q-7 -43 -48 -43q-24 0 -37 18q0 50 37 75.5t92 25.5q69 0 105 -27.5t36 -71.5q0 -33 -22.5 -58.5t-66.5 -36.5q103 -17 103 -103q0 -53 -43.5 -83.5t-116.5 -30.5q-138 0 -143 105q11 28 41 28q20 0 32 -12t16 -43l5 -43q4 -1 14 -1q85 0 85 85
q0 76 -80 76h-22v37h18q76 0 76 75q0 70 -64 70q-7 0 -11 -1z" />
    <glyph glyph-name="four.subs" unicode="&#x2084;" 
d="M83 -42h109v146zM344 -42v-72h-58v-89h-94v89h-165v59l185 243h74v-230h58z" />
    <glyph glyph-name="five.subs" unicode="&#x2085;" 
d="M124 102l-5 -64q25 5 61 5q75 0 117.5 -32t42.5 -93q0 -64 -47.5 -98.5t-122.5 -34.5q-62 0 -98 28t-38 73q10 30 42 30q41 0 46 -52l5 -43q12 -3 25 -3q33 0 54 24.5t21 65.5q0 89 -75 89q-30 0 -61 -7l-18 14l14 182h236v-84h-199z" />
    <glyph glyph-name="six.subs" unicode="&#x2086;" 
d="M198 -182q45 0 45 89q0 43 -14.5 65.5t-38.5 22.5q-27 0 -49 -23q1 -154 57 -154zM312 197l4 -32q-73 -17 -117.5 -59.5t-54.5 -97.5q31 30 84 30q55 0 87 -31.5t32 -87.5q0 -63 -43 -98.5t-107 -35.5q-75 0 -119.5 44.5t-44.5 121.5q0 96 78 166.5t201 79.5z" />
    <glyph glyph-name="seven.subs" unicode="&#x2087;" 
d="M48 186h287v-49l-150 -340h-95l-7 6l181 297h-216v86z" />
    <glyph glyph-name="eight.subs" unicode="&#x2088;" 
d="M186 -182q27 0 41 16t14 38q0 27 -18 47t-65 41q-30 -33 -30 -78q0 -28 16.5 -46t41.5 -18zM190 164q-22 0 -37.5 -13t-15.5 -35q0 -46 75 -81q27 34 27 76q0 24 -13 38.5t-36 14.5zM246 20q90 -45 90 -121q0 -53 -41.5 -83.5t-115.5 -30.5q-67 0 -102.5 25t-35.5 67
q0 65 82 99q-74 40 -74 109q0 50 40.5 80.5t103.5 30.5q64 0 96.5 -25t32.5 -63q0 -53 -76 -88z" />
    <glyph glyph-name="nine.subs" unicode="&#x2089;" 
d="M195 -10q23 0 37 9q2 26 2 41q0 69 -13 96.5t-38 27.5q-50 0 -50 -91q0 -41 16.5 -62t45.5 -21zM78 -215l-7 33q71 23 108 57.5t49 91.5q-28 -18 -71 -18q-57 0 -92.5 30t-35.5 85q0 62 44 97t109 35q77 0 118.5 -44.5t41.5 -124.5q0 -97 -73.5 -162t-190.5 -80z" />
    <glyph glyph-name="parenleft.subs" unicode="&#x208d;" horiz-adv-x="280" 
d="M143 -31q0 -66 21.5 -121.5t75.5 -126.5l-30 -26q-154 115 -154 274t154 274l30 -26q-54 -71 -75.5 -126.5t-21.5 -121.5z" />
    <glyph glyph-name="parenright.subs" unicode="&#x208e;" horiz-adv-x="280" 
d="M137 -31q0 67 -21 122t-76 126l29 26q155 -115 155 -274t-155 -274l-29 26q54 71 75.5 126.5t21.5 121.5z" />
    <glyph glyph-name="Euro" unicode="&#x20ac;" horiz-adv-x="542" 
d="M384 38l9 48q14 83 80 83q48 0 55 -50q-2 -60 -54.5 -97t-133.5 -37q-108 0 -179 61t-90 182h-61v57h56q-1 10 -1 31q0 24 1 35h-56v57h63q21 118 94.5 177.5t178.5 60.5q78 0 128 -37t53 -97q-4 -26 -20.5 -38.5t-36.5 -12.5q-30 0 -50.5 17.5t-28.5 65.5l-10 48
q-9 1 -29 1q-49 0 -85.5 -47t-49.5 -138h196v-57h-201q-1 -11 -1 -35q0 -21 1 -31h201v-57h-196q13 -93 53.5 -142t97.5 -49q11 0 16 1z" />
    <glyph glyph-name="uni20B9" unicode="&#x20b9;" horiz-adv-x="542" 
d="M396 61l73 -9v-52q-49 -14 -99 -14q-56 0 -91 20.5t-45 74.5l-21 98q-10 45 -32 64t-67 19h-58v57h55q67 0 98.5 36t33.5 91h-187v57h180q-22 67 -114 67h-66v57h412v-57h-130q33 -29 45 -67h85v-57h-79q-2 -51 -33 -92t-98 -61q94 -23 115 -120z" />
    <glyph glyph-name="uni20BA" unicode="&#x20ba;" horiz-adv-x="542" 
d="M434 117l-10 41q-8 40 -8 50q0 33 19 49t44 16q21 0 35.5 -11t19.5 -27q0 -106 -77 -178t-198 -72q-98 0 -156 15q3 90 3 181l-84 -44v67l84 44v61l-84 -43v66l84 44q0 88 -2 190l-79 8v53h327v-53l-84 -8q0 -18 -0.5 -56t-0.5 -57l122 63v-66l-122 -63v-63l122 63v-66
l-122 -63v-217h14q93 0 153 76z" />
    <glyph glyph-name="uni2113" unicode="&#x2113;" horiz-adv-x="545" 
d="M301 681q-79 0 -79 -321q0 -69 11 -126q122 157 122 329q0 118 -54 118zM508 119l26 -38q-42 -47 -86.5 -71.5t-113.5 -24.5q-111 0 -184 85l-71 -56l-26 38q40 33 68 60q-58 97 -58 253q0 183 72 277t175 94q76 0 120 -50t44 -133q0 -101 -55.5 -196t-163.5 -196
q42 -95 125 -95q65 0 128 53z" />
    <glyph glyph-name="uni2117" unicode="&#x2117;" horiz-adv-x="744" 
d="M372 317h12q38 0 58.5 23t20.5 62q0 79 -80 79h-11v-164zM221 526h164q174 0 174 -124q0 -129 -180 -129h-7v-90l55 -6v-42h-206v42l46 5v297l-46 5v42zM373 34q118 0 199.5 81.5t81.5 213.5t-81.5 213t-199.5 81t-199.5 -81t-81.5 -213t81.5 -213.5t199.5 -81.5z
M373 676q142 0 242 -96t100 -251q0 -154 -100 -251t-242 -97t-242.5 97t-100.5 251q0 155 100 251t243 96z" />
    <glyph glyph-name="uni2120" unicode="&#x2120;" horiz-adv-x="715" 
d="M162 558l24 -11q46 -22 64.5 -44t18.5 -56q0 -43 -32 -69.5t-95 -26.5q-66 0 -106 24l3 71h51l9 -62q21 -6 38 -6q20 0 32 11t12 28q0 25 -30 41l-21 11q-47 22 -68.5 46t-21.5 60q0 42 31.5 66.5t88.5 24.5q58 0 95 -23l-5 -67h-50l-8 59q-12 4 -27 4q-18 0 -29 -10
t-11 -27q0 -26 37 -44zM678 625l-30 -3v-226l30 -3v-32h-160v32l32 3v167l-82 -202h-28l-82 193l-1 -155l43 -6v-32h-121v32l44 6l3 223l-32 3v32h121l72 -166l65 166h126v-32z" />
    <glyph glyph-name="trademark" unicode="&#x2122;" horiz-adv-x="780" 
d="M323 657v-88h-46l-6 56h-40v-229l35 -3v-32h-168v32l34 3v229h-40l-6 -56h-46l1 88h282zM734 625l-30 -3v-226l30 -3v-32h-160v32l32 3v169l-82 -204h-29l-81 192l-1 -154l42 -6v-32h-120v32l44 6l3 223l-33 3v32h121l73 -166l64 166h127v-32z" />
    <glyph glyph-name="uni2126" unicode="&#x2126;" horiz-adv-x="803" 
d="M703 236h85l-15 -236h-333v105q49 53 82 145.5t33 179.5q0 82 -36 135t-118 53t-117.5 -53t-35.5 -135q0 -87 33 -180t82 -145v-105h-333l-15 236h85l23 -114h139v3q-74 45 -128.5 125.5t-54.5 167.5q0 112 84.5 185t237.5 73t238 -72.5t85 -184.5q0 -88 -54.5 -168.5
t-128.5 -125.5v-3h139z" />
    <glyph glyph-name="estimated" unicode="&#x212e;" horiz-adv-x="800" 
d="M176 312v-184q0 -8 8 -20q87 -100 218 -100q66 0 125.5 30t102.5 82h52q-51 -61 -124.5 -96.5t-157.5 -35.5q-147 0 -250.5 98t-103.5 238t103.5 238t250.5 98t250.5 -98t103.5 -238v-8h-574q-4 0 -4 -4zM180 334h440q6 0 6 6v184q0 12 -10 22q-91 94 -214 94
q-127 0 -218 -98q-8 -12 -8 -22v-180q0 -6 4 -6z" />
    <glyph glyph-name="onethird" unicode="&#x2153;" horiz-adv-x="874" 
d="M305 246h-259v31l78 17v280l-70 -9v41l169 39l9 -7v-344l73 -17v-31zM642 659l47 -32l-447 -659l-47 32zM629 364l-6 -41q-7 -43 -48 -43q-24 0 -37 18q0 50 37 75.5t92 25.5q69 0 105 -27.5t36 -71.5q0 -33 -22.5 -58.5t-66.5 -36.5q103 -17 103 -103q0 -53 -43.5 -83.5
t-116.5 -30.5q-138 0 -143 105q11 28 41 28q20 0 32 -12t16 -43l5 -43q4 -1 14 -1q85 0 85 85q0 76 -80 76h-22v37h18q76 0 76 75q0 70 -64 70q-7 0 -11 -1z" />
    <glyph glyph-name="twothirds" unicode="&#x2154;" horiz-adv-x="874" 
d="M48 303l85 82q48 45 68.5 78.5t20.5 73.5q0 36 -17.5 55t-47.5 19h-14l-8 -43q-7 -55 -48 -55q-29 0 -42 27q1 51 44 78t113 27q63 0 95 -30t32 -77q0 -43 -36 -83.5t-117 -94.5l-40 -28h201v-86h-289v57zM663 659l47 -32l-447 -659l-47 32zM645 364l-6 -41
q-7 -43 -48 -43q-24 0 -37 18q0 50 37 75.5t92 25.5q69 0 105 -27.5t36 -71.5q0 -33 -22.5 -58.5t-66.5 -36.5q103 -17 103 -103q0 -53 -43.5 -83.5t-116.5 -30.5q-138 0 -143 105q11 28 41 28q20 0 32 -12t16 -43l5 -43q4 -1 14 -1q85 0 85 85q0 76 -80 76h-22v37h18
q76 0 76 75q0 70 -64 70q-7 0 -11 -1z" />
    <glyph glyph-name="oneeighth" unicode="&#x215b;" horiz-adv-x="874" 
d="M308 246h-259v31l78 17v280l-70 -9v41l169 39l9 -7v-344l73 -17v-31zM638 659l47 -32l-447 -659l-47 32zM661 21q27 0 41 16t14 38q0 27 -18 47t-65 41q-30 -33 -30 -78q0 -28 16.5 -46t41.5 -18zM665 367q-22 0 -37.5 -13t-15.5 -35q0 -46 75 -81q27 34 27 76
q0 24 -13 38.5t-36 14.5zM721 223q90 -45 90 -121q0 -53 -41.5 -83.5t-115.5 -30.5q-67 0 -102.5 25t-35.5 67q0 65 82 99q-74 40 -74 109q0 50 40.5 80.5t103.5 30.5q64 0 96.5 -25t32.5 -63q0 -53 -76 -88z" />
    <glyph glyph-name="threeeighths" unicode="&#x215c;" horiz-adv-x="874" 
d="M158 610l-6 -41q-7 -43 -48 -43q-24 0 -37 18q0 50 37 75.5t92 25.5q69 0 105 -27.5t36 -71.5q0 -33 -22.5 -58.5t-66.5 -36.5q103 -17 103 -103q0 -53 -43.5 -83.5t-116.5 -30.5q-138 0 -143 105q11 28 41 28q20 0 32 -12t16 -43l5 -43q4 -1 14 -1q85 0 85 85
q0 76 -80 76h-22v37h18q76 0 76 75q0 70 -64 70q-7 0 -11 -1zM649 659l47 -32l-447 -659l-47 32zM679 21q27 0 41 16t14 38q0 27 -18 47t-65 41q-30 -33 -30 -78q0 -28 16.5 -46t41.5 -18zM683 367q-22 0 -37.5 -13t-15.5 -35q0 -46 75 -81q27 34 27 76q0 24 -13 38.5
t-36 14.5zM739 223q90 -45 90 -121q0 -53 -41.5 -83.5t-115.5 -30.5q-67 0 -102.5 25t-35.5 67q0 65 82 99q-74 40 -74 109q0 50 40.5 80.5t103.5 30.5q64 0 96.5 -25t32.5 -63q0 -53 -76 -88z" />
    <glyph glyph-name="fiveeighths" unicode="&#x215d;" horiz-adv-x="874" 
d="M136 551l-5 -64q25 5 61 5q75 0 117.5 -32t42.5 -93q0 -64 -47.5 -98.5t-122.5 -34.5q-62 0 -98 28t-38 73q10 30 42 30q41 0 46 -52l5 -43q12 -3 25 -3q33 0 54 24.5t21 65.5q0 89 -75 89q-30 0 -61 -7l-18 14l14 182h236v-84h-199zM648 659l47 -32l-447 -659l-47 32z
M679 21q27 0 41 16t14 38q0 27 -18 47t-65 41q-30 -33 -30 -78q0 -28 16.5 -46t41.5 -18zM683 367q-22 0 -37.5 -13t-15.5 -35q0 -46 75 -81q27 34 27 76q0 24 -13 38.5t-36 14.5zM739 223q90 -45 90 -121q0 -53 -41.5 -83.5t-115.5 -30.5q-67 0 -102.5 25t-35.5 67
q0 65 82 99q-74 40 -74 109q0 50 40.5 80.5t103.5 30.5q64 0 96.5 -25t32.5 -63q0 -53 -76 -88z" />
    <glyph glyph-name="seveneighths" unicode="&#x215e;" horiz-adv-x="874" 
d="M377 586l-150 -340h-95l-7 6l181 297h-216v86h287v-49zM610 659l47 -32l-447 -659l-47 32zM655 21q27 0 41 16t14 38q0 27 -18 47t-65 41q-30 -33 -30 -78q0 -28 16.5 -46t41.5 -18zM659 367q-22 0 -37.5 -13t-15.5 -35q0 -46 75 -81q27 34 27 76q0 24 -13 38.5t-36 14.5
zM715 223q90 -45 90 -121q0 -53 -41.5 -83.5t-115.5 -30.5q-67 0 -102.5 25t-35.5 67q0 65 82 99q-74 40 -74 109q0 50 40.5 80.5t103.5 30.5q64 0 96.5 -25t32.5 -63q0 -53 -76 -88z" />
    <glyph glyph-name="uni2190" unicode="&#x2190;" horiz-adv-x="653" 
d="M334 601l36 -35l-233 -251l454 24h48v-106h-48l-454 25l233 -251l-36 -36l-320 283v65z" />
    <glyph glyph-name="arrowup" unicode="&#x2191;" horiz-adv-x="653" 
d="M641 279l-35 -36l-251 233l24 -454v-48h-106v48l25 454l-251 -233l-36 36l283 320h65z" />
    <glyph glyph-name="uni2192" unicode="&#x2192;" horiz-adv-x="653" 
d="M319 -29l-36 36l233 251l-454 -25h-48v106h48l454 -24l-233 251l36 35l320 -282v-65z" />
    <glyph glyph-name="arrowdown" unicode="&#x2193;" horiz-adv-x="653" 
d="M11 294l36 36l251 -233l-25 454v48h106v-48l-24 -454l251 233l35 -36l-282 -320h-65z" />
    <glyph glyph-name="uni2196" unicode="&#x2196;" horiz-adv-x="653" 
d="M555 503v-50l-342 -12l338 -304l34 -34l-75 -75l-34 34l-304 338l-13 -342h-50l-27 427l46 46z" />
    <glyph glyph-name="uni2197" unicode="&#x2197;" horiz-adv-x="653" 
d="M543 58h-50l-12 342l-304 -338l-34 -34l-75 75l34 34l338 304l-342 12v50l427 28l46 -46z" />
    <glyph glyph-name="uni2198" unicode="&#x2198;" horiz-adv-x="653" 
d="M98 69v50l342 13l-338 304l-34 34l75 75l34 -34l304 -338l12 342h50l28 -427l-46 -46z" />
    <glyph glyph-name="uni2199" unicode="&#x2199;" horiz-adv-x="653" 
d="M109 515h50l13 -342l304 338l34 34l75 -75l-34 -34l-338 -304l342 -13v-50l-427 -27l-46 46z" />
    <glyph glyph-name="partialdiff" unicode="&#x2202;" horiz-adv-x="563" 
d="M247 37q18 0 37 14.5t38.5 44.5t33.5 87.5t19 134.5q-32 29 -69 29q-51 0 -89.5 -51.5t-38.5 -137.5q0 -121 69 -121zM144 523l-32 41q68 82 189 82q101 0 166 -69t65 -211q0 -179 -81 -280t-220 -101q-95 0 -146.5 52.5t-51.5 149.5q0 103 70 164t173 61q61 0 101 -31v9
q0 104 -25 149.5t-78 45.5q-66 0 -130 -62z" />
    <glyph glyph-name="uni2206" unicode="&#x2206;" horiz-adv-x="592" 
d="M92 58h297l-151 447zM343 657l222 -615v-42h-538v42l213 615h103z" />
    <glyph glyph-name="product" unicode="&#x220f;" horiz-adv-x="758" 
d="M727 603l-73 -8q-2 -81 -2 -248v-160q0 -166 2 -248l73 -8v-54h-315v54l70 7q2 82 2 250v159q0 167 -2 250h-205q-2 -82 -2 -250v-159q0 -167 2 -250l70 -7v-54h-316v54l74 8q2 81 2 248v160q0 165 -2 248l-74 8v54h696v-54z" />
    <glyph glyph-name="summation" unicode="&#x2211;" horiz-adv-x="575" 
d="M476 122h80l-8 -245h-528v85l212 288l-209 358v49h512l8 -186h-79l-26 129h-222l161 -283l-241 -324h314z" />
    <glyph glyph-name="minus" unicode="&#x2212;" horiz-adv-x="544" 
d="M515 279h-485v88h485v-88z" />
    <glyph glyph-name="uni2215" unicode="&#x2215;" horiz-adv-x="140" 
d="M-130 -32l-47 32l447 659l47 -32z" />
    <glyph glyph-name="uni2219" unicode="&#x2219;" horiz-adv-x="300" 
d="M150 234q-38 0 -64 26t-26 63q0 38 26 64.5t64 26.5t64 -26.5t26 -64.5q0 -37 -26 -63t-64 -26z" />
    <glyph glyph-name="radical" unicode="&#x221a;" horiz-adv-x="574" 
d="M479 775h107l-216 -882h-93l-132 387h-111v86h201l96 -324z" />
    <glyph glyph-name="infinity" unicode="&#x221e;" horiz-adv-x="789" 
d="M611 247q38 0 61.5 23t23.5 63q0 43 -30 67.5t-79 24.5q-66 0 -128 -62q83 -116 152 -116zM202 219q67 0 128 62q-42 58 -77.5 87t-74.5 29q-38 0 -61 -22.5t-23 -62.5q0 -44 29.5 -68.5t78.5 -24.5zM603 521q68 0 111 -52t43 -138q0 -90 -50.5 -149t-135.5 -59
q-118 0 -211 117q-73 -117 -174 -117q-67 0 -110 52t-43 138q0 90 50.5 149t135.5 59q119 0 211 -118q72 118 173 118z" />
    <glyph glyph-name="integral" unicode="&#x222b;" horiz-adv-x="376" 
d="M47 -113l14 -34q23 14 38 37q32 47 34 137q0 22 -23 249q-13 137 -13 207q0 144 80 219q61 60 156 60q93 0 123 -75q-2 -67 -58 -67q-46 0 -69 56l-14 34q-23 -14 -38 -37q-32 -47 -34 -137q0 -18 1.5 -39.5t4 -43.5l7.5 -69l10 -97q13 -138 13 -207q0 -143 -79 -219
q-62 -60 -157 -60q-93 0 -123 75q1 32 16 50t42 18q46 0 69 -57z" />
    <glyph glyph-name="approxequal" unicode="&#x2248;" horiz-adv-x="544" 
d="M296 254q35 -28 50 -37t30 -9q45 0 52 95l77 -8q-1 -93 -38 -135.5t-96 -42.5q-51 0 -123 57q-35 28 -49.5 37t-29.5 9q-45 0 -53 -95l-76 8q3 178 133 178q52 0 123 -57zM296 494q35 -28 50 -37t30 -9q45 0 52 95l77 -8q-1 -93 -38 -135.5t-96 -42.5q-51 0 -123 57
q-35 28 -49.5 37t-29.5 9q-45 0 -53 -95l-76 8q3 178 133 178q52 0 123 -57z" />
    <glyph glyph-name="notequal" unicode="&#x2260;" horiz-adv-x="544" 
d="M515 384h-177l-69 -122h246v-88h-295l-81 -143l-49 28l65 115h-125v88h174l69 122h-243v88h293l80 142l49 -28l-64 -114h127v-88z" />
    <glyph glyph-name="lessequal" unicode="&#x2264;" horiz-adv-x="544" 
d="M492 197l-36 -81l-415 195v68l415 194l36 -80l-327 -148zM30 88h485v-88h-485v88z" />
    <glyph glyph-name="greaterequal" unicode="&#x2265;" horiz-adv-x="544" 
d="M88 116l-36 81l327 148l-327 148l36 80l415 -194v-68zM29 88h485v-88h-485v88z" />
    <glyph glyph-name="uni25A0" unicode="&#x25a0;" horiz-adv-x="720" 
d="M55 0v600h610v-600h-610z" />
    <glyph glyph-name="triagup" unicode="&#x25b2;" horiz-adv-x="609" 
d="M11 49l274 476h38l275 -476l-19 -31h-549z" />
    <glyph glyph-name="uni25B3" unicode="&#x25b3;" horiz-adv-x="609" 
d="M11 49l274 476h38l275 -476l-19 -31h-549zM305 390l-166 -289h330z" />
    <glyph glyph-name="uni25B6" unicode="&#x25b6;" horiz-adv-x="609" 
d="M103 558l477 -274v-37l-477 -272l-33 17v547z" />
    <glyph glyph-name="uni25B7" unicode="&#x25b7;" horiz-adv-x="609" 
d="M103 558l477 -274v-37l-477 -272l-33 17v547zM442 266l-287 166v-333z" />
    <glyph glyph-name="triagdn" unicode="&#x25bc;" horiz-adv-x="609" 
d="M598 493l-275 -475h-38l-274 475l19 32h549z" />
    <glyph glyph-name="uni25BD" unicode="&#x25bd;" horiz-adv-x="609" 
d="M598 493l-275 -475h-38l-274 475l19 32h549zM305 152l164 289h-330z" />
    <glyph glyph-name="uni25C0" unicode="&#x25c0;" horiz-adv-x="609" 
d="M507 -25l-477 272v37l477 274l33 -19v-547z" />
    <glyph glyph-name="uni25C1" unicode="&#x25c1;" horiz-adv-x="609" 
d="M507 -25l-477 272v37l477 274l33 -19v-547zM168 266l286 -167v333z" />
    <glyph glyph-name="uni25C6" unicode="&#x25c6;" horiz-adv-x="748" 
d="M728 300l-354 -354l-354 354l354 354z" />
    <glyph glyph-name="uni25C9" unicode="&#x25c9;" horiz-adv-x="484" 
d="M242 110q-93 0 -155 61t-62 152t62 152t155 61t155 -61t62 -152t-62 -152t-155 -61zM242 175q63 0 105 42t42 106t-42 106t-105 42t-105 -42t-42 -106t41.5 -106t105.5 -42zM242 239q-36 0 -59.5 23.5t-23.5 60.5q0 36 23.5 59.5t59.5 23.5t59.5 -23t23.5 -60
t-23.5 -60.5t-59.5 -23.5z" />
    <glyph glyph-name="lozenge" unicode="&#x25ca;" horiz-adv-x="609" 
d="M473 325l-168 274l-169 -274l169 -273zM582 325l-259 -394h-38l-258 394l258 396h38z" />
    <glyph glyph-name="uni2610" unicode="&#x2610;" horiz-adv-x="800" 
d="M143 43h514v514h-514v-514zM55 -37v674h690v-674h-690z" />
    <glyph glyph-name="uni2611" unicode="&#x2611;" horiz-adv-x="800" 
d="M657 43v514h-53q-96 -243 -153 -470h-80q-85 189 -181 339l91 62q70 -113 120 -227q40 142 101 296h-359v-514h514zM637 637h108v-674h-690v674h480q50 117 126 264l81 -38q-57 -116 -105 -226z" />
    <glyph glyph-name="musicalnote" unicode="&#x266a;" horiz-adv-x="551" 
d="M264 736h52q20 -89 107 -154q111 -82 111 -179q0 -91 -65 -177l-34 20q20 44 20 85q0 60 -58 109l-71 59v-306q0 -98 -46 -153t-131 -55q-54 0 -89.5 23.5t-35.5 70.5q0 54 46 88t120 34q41 0 74 -11v546z" />
    <glyph glyph-name="uni2713" unicode="&#x2713;" horiz-adv-x="644" 
d="M533 814l81 -38q-193 -387 -291 -776h-80q-85 189 -181 339l91 62q70 -113 120 -227q88 311 260 640z" />
    <glyph glyph-name="uni2752" unicode="&#x2752;" horiz-adv-x="967" 
d="M135 0h610v600h-610v-600zM51 -82v721l171 121h693v-675l-120 -167h-744z" />
    <glyph glyph-name="i.trk" horiz-adv-x="316" 
d="M163 573q-36 0 -60.5 22.5t-24.5 56.5q0 35 24.5 57.5t60.5 22.5t60.5 -22.5t24.5 -57.5q0 -34 -24.5 -56.5t-60.5 -22.5zM245 57l50 -10v-47h-265v47l54 12q1 48 1 151v50q0 66 -3 126l-61 9v39l209 67l17 -11l-3 -145v-135q0 -104 1 -153z" />
    <glyph glyph-name="zero.slash" horiz-adv-x="542" 
d="M348 462l-136 -373q20 -52 59 -52q26 0 43.5 21.5t29.5 85.5t12 171q0 86 -8 147zM194 175l135 370q-21 49 -58 49q-26 0 -43.5 -21.5t-29 -85.5t-11.5 -172q0 -88 7 -140zM271 646q101 0 169 -84t68 -247t-68 -246.5t-169 -83.5t-168 83t-67 247t67 247.5t168 83.5z" />
    <glyph glyph-name="zero.lf" horiz-adv-x="529" 
d="M189 316q0 -110 10 -173.5t25.5 -84.5t39.5 -21t40 21t26 84.5t10 173.5q0 84 -5.5 140.5t-16 85.5t-23.5 40.5t-31 11.5q-24 0 -39.5 -20t-25.5 -83.5t-10 -174.5zM265 646q105 0 170 -80t65 -250q0 -171 -65 -251t-170 -80t-170.5 80t-65.5 251q0 170 65.5 250
t170.5 80z" />
    <glyph glyph-name="one.lf" horiz-adv-x="388" 
d="M285 67l89 -20v-47h-351v47l99 21q1 46 1 139v332l-93 -8v58l242 55l16 -11l-4 -140v-286q0 -93 1 -140z" />
    <glyph glyph-name="two.lf" horiz-adv-x="531" 
d="M153 123h339v-123h-449v89l135 135q74 73 107 128t33 120q0 57 -27.5 89.5t-74.5 32.5q-17 0 -25 -1l-13 -71q-12 -85 -74 -85q-45 0 -65 41q2 79 68 123.5t164 44.5q104 0 156 -47.5t52 -125.5q0 -71 -54.5 -135.5t-180.5 -149.5z" />
    <glyph glyph-name="three.lf" horiz-adv-x="529" 
d="M196 593l-10 -65q-12 -70 -75 -70q-38 0 -56 32q0 77 57 116.5t142 39.5q107 0 163.5 -44.5t56.5 -115.5q0 -51 -35 -92.5t-107 -60.5q85 -15 123 -56.5t38 -109.5q0 -80 -67 -131t-182 -51q-103 0 -158.5 43t-59.5 123q17 44 62 44q32 0 50 -20t24 -69l9 -67
q16 -2 23 -2q135 0 135 136q0 62 -33 94.5t-95 32.5h-35v56h29q122 0 122 124q0 114 -102 114q-12 0 -19 -1z" />
    <glyph glyph-name="four.lf" horiz-adv-x="527" 
d="M103 244h177v250zM514 244v-111h-92v-133h-142v133h-260v92l291 408h111v-389h92z" />
    <glyph glyph-name="five.lf" horiz-adv-x="531" 
d="M163 507l-9 -126q47 9 97 9q116 0 181.5 -51t65.5 -146q0 -100 -73.5 -154t-191.5 -54q-95 0 -149.5 44t-59.5 121q16 45 64 45q32 0 49.5 -20t22.5 -65l8 -68q15 -5 38 -5q56 0 90 37t34 101q0 69 -31.5 105.5t-89.5 36.5q-43 0 -95 -11l-28 20l21 305h366v-124h-310z
" />
    <glyph glyph-name="six.lf" horiz-adv-x="531" 
d="M187 289v-8q0 -244 91 -244q35 0 55 36t20 108q0 145 -86 145q-46 0 -80 -37zM459 646l6 -50q-241 -60 -273 -254q51 51 134 51q89 0 136.5 -51t47.5 -140q0 -104 -66 -160.5t-166 -56.5q-116 0 -184 71.5t-68 201.5q0 154 120 262.5t313 125.5z" />
    <glyph glyph-name="seven.lf" horiz-adv-x="522" 
d="M36 631h448v-77l-235 -554h-147l-10 10l291 497h-347v124z" />
    <glyph glyph-name="eight.lf" horiz-adv-x="531" 
d="M264 37q41 0 64 26t23 64q0 41 -28.5 73t-101.5 65q-52 -55 -52 -121q0 -46 27 -76.5t68 -30.5zM267 593q-34 0 -59 -22t-25 -58t24.5 -66t92.5 -64q48 58 48 121q0 39 -22 64t-59 25zM351 359q143 -72 143 -192q0 -84 -64.5 -133t-177.5 -49q-105 0 -159.5 40t-54.5 111
q0 99 131 154q-119 66 -119 175q0 82 62 131.5t159 49.5q99 0 150 -41t51 -104q0 -86 -121 -142z" />
    <glyph glyph-name="nine.lf" horiz-adv-x="534" 
d="M278 307q38 0 64 18q3 30 3 65q0 113 -21 158.5t-62 45.5q-36 0 -59 -36.5t-23 -110.5q0 -67 26 -103.5t72 -36.5zM95 -20l-10 51q113 38 172 94.5t78 149.5q-47 -33 -114 -33q-88 0 -143.5 50.5t-55.5 141.5q0 101 68.5 156.5t169.5 55.5q118 0 182 -71t64 -199
q0 -153 -111.5 -259.5t-299.5 -136.5z" />
    <glyph glyph-name="zero.lfslash" horiz-adv-x="529" 
d="M336 435l-126 -345q18 -53 54 -53q24 0 40 21t26 84.5t10 173.5q0 75 -4 119zM194 182l128 350q-18 62 -58 62q-24 0 -39.5 -20t-25.5 -83.5t-10 -174.5q0 -74 5 -134zM265 646q105 0 170 -80t65 -250q0 -171 -65 -251t-170 -80t-170.5 80t-65.5 251q0 170 65.5 250
t170.5 80z" />
    <glyph glyph-name="zero.tosf" horiz-adv-x="542" 
d="M272 534q108 0 172 -70.5t64 -203.5q0 -134 -64 -204.5t-172 -70.5q-109 0 -173.5 70.5t-64.5 204.5q0 133 65 203.5t173 70.5zM193 260q0 -125 20.5 -174t58.5 -49q37 0 57.5 49t20.5 174q0 124 -20.5 172.5t-57.5 48.5q-38 0 -58.5 -48t-20.5 -173z" />
    <glyph glyph-name="one.tosf" horiz-adv-x="542" 
d="M352 74l122 -27v-47h-416v47l130 27q1 45 1 134v218l-115 -13v62l264 57l16 -11l-3 -140v-173q0 -89 1 -134z" />
    <glyph glyph-name="two.tosf" horiz-adv-x="542" 
d="M195 123h307v-123h-434v89l147 121q59 47 82 85.5t23 85.5q0 46 -23 73.5t-62 27.5q-13 0 -20 -1l-11 -67q-15 -87 -73 -87q-48 0 -67 39q-1 81 62 124.5t165 43.5q97 0 142.5 -40t45.5 -104q0 -52 -44 -101t-157 -115z" />
    <glyph glyph-name="three.tosf" horiz-adv-x="542" 
d="M211 481l-10 -65q-12 -70 -75 -70q-38 0 -56 32q0 77 57 116.5t142 39.5q107 0 163.5 -44.5t56.5 -115.5q0 -51 -35 -92.5t-107 -60.5q85 -15 123 -56.5t38 -109.5q0 -80 -67 -131t-182 -51q-103 0 -158.5 43t-59.5 123q17 44 62 44q32 0 50 -20t24 -69l9 -67
q16 -2 23 -2q135 0 135 136q0 62 -33 94.5t-95 32.5h-35v56h29q122 0 122 124q0 114 -102 114q-12 0 -19 -1z" />
    <glyph glyph-name="four.tosf" horiz-adv-x="542" 
d="M104 129h177v250zM515 129v-111h-92v-133h-142v133h-260v92l291 408h111v-389h92z" />
    <glyph glyph-name="five.tosf" horiz-adv-x="542" 
d="M168 395l-9 -126q47 9 97 9q116 0 181.5 -51t65.5 -146q0 -100 -73.5 -154t-191.5 -54q-95 0 -149.5 44t-59.5 121q17 45 64 45q32 0 49.5 -20t22.5 -65l8 -68q15 -5 38 -5q56 0 90 37t34 101q0 69 -31.5 105.5t-89.5 36.5q-43 0 -95 -11l-28 20l21 305h366v-124h-310z
" />
    <glyph glyph-name="six.tosf" horiz-adv-x="542" 
d="M185 289v-8q0 -244 91 -244q35 0 55 36t20 108q0 145 -86 145q-46 0 -80 -37zM457 646l6 -50q-241 -60 -273 -254q51 51 134 51q89 0 136.5 -51t47.5 -140q0 -104 -66 -160.5t-166 -56.5q-116 0 -184 71.5t-68 201.5q0 154 120 262.5t313 125.5z" />
    <glyph glyph-name="seven.tosf" horiz-adv-x="542" 
d="M55 519h448v-77l-235 -554h-147l-10 10l291 497h-347v124z" />
    <glyph glyph-name="eight.tosf" horiz-adv-x="542" 
d="M270 37q41 0 64 26t23 64q0 41 -28.5 73t-101.5 65q-52 -55 -52 -121q0 -46 27 -76.5t68 -30.5zM273 593q-34 0 -59 -22t-25 -58t24.5 -66t92.5 -64q48 58 48 121q0 39 -22 64t-59 25zM357 359q143 -72 143 -192q0 -84 -64.5 -133t-177.5 -49q-105 0 -159.5 40t-54.5 111
q0 99 131 154q-119 66 -119 175q0 82 62 131.5t159 49.5q99 0 150 -41t51 -104q0 -86 -121 -142z" />
    <glyph glyph-name="nine.tosf" horiz-adv-x="542" 
d="M288 195q38 0 64 18q3 30 3 65q0 113 -21 158.5t-62 45.5q-36 0 -59 -36.5t-23 -110.5q0 -67 26 -103.5t72 -36.5zM105 -132l-10 51q113 38 172 94.5t78 149.5q-47 -33 -114 -33q-88 0 -143.5 50.5t-55.5 141.5q0 101 68.5 156.5t169.5 55.5q118 0 182 -71t64 -199
q0 -153 -111.5 -259.5t-299.5 -136.5z" />
    <glyph glyph-name="zero.osf" horiz-adv-x="543" 
d="M272 534q108 0 175.5 -70t67.5 -205t-67.5 -204.5t-175.5 -69.5t-176 70t-68 204q0 135 68 205t176 70zM187 259q0 -124 22.5 -173t62.5 -49t62 48.5t22 173.5q0 85 -11.5 136t-29 68.5t-43.5 17.5q-40 0 -62.5 -49t-22.5 -173z" />
    <glyph glyph-name="one.osf" horiz-adv-x="406" 
d="M296 67l88 -20v-47h-347v47l95 21q1 48 1 144v214l-98 -9v58l247 57l17 -11l-4 -140v-169q0 -97 1 -145z" />
    <glyph glyph-name="two.osf" horiz-adv-x="516" 
d="M172 123h307v-123h-434v89l147 121q59 47 82 85.5t23 85.5q0 46 -23 73.5t-62 27.5q-13 0 -20 -1l-11 -67q-15 -87 -73 -87q-48 0 -67 39q-1 81 62 124.5t165 43.5q97 0 142.5 -40t45.5 -104q0 -52 -44 -101t-157 -115z" />
    <glyph glyph-name="three.osf" horiz-adv-x="529" 
d="M196 481l-10 -65q-12 -70 -75 -70q-38 0 -56 32q0 77 57 116.5t142 39.5q107 0 163.5 -44.5t56.5 -115.5q0 -51 -35 -92.5t-107 -60.5q85 -15 123 -56.5t38 -109.5q0 -80 -67 -131t-182 -51q-103 0 -158.5 43t-59.5 123q17 44 62 44q32 0 50 -20t24 -69l9 -67
q16 -2 23 -2q135 0 135 136q0 62 -33 94.5t-95 32.5h-35v56h29q122 0 122 124q0 114 -102 114q-12 0 -19 -1z" />
    <glyph glyph-name="four.osf" horiz-adv-x="527" 
d="M103 129h177v250zM514 129v-111h-92v-133h-142v133h-260v92l291 408h111v-389h92z" />
    <glyph glyph-name="five.osf" horiz-adv-x="531" 
d="M163 395l-9 -126q47 9 97 9q116 0 181.5 -51t65.5 -146q0 -100 -73.5 -154t-191.5 -54q-95 0 -149.5 44t-59.5 121q16 45 64 45q32 0 49.5 -20t22.5 -65l8 -68q15 -5 38 -5q56 0 90 37t34 101q0 69 -31.5 105.5t-89.5 36.5q-43 0 -95 -11l-28 20l21 305h366v-124h-310z
" />
    <glyph glyph-name="six.osf" horiz-adv-x="531" 
d="M187 289v-8q0 -244 91 -244q35 0 55 36t20 108q0 145 -86 145q-46 0 -80 -37zM459 646l6 -50q-241 -60 -273 -254q51 51 134 51q89 0 136.5 -51t47.5 -140q0 -104 -66 -160.5t-166 -56.5q-116 0 -184 71.5t-68 201.5q0 154 120 262.5t313 125.5z" />
    <glyph glyph-name="seven.osf" horiz-adv-x="522" 
d="M36 519h448v-77l-235 -554h-147l-10 10l291 497h-347v124z" />
    <glyph glyph-name="eight.osf" horiz-adv-x="531" 
d="M264 37q41 0 64 26t23 64q0 41 -28.5 73t-101.5 65q-52 -55 -52 -121q0 -46 27 -76.5t68 -30.5zM267 593q-34 0 -59 -22t-25 -58t24.5 -66t92.5 -64q48 58 48 121q0 39 -22 64t-59 25zM351 359q143 -72 143 -192q0 -84 -64.5 -133t-177.5 -49q-105 0 -159.5 40t-54.5 111
q0 99 131 154q-119 66 -119 175q0 82 62 131.5t159 49.5q99 0 150 -41t51 -104q0 -86 -121 -142z" />
    <glyph glyph-name="nine.osf" horiz-adv-x="534" 
d="M278 195q38 0 64 18q3 30 3 65q0 113 -21 158.5t-62 45.5q-36 0 -59 -36.5t-23 -110.5q0 -67 26 -103.5t72 -36.5zM95 -132l-10 51q113 38 172 94.5t78 149.5q-47 -33 -114 -33q-88 0 -143.5 50.5t-55.5 141.5q0 101 68.5 156.5t169.5 55.5q118 0 182 -71t64 -199
q0 -153 -111.5 -259.5t-299.5 -136.5z" />
    <glyph glyph-name="exclamdown.cap" horiz-adv-x="347" 
d="M174 668q39 0 66 -27t27 -65t-27 -65.5t-66 -27.5q-40 0 -67 27.5t-27 65.5t27 65t67 27zM174 -15q-44 0 -70 24.5t-26 70.5q0 68 44 228l25 96h53l25 -96q44 -157 44 -228q0 -46 -25.5 -70.5t-69.5 -24.5z" />
    <glyph glyph-name="questiondown.cap" horiz-adv-x="449" 
d="M277 491q-39 0 -66 27t-27 66q0 38 27 65t66 27t66.5 -27t27.5 -65t-27.5 -65.5t-66.5 -27.5zM138 162l149 -28q52 -9 71.5 -26.5t19.5 -47.5q0 -55 -81 -75q-34 9 -73 29t-78.5 50.5t-65 75.5t-25.5 94q0 107 113 123l43 6q23 4 31 11t10 27l2 31h57l12 -36
q20 -66 20 -91q0 -24 -17 -36.5t-60 -22.5l-84 -18q-26 -7 -37 -17t-11 -28q0 -12 4 -21z" />
    <glyph glyph-name="guilsinglleft.cap" horiz-adv-x="334" 
d="M295 480l-154 -186l154 -187l-35 -36l-234 190v65l234 190z" />
    <glyph glyph-name="guilsinglright.cap" horiz-adv-x="334" 
d="M74 516l234 -190v-65l-234 -190l-35 36l154 187l-154 186z" />
    <glyph glyph-name="guillemotleft.cap" horiz-adv-x="552" 
d="M295 480l-154 -186l154 -187l-35 -36l-234 190v65l234 190zM513 480l-154 -186l154 -187l-35 -36l-234 190v65l234 190z" />
    <glyph glyph-name="guillemotright.cap" horiz-adv-x="552" 
d="M308 326v-65l-234 -190l-35 36l154 187l-154 186l35 36zM292 516l234 -190v-65l-234 -190l-35 36l154 187l-154 186z" />
    <glyph glyph-name="hyphen.cap" horiz-adv-x="339" 
d="M40 260v90h259v-90h-259z" />
    <glyph glyph-name="sfthyphen.cap" horiz-adv-x="339" 
d="M40 260v90h259v-90h-259z" />
    <glyph glyph-name="endash.cap" horiz-adv-x="539" 
d="M40 260v90h459v-90h-459z" />
    <glyph glyph-name="emdash.cap" horiz-adv-x="839" 
d="M40 260v90h759v-90h-759z" />
    <glyph glyph-name="horizontalbar.cap" horiz-adv-x="839" 
d="M40 260v90h759v-90h-759z" />
    <glyph glyph-name="parenleft.cap" horiz-adv-x="377" 
d="M192 309q0 -116 36 -208.5t121 -196.5l-47 -41q-229 180 -229 446t229 446l47 -41q-85 -104 -121 -196.5t-36 -208.5z" />
    <glyph glyph-name="parenright.cap" horiz-adv-x="377" 
d="M185 309q0 116 -36 208.5t-121 196.5l47 41q229 -180 229 -446t-229 -446l-47 41q85 104 121 196.5t36 208.5z" />
    <glyph glyph-name="bracketleft.cap" horiz-adv-x="348" 
d="M333 692l-108 -11q-1 -83 -1 -252v-240q0 -168 2 -252l107 -11v-54h-233q3 103 3 317v240q0 212 -3 317h233v-54z" />
    <glyph glyph-name="bracketright.cap" horiz-adv-x="348" 
d="M245 429v-240q0 -212 3 -317h-233v54l108 11q1 83 1 252v240q0 168 -2 252l-107 11v54h233q-3 -103 -3 -317z" />
    <glyph glyph-name="braceleft.cap" horiz-adv-x="337" 
d="M307 693l-27 -3q-67 -9 -67 -77q0 -28 13 -86t13 -84q0 -101 -97 -134q97 -33 97 -134q0 -26 -13 -84t-13 -86q0 -68 67 -77l27 -3v-53h-34q-83 0 -133 32.5t-50 96.5q0 40 27.5 103.5t27.5 95.5q0 31 -22.5 50.5t-82.5 31.5v54q60 12 82.5 31.5t22.5 50.5
q0 32 -27.5 95.5t-27.5 103.5q0 64 50 96.5t133 32.5h34v-53z" />
    <glyph glyph-name="braceright.cap" horiz-adv-x="337" 
d="M297 336v-54q-60 -12 -82.5 -31.5t-22.5 -50.5q0 -32 27.5 -95.5t27.5 -103.5q0 -64 -50 -96.5t-133 -32.5h-34v53l27 3q67 9 67 77q0 28 -13 86t-13 84q0 101 97 134q-97 33 -97 134q0 26 13 84t13 86q0 68 -67 77l-27 3v53h34q83 0 133 -32.5t50 -96.5
q0 -40 -27.5 -103.5t-27.5 -95.5q0 -31 22.5 -50.5t82.5 -31.5z" />
    <glyph glyph-name="at.cap" horiz-adv-x="890" 
d="M484 229l40 233q-19 19 -42 19q-44 0 -79 -53q-42 -63 -42 -143q0 -45 17 -68t45 -23q30 0 61 35zM656 525l-46 -262q-10 -54 -0.5 -75.5t39.5 -21.5q51 0 83.5 57t32.5 169q0 132 -70.5 198t-194.5 66q-158 0 -261 -112t-103 -273q0 -136 79.5 -212t211.5 -76
q111 0 186 44l27 -48q-100 -67 -229 -67q-168 0 -270 95.5t-102 261.5q0 122 58.5 226t167.5 167.5t245 63.5q153 0 247.5 -93t94.5 -244q0 -127 -63.5 -204.5t-162.5 -77.5q-107 0 -136 79q-58 -79 -137 -79q-51 0 -84.5 37.5t-33.5 109.5q0 57 23.5 115.5t61.5 101.5
q33 37 75.5 58t81.5 21q57 0 94 -40l59 32z" />
    <glyph glyph-name="period.sups" horiz-adv-x="232" 
d="M116 403q-25 0 -42 16.5t-17 39.5q0 24 17 41.5t42 17.5t42 -17.5t17 -41.5q0 -23 -17 -39.5t-42 -16.5z" />
    <glyph glyph-name="comma.sups" horiz-adv-x="229" 
d="M116 393l-21 12q-37 19 -37 53q0 25 16.5 42.5t41.5 17.5q27 0 48 -18q11 -28 11 -52q0 -59 -40 -100.5t-91 -56.5l-9 28q55 27 81 74z" />
    <glyph glyph-name="colon.sups" horiz-adv-x="232" 
d="M116 621q-25 0 -42 16.5t-17 40.5t17 41t42 17t42 -17t17 -41t-17 -40.5t-42 -16.5zM116 403q-25 0 -42 16.5t-17 39.5q0 24 17 41.5t42 17.5t42 -17.5t17 -41.5q0 -23 -17 -39.5t-42 -16.5z" />
    <glyph glyph-name="hyphen.sups" horiz-adv-x="258" 
d="M46 540v58h166v-58h-166z" />
    <glyph glyph-name="endash.sups" horiz-adv-x="386" 
d="M46 540v58h294v-58h-294z" />
    <glyph glyph-name="emdash.sups" horiz-adv-x="578" 
d="M46 540v58h486v-58h-486z" />
    <glyph glyph-name="period.subs" horiz-adv-x="232" 
d="M116 -212q-25 0 -42 16.5t-17 39.5q0 24 17 41.5t42 17.5t42 -17.5t17 -41.5q0 -23 -17 -39.5t-42 -16.5z" />
    <glyph glyph-name="comma.subs" horiz-adv-x="229" 
d="M116 -222l-21 12q-37 19 -37 53q0 25 16.5 42.5t41.5 17.5q27 0 48 -18q11 -27 11 -52q0 -59 -40 -100.5t-91 -56.5l-9 28q55 27 81 74z" />
    <glyph glyph-name="zero.dnom" 
d="M134 194q0 -66 7.5 -105t18 -51.5t26.5 -12.5q53 0 53 169q0 170 -53 170q-16 0 -26.5 -12.5t-18 -51.5t-7.5 -106zM186 398q65 0 109 -51.5t44 -152.5q0 -99 -44 -151t-109 -52t-108.5 51.5t-43.5 151.5q0 101 43 152.5t109 51.5z" />
    <glyph glyph-name="one.dnom" 
d="M251 48l73 -17v-31h-259v31l78 17v280l-70 -9v41l169 39l9 -7v-344z" />
    <glyph glyph-name="two.dnom" 
d="M131 86h201v-86h-289v57l85 82q48 45 68.5 78.5t20.5 73.5q0 36 -17.5 55t-47.5 19h-14l-8 -43q-7 -55 -48 -55q-28 0 -42 27q1 51 44 78t113 27q63 0 95 -30t32 -77q0 -43 -36 -83.5t-117 -94.5z" />
    <glyph glyph-name="three.dnom" 
d="M144 364l-6 -41q-7 -43 -48 -43q-24 0 -37 18q0 50 37 75.5t92 25.5q69 0 105 -27.5t36 -71.5q0 -33 -22.5 -58.5t-66.5 -36.5q103 -17 103 -103q0 -53 -43.5 -83.5t-116.5 -30.5q-138 0 -143 105q11 28 41 28q20 0 32 -12t16 -43l5 -43q4 -1 14 -1q85 0 85 85
q0 76 -80 76h-22v37h18q76 0 76 75q0 70 -64 70q-7 0 -11 -1z" />
    <glyph glyph-name="four.dnom" 
d="M83 161h109v146zM344 161v-72h-58v-89h-94v89h-165v59l185 243h74v-230h58z" />
    <glyph glyph-name="five.dnom" 
d="M124 305l-5 -64q25 5 61 5q75 0 117.5 -32t42.5 -93q0 -64 -47.5 -98.5t-122.5 -34.5q-62 0 -98 28t-38 73q10 30 42 30q41 0 46 -52l5 -43q12 -3 25 -3q33 0 54 24.5t21 65.5q0 89 -75 89q-30 0 -61 -7l-18 14l14 182h236v-84h-199z" />
    <glyph glyph-name="six.dnom" 
d="M198 21q45 0 45 89q0 43 -14.5 65.5t-38.5 22.5q-27 0 -49 -23q1 -154 57 -154zM312 400l4 -32q-73 -17 -117.5 -59.5t-54.5 -97.5q31 30 84 30q55 0 87 -31.5t32 -87.5q0 -63 -43 -98.5t-107 -35.5q-75 0 -119.5 44.5t-44.5 121.5q0 96 78 166.5t201 79.5z" />
    <glyph glyph-name="seven.dnom" 
d="M48 389h287v-49l-150 -340h-95l-7 6l181 297h-216v86z" />
    <glyph glyph-name="eight.dnom" 
d="M186 21q27 0 41 16t14 38q0 27 -18 47t-65 41q-30 -33 -30 -78q0 -28 16.5 -46t41.5 -18zM190 367q-22 0 -37.5 -13t-15.5 -35q0 -46 75 -81q27 34 27 76q0 24 -13 38.5t-36 14.5zM246 223q90 -45 90 -121q0 -53 -41.5 -83.5t-115.5 -30.5q-67 0 -102.5 25t-35.5 67
q0 65 82 99q-74 40 -74 109q0 50 40.5 80.5t103.5 30.5q64 0 96.5 -25t32.5 -63q0 -53 -76 -88z" />
    <glyph glyph-name="nine.dnom" 
d="M195 193q23 0 37 9q2 26 2 41q0 69 -13 96.5t-38 27.5q-50 0 -50 -91q0 -41 16.5 -62t45.5 -21zM78 -12l-7 33q71 23 108 57.5t49 91.5q-28 -18 -71 -18q-57 0 -92.5 30t-35.5 85q0 62 44 97t109 35q77 0 118.5 -44.5t41.5 -124.5q0 -97 -73.5 -162t-190.5 -80z" />
    <glyph glyph-name="parenleft.dnom" horiz-adv-x="280" 
d="M143 172q0 -66 21.5 -121.5t75.5 -126.5l-30 -26q-154 115 -154 274t154 274l30 -26q-54 -71 -75.5 -126.5t-21.5 -121.5z" />
    <glyph glyph-name="parenright.dnom" horiz-adv-x="280" 
d="M137 172q0 67 -21 122t-76 126l29 26q155 -115 155 -274t-155 -274l-29 26q54 71 75.5 126.5t21.5 121.5z" />
    <glyph glyph-name="period.dnom" horiz-adv-x="232" 
d="M116 -9q-25 0 -42 16.5t-17 39.5q0 24 17 41.5t42 17.5t42 -17.5t17 -41.5q0 -23 -17 -39.5t-42 -16.5z" />
    <glyph glyph-name="comma.dnom" horiz-adv-x="229" 
d="M116 -19l-21 12q-37 19 -37 53q0 25 16.5 42.5t41.5 17.5q27 0 48 -18q11 -28 11 -52q0 -59 -40 -100.5t-91 -56.5l-9 28q55 27 81 74z" />
    <glyph glyph-name="zero.numr" 
d="M134 440q0 -66 7.5 -105t18 -51.5t26.5 -12.5q53 0 53 169q0 170 -53 170q-16 0 -26.5 -12.5t-18 -51.5t-7.5 -106zM186 644q65 0 109 -51.5t44 -152.5q0 -99 -44 -151t-109 -52t-108.5 51.5t-43.5 151.5q0 101 43 152.5t109 51.5z" />
    <glyph glyph-name="one.numr" 
d="M251 294l73 -17v-31h-259v31l78 17v280l-70 -9v41l169 39l9 -7v-344z" />
    <glyph glyph-name="two.numr" 
d="M131 332h201v-86h-289v57l85 82q48 45 68.5 78.5t20.5 73.5q0 36 -17.5 55t-47.5 19h-14l-8 -43q-7 -55 -48 -55q-28 0 -42 27q1 51 44 78t113 27q63 0 95 -30t32 -77q0 -43 -36 -83.5t-117 -94.5z" />
    <glyph glyph-name="three.numr" 
d="M144 610l-6 -41q-7 -43 -48 -43q-24 0 -37 18q0 50 37 75.5t92 25.5q69 0 105 -27.5t36 -71.5q0 -33 -22.5 -58.5t-66.5 -36.5q103 -17 103 -103q0 -53 -43.5 -83.5t-116.5 -30.5q-138 0 -143 105q11 28 41 28q20 0 32 -12t16 -43l5 -43q4 -1 14 -1q85 0 85 85
q0 76 -80 76h-22v37h18q76 0 76 75q0 70 -64 70q-7 0 -11 -1z" />
    <glyph glyph-name="four.numr" 
d="M83 407h109v146zM344 407v-72h-58v-89h-94v89h-165v59l185 243h74v-230h58z" />
    <glyph glyph-name="five.numr" 
d="M124 551l-5 -64q25 5 61 5q75 0 117.5 -32t42.5 -93q0 -64 -47.5 -98.5t-122.5 -34.5q-62 0 -98 28t-38 73q10 30 42 30q41 0 46 -52l5 -43q12 -3 25 -3q33 0 54 24.5t21 65.5q0 89 -75 89q-30 0 -61 -7l-18 14l14 182h236v-84h-199z" />
    <glyph glyph-name="six.numr" 
d="M198 267q45 0 45 89q0 43 -14.5 65.5t-38.5 22.5q-27 0 -49 -23q1 -154 57 -154zM312 646l4 -32q-73 -17 -117.5 -59.5t-54.5 -97.5q31 30 84 30q55 0 87 -31.5t32 -87.5q0 -63 -43 -98.5t-107 -35.5q-75 0 -119.5 44.5t-44.5 121.5q0 96 78 166.5t201 79.5z" />
    <glyph glyph-name="seven.numr" 
d="M48 635h287v-49l-150 -340h-95l-7 6l181 297h-216v86z" />
    <glyph glyph-name="eight.numr" 
d="M186 267q27 0 41 16t14 38q0 27 -18 47t-65 41q-30 -33 -30 -78q0 -28 16.5 -46t41.5 -18zM190 613q-22 0 -37.5 -13t-15.5 -35q0 -46 75 -81q27 34 27 76q0 24 -13 38.5t-36 14.5zM246 469q90 -45 90 -121q0 -53 -41.5 -83.5t-115.5 -30.5q-67 0 -102.5 25t-35.5 67
q0 65 82 99q-74 40 -74 109q0 50 40.5 80.5t103.5 30.5q64 0 96.5 -25t32.5 -63q0 -53 -76 -88z" />
    <glyph glyph-name="nine.numr" 
d="M195 439q23 0 37 9q2 26 2 41q0 69 -13 96.5t-38 27.5q-50 0 -50 -91q0 -41 16.5 -62t45.5 -21zM78 234l-7 33q71 23 108 57.5t49 91.5q-28 -18 -71 -18q-57 0 -92.5 30t-35.5 85q0 62 44 97t109 35q77 0 118.5 -44.5t41.5 -124.5q0 -97 -73.5 -162t-190.5 -80z" />
    <glyph glyph-name="parenleft.numr" horiz-adv-x="280" 
d="M143 418q0 -66 21.5 -121.5t75.5 -126.5l-30 -26q-154 115 -154 274t154 274l30 -26q-54 -71 -75.5 -126.5t-21.5 -121.5z" />
    <glyph glyph-name="parenright.numr" horiz-adv-x="280" 
d="M137 418q0 67 -21 122t-76 126l29 26q155 -115 155 -274t-155 -274l-29 26q54 71 75.5 126.5t21.5 121.5z" />
    <glyph glyph-name="period.numr" horiz-adv-x="232" 
d="M116 237q-25 0 -42 16.5t-17 39.5q0 24 17 41.5t42 17.5t42 -17.5t17 -41.5q0 -23 -17 -39.5t-42 -16.5z" />
    <glyph glyph-name="comma.numr" horiz-adv-x="229" 
d="M116 227l-21 12q-37 19 -37 53q0 25 16.5 42.5t41.5 17.5q27 0 48 -18q11 -28 11 -52q0 -59 -40 -100.5t-91 -56.5l-9 28q55 27 81 74z" />
    <glyph glyph-name="q.sups" horiz-adv-x="390" 
d="M250 475v193q-24 17 -50 17q-33 0 -53 -29.5t-20 -87.5q0 -57 19.5 -85.5t51.5 -28.5q26 0 52 21zM349 299l38 -8v-30h-182v30l45 10v143q-40 -42 -95 -42q-58 0 -95 43t-37 121q0 79 43.5 124.5t105.5 45.5q50 0 88 -41l71 41l18 -6v-431z" />
    <glyph glyph-name="egrave.sups" horiz-adv-x="349" 
d="M201 761l-59 47q-54 41 -54 67q0 15 11 24t26 9q17 0 30 -13t33 -51l35 -65zM124 598h72q23 0 32 9.5t9 30.5q0 30 -15 47.5t-37 17.5q-54 0 -61 -105zM324 566h-200q3 -52 29 -79t65 -27q49 0 85 39l22 -18q-42 -79 -138 -79q-74 0 -119.5 45t-45.5 121t50 122t119 46
q63 0 100 -37.5t37 -97.5q0 -22 -4 -35z" />
    <glyph glyph-name="eacute.sups" horiz-adv-x="349" 
d="M231 808l-59 -47l-22 18l35 65q20 38 33 51t30 13q15 0 26 -9t11 -24q0 -26 -54 -67zM124 598h72q23 0 32 9.5t9 30.5q0 30 -15 47.5t-37 17.5q-54 0 -61 -105zM324 566h-200q3 -52 29 -79t65 -27q49 0 85 39l22 -18q-42 -79 -138 -79q-74 0 -119.5 45t-45.5 121t50 122
t119 46q63 0 100 -37.5t37 -97.5q0 -22 -4 -35z" />
    <glyph glyph-name="slash.frac" horiz-adv-x="140" 
d="M-130 -32l-47 32l447 659l47 -32z" />
    <glyph glyph-name="space.frac" horiz-adv-x="114" 
 />
    <glyph glyph-name="uni00A0.frac" horiz-adv-x="114" 
 />
    <glyph glyph-name="caron.alt" horiz-adv-x="18" 
d="M53 734q48 0 48 -48q0 -38 -31 -109l-30 -62h-48l5 202q28 17 56 17z" />
    <glyph glyph-name="commabelowcmb.alt" horiz-adv-x="0" 
d="M80 777l15 -40q-58 -24 -79 -46q55 -27 55 -72q0 -25 -20 -42t-49 -17t-62 21q-10 29 -10 53q0 48 41.5 84.5t108.5 58.5z" />
    <glyph glyph-name="gravecmb.cap" horiz-adv-x="0" 
d="M107 734l-27 -39l-154 67q-59 26 -59 67q0 20 16 35.5t39 15.5q31 0 72 -38z" />
    <glyph glyph-name="acutecmb.cap" horiz-adv-x="0" 
d="M-107 734l113 108q41 38 72 38q23 0 39 -15.5t16 -35.5q0 -41 -59 -67l-154 -67z" />
    <glyph glyph-name="circumflexcmb.cap" horiz-adv-x="0" 
d="M181 729l-30 -35l-151 84l-151 -84l-30 35l147 152h68z" />
    <glyph glyph-name="tildecmb.cap" horiz-adv-x="0" 
d="M66 699q-51 0 -93 42l-7.5 7.5t-7.5 7t-6.5 5.5t-6.5 5.5t-6 4t-6.5 3t-6 1.5t-7.5 1q-39 0 -39 -68h-44q-5 21 -5 47q0 44 26 73.5t73 29.5q51 0 96 -42q34 -34 53 -34q40 0 40 67h44q5 -20 5 -45q0 -45 -26.5 -75t-75.5 -30z" />
    <glyph glyph-name="macroncmb.cap" horiz-adv-x="0" 
d="M-161 726v89h322v-89h-322z" />
    <glyph glyph-name="brevecmb.cap" horiz-adv-x="0" 
d="M0 715q-72 0 -112.5 37.5t-52.5 96.5l46 18q37 -72 119 -72q84 0 119 72l46 -18q-12 -59 -52.5 -96.5t-112.5 -37.5z" />
    <glyph glyph-name="dotaccentcmb.cap" horiz-adv-x="0" 
d="M0 711q-33 0 -56.5 22.5t-23.5 55.5q0 34 23.5 56.5t56.5 22.5t56.5 -22.5t23.5 -56.5q0 -33 -23.5 -55.5t-56.5 -22.5z" />
    <glyph glyph-name="dieresiscmb.cap" horiz-adv-x="0" 
d="M-125 711q-30 0 -51.5 19t-21.5 50t21.5 50t51.5 19q31 0 52.5 -19t21.5 -50t-21.5 -50t-52.5 -19zM124 711q-30 0 -51.5 19t-21.5 50t21.5 50t51.5 19q31 0 52.5 -19t21.5 -50t-21.5 -50t-52.5 -19z" />
    <glyph glyph-name="ringcmb.cap" horiz-adv-x="0" 
d="M0 701q-44 0 -73.5 27t-29.5 72q0 44 29.5 71.5t73.5 27.5t73.5 -27t29.5 -72t-29.5 -72t-73.5 -27zM0 747q23 0 37 15t14 38t-14 37.5t-37 14.5t-37 -14.5t-14 -37.5t14 -38t37 -15z" />
    <glyph glyph-name="hungarumlautcmb.cap" horiz-adv-x="0" 
d="M-161 718l55 132q19 47 58 47q19 0 33.5 -11t14.5 -29q0 -22 -22 -48l-99 -114zM-2 718l55 132q21 47 59 47q19 0 33 -11t14 -29q0 -22 -22 -48l-99 -114z" />
    <glyph glyph-name="caroncmb.cap" horiz-adv-x="0" 
d="M138 885l34 -32l-129 -148h-86l-128 148l33 32l138 -90z" />
    </font>
</defs>
</svg>
